<mxfile host="app.diagrams.net" modified="2020-06-22T19:13:40.952Z" agent="5.0 (Macintosh; Intel Mac OS X 10_15_1) AppleWebKit/537.36 (KHTML, like Gecko) Chrome/83.0.4103.106 Safari/537.36" etag="pMV7mzQJ_nfBFrT_TH8l" version="13.3.0" type="github" pages="15">
  <diagram id="Xs8MQ4heo64HYCRX1-q9" name="03 - hooks">
    <mxGraphModel dx="613" dy="302" grid="1" gridSize="10" guides="1" tooltips="1" connect="1" arrows="1" fold="1" page="1" pageScale="1" pageWidth="1920" pageHeight="1200" math="0" shadow="0">
      <root>
        <mxCell id="Fw1j4GzZVZ9YjB_BGAy8-0" />
        <mxCell id="Fw1j4GzZVZ9YjB_BGAy8-1" parent="Fw1j4GzZVZ9YjB_BGAy8-0" />
        <mxCell id="Fw1j4GzZVZ9YjB_BGAy8-2" value="The Hooks System" style="rounded=0;whiteSpace=wrap;html=1;align=center;fontStyle=1;fillColor=#dae8fc;strokeColor=#6c8ebf;shadow=1;fontSize=27;" vertex="1" parent="Fw1j4GzZVZ9YjB_BGAy8-1">
          <mxGeometry x="580" y="230" width="350" height="90" as="geometry" />
        </mxCell>
      </root>
    </mxGraphModel>
  </diagram>
  <diagram id="J0nNf1khwY0OVpfFuq0t" name="04 - step">
    <mxGraphModel dx="556" dy="274" grid="1" gridSize="10" guides="1" tooltips="1" connect="1" arrows="1" fold="1" page="1" pageScale="1" pageWidth="1920" pageHeight="1200" math="0" shadow="0">
      <root>
        <mxCell id="P6k9zwYlAgLLiM9GauDp-0" />
        <mxCell id="P6k9zwYlAgLLiM9GauDp-1" parent="P6k9zwYlAgLLiM9GauDp-0" />
        <mxCell id="Kb2-o1CX_GIhlwRT4rHR-0" value="Much Easier" style="rounded=0;whiteSpace=wrap;html=1;shadow=1;fontSize=24;fillColor=#d5e8d4;strokeColor=#82b366;fontStyle=1" vertex="1" parent="P6k9zwYlAgLLiM9GauDp-1">
          <mxGeometry x="480" y="380" width="100" height="80" as="geometry" />
        </mxCell>
        <mxCell id="Kb2-o1CX_GIhlwRT4rHR-1" style="edgeStyle=orthogonalEdgeStyle;rounded=0;orthogonalLoop=1;jettySize=auto;html=1;exitX=1;exitY=0.5;exitDx=0;exitDy=0;fontSize=24;" edge="1" parent="P6k9zwYlAgLLiM9GauDp-1">
          <mxGeometry relative="1" as="geometry">
            <mxPoint x="610" y="420" as="targetPoint" />
            <mxPoint x="580" y="420" as="sourcePoint" />
          </mxGeometry>
        </mxCell>
        <mxCell id="Kb2-o1CX_GIhlwRT4rHR-2" style="edgeStyle=orthogonalEdgeStyle;rounded=0;orthogonalLoop=1;jettySize=auto;html=1;exitX=1;exitY=0.5;exitDx=0;exitDy=0;fontSize=17;" edge="1" parent="P6k9zwYlAgLLiM9GauDp-1" source="Kb2-o1CX_GIhlwRT4rHR-3" target="Kb2-o1CX_GIhlwRT4rHR-4">
          <mxGeometry relative="1" as="geometry" />
        </mxCell>
        <mxCell id="Kb2-o1CX_GIhlwRT4rHR-3" value="Learn Class Components" style="rounded=0;whiteSpace=wrap;html=1;shadow=1;fontSize=17;fillColor=#f5f5f5;strokeColor=#666666;fontColor=#333333;" vertex="1" parent="P6k9zwYlAgLLiM9GauDp-1">
          <mxGeometry x="610" y="390" width="120" height="60" as="geometry" />
        </mxCell>
        <mxCell id="Kb2-o1CX_GIhlwRT4rHR-4" value="Learn Hooks" style="rounded=0;whiteSpace=wrap;html=1;shadow=1;fontSize=17;fillColor=#fff2cc;strokeColor=#d6b656;" vertex="1" parent="P6k9zwYlAgLLiM9GauDp-1">
          <mxGeometry x="760" y="390" width="120" height="60" as="geometry" />
        </mxCell>
        <mxCell id="Kb2-o1CX_GIhlwRT4rHR-5" style="edgeStyle=orthogonalEdgeStyle;rounded=0;orthogonalLoop=1;jettySize=auto;html=1;exitX=1;exitY=0.5;exitDx=0;exitDy=0;fontSize=17;" edge="1" parent="P6k9zwYlAgLLiM9GauDp-1" target="Kb2-o1CX_GIhlwRT4rHR-6">
          <mxGeometry relative="1" as="geometry">
            <mxPoint x="880.0000000000002" y="420" as="sourcePoint" />
          </mxGeometry>
        </mxCell>
        <mxCell id="Kb2-o1CX_GIhlwRT4rHR-6" value="Learn Redux" style="rounded=0;whiteSpace=wrap;html=1;shadow=1;fontSize=17;" vertex="1" parent="P6k9zwYlAgLLiM9GauDp-1">
          <mxGeometry x="910" y="390" width="120" height="60" as="geometry" />
        </mxCell>
        <mxCell id="Kb2-o1CX_GIhlwRT4rHR-7" value="" style="endArrow=none;html=1;fontSize=27;strokeWidth=4;" edge="1" parent="P6k9zwYlAgLLiM9GauDp-1">
          <mxGeometry width="50" height="50" relative="1" as="geometry">
            <mxPoint x="620" y="380" as="sourcePoint" />
            <mxPoint x="720" y="460" as="targetPoint" />
          </mxGeometry>
        </mxCell>
      </root>
    </mxGraphModel>
  </diagram>
  <diagram id="_iHnUMCZ_KwNqD0kkY2M" name="06 - primitive">
    <mxGraphModel dx="668" dy="328" grid="1" gridSize="10" guides="1" tooltips="1" connect="1" arrows="1" fold="1" page="1" pageScale="1" pageWidth="1920" pageHeight="1200" math="0" shadow="0">
      <root>
        <mxCell id="tXBYTmBANUSyTLj4P4F8-0" />
        <mxCell id="tXBYTmBANUSyTLj4P4F8-1" parent="tXBYTmBANUSyTLj4P4F8-0" />
        <mxCell id="tXBYTmBANUSyTLj4P4F8-2" value="" style="rounded=0;whiteSpace=wrap;html=1;shadow=1;fontSize=17;align=center;fillColor=#dae8fc;strokeColor=#6c8ebf;" vertex="1" parent="tXBYTmBANUSyTLj4P4F8-1">
          <mxGeometry x="565" y="570" width="430" height="290" as="geometry" />
        </mxCell>
        <mxCell id="tXBYTmBANUSyTLj4P4F8-3" value="useState" style="rounded=0;whiteSpace=wrap;html=1;shadow=1;fontSize=17;align=center;" vertex="1" parent="tXBYTmBANUSyTLj4P4F8-1">
          <mxGeometry x="580" y="580" width="120" height="60" as="geometry" />
        </mxCell>
        <mxCell id="tXBYTmBANUSyTLj4P4F8-4" value="useEffect" style="rounded=0;whiteSpace=wrap;html=1;shadow=1;fontSize=17;align=center;" vertex="1" parent="tXBYTmBANUSyTLj4P4F8-1">
          <mxGeometry x="720" y="580" width="120" height="60" as="geometry" />
        </mxCell>
        <mxCell id="tXBYTmBANUSyTLj4P4F8-5" value="useContext" style="rounded=0;whiteSpace=wrap;html=1;shadow=1;fontSize=17;align=center;" vertex="1" parent="tXBYTmBANUSyTLj4P4F8-1">
          <mxGeometry x="860" y="580" width="120" height="60" as="geometry" />
        </mxCell>
        <mxCell id="tXBYTmBANUSyTLj4P4F8-6" value="useReducer" style="rounded=0;whiteSpace=wrap;html=1;shadow=1;fontSize=17;align=center;" vertex="1" parent="tXBYTmBANUSyTLj4P4F8-1">
          <mxGeometry x="580" y="650" width="120" height="60" as="geometry" />
        </mxCell>
        <mxCell id="tXBYTmBANUSyTLj4P4F8-7" value="useCallback" style="rounded=0;whiteSpace=wrap;html=1;shadow=1;fontSize=17;align=center;" vertex="1" parent="tXBYTmBANUSyTLj4P4F8-1">
          <mxGeometry x="720" y="650" width="120" height="60" as="geometry" />
        </mxCell>
        <mxCell id="tXBYTmBANUSyTLj4P4F8-8" value="useMemo" style="rounded=0;whiteSpace=wrap;html=1;shadow=1;fontSize=17;align=center;" vertex="1" parent="tXBYTmBANUSyTLj4P4F8-1">
          <mxGeometry x="860" y="650" width="120" height="60" as="geometry" />
        </mxCell>
        <mxCell id="tXBYTmBANUSyTLj4P4F8-9" value="useRef" style="rounded=0;whiteSpace=wrap;html=1;shadow=1;fontSize=17;align=center;" vertex="1" parent="tXBYTmBANUSyTLj4P4F8-1">
          <mxGeometry x="580" y="720" width="120" height="60" as="geometry" />
        </mxCell>
        <mxCell id="tXBYTmBANUSyTLj4P4F8-10" value="useImperative Handle" style="rounded=0;whiteSpace=wrap;html=1;shadow=1;fontSize=17;align=center;" vertex="1" parent="tXBYTmBANUSyTLj4P4F8-1">
          <mxGeometry x="720" y="720" width="120" height="60" as="geometry" />
        </mxCell>
        <mxCell id="tXBYTmBANUSyTLj4P4F8-11" value="useLayout Effect" style="rounded=0;whiteSpace=wrap;html=1;shadow=1;fontSize=17;align=center;" vertex="1" parent="tXBYTmBANUSyTLj4P4F8-1">
          <mxGeometry x="860" y="720" width="120" height="60" as="geometry" />
        </mxCell>
        <mxCell id="tXBYTmBANUSyTLj4P4F8-12" value="useDebug Value" style="rounded=0;whiteSpace=wrap;html=1;shadow=1;fontSize=17;align=center;" vertex="1" parent="tXBYTmBANUSyTLj4P4F8-1">
          <mxGeometry x="580" y="790" width="120" height="60" as="geometry" />
        </mxCell>
        <mxCell id="tXBYTmBANUSyTLj4P4F8-13" value="&lt;b style=&quot;font-size: 23px;&quot;&gt;Primitive Hooks&lt;/b&gt;" style="text;html=1;strokeColor=none;fillColor=none;align=center;verticalAlign=middle;whiteSpace=wrap;rounded=0;shadow=1;fontSize=23;" vertex="1" parent="tXBYTmBANUSyTLj4P4F8-1">
          <mxGeometry x="675" y="540" width="210" height="20" as="geometry" />
        </mxCell>
      </root>
    </mxGraphModel>
  </diagram>
  <diagram name="07 - custom" id="LUzsqtRzk_zkEjjoWkA1">
    <mxGraphModel dx="699" dy="344" grid="1" gridSize="10" guides="1" tooltips="1" connect="1" arrows="1" fold="1" page="1" pageScale="1" pageWidth="1920" pageHeight="1200" math="0" shadow="0">
      <root>
        <mxCell id="PETL4pHNEPdp8-49zuH2-0" />
        <mxCell id="PETL4pHNEPdp8-49zuH2-1" parent="PETL4pHNEPdp8-49zuH2-0" />
        <mxCell id="PETL4pHNEPdp8-49zuH2-17" style="edgeStyle=orthogonalEdgeStyle;rounded=0;orthogonalLoop=1;jettySize=auto;html=1;exitX=1;exitY=0.5;exitDx=0;exitDy=0;strokeWidth=1;fontSize=23;" edge="1" parent="PETL4pHNEPdp8-49zuH2-1" source="PETL4pHNEPdp8-49zuH2-2">
          <mxGeometry relative="1" as="geometry">
            <mxPoint x="1030" y="714.6842105263158" as="targetPoint" />
          </mxGeometry>
        </mxCell>
        <mxCell id="PETL4pHNEPdp8-49zuH2-2" value="" style="rounded=0;whiteSpace=wrap;html=1;shadow=1;fontSize=17;align=center;fillColor=#dae8fc;strokeColor=#6c8ebf;" vertex="1" parent="PETL4pHNEPdp8-49zuH2-1">
          <mxGeometry x="565" y="570" width="430" height="289" as="geometry" />
        </mxCell>
        <mxCell id="PETL4pHNEPdp8-49zuH2-3" value="useState" style="rounded=0;whiteSpace=wrap;html=1;shadow=1;fontSize=17;align=center;" vertex="1" parent="PETL4pHNEPdp8-49zuH2-1">
          <mxGeometry x="580" y="580" width="120" height="60" as="geometry" />
        </mxCell>
        <mxCell id="PETL4pHNEPdp8-49zuH2-4" value="useEffect" style="rounded=0;whiteSpace=wrap;html=1;shadow=1;fontSize=17;align=center;" vertex="1" parent="PETL4pHNEPdp8-49zuH2-1">
          <mxGeometry x="720" y="580" width="120" height="60" as="geometry" />
        </mxCell>
        <mxCell id="PETL4pHNEPdp8-49zuH2-5" value="useContext" style="rounded=0;whiteSpace=wrap;html=1;shadow=1;fontSize=17;align=center;" vertex="1" parent="PETL4pHNEPdp8-49zuH2-1">
          <mxGeometry x="860" y="580" width="120" height="60" as="geometry" />
        </mxCell>
        <mxCell id="PETL4pHNEPdp8-49zuH2-6" value="useReducer" style="rounded=0;whiteSpace=wrap;html=1;shadow=1;fontSize=17;align=center;" vertex="1" parent="PETL4pHNEPdp8-49zuH2-1">
          <mxGeometry x="580" y="650" width="120" height="60" as="geometry" />
        </mxCell>
        <mxCell id="PETL4pHNEPdp8-49zuH2-7" value="useCallback" style="rounded=0;whiteSpace=wrap;html=1;shadow=1;fontSize=17;align=center;" vertex="1" parent="PETL4pHNEPdp8-49zuH2-1">
          <mxGeometry x="720" y="650" width="120" height="60" as="geometry" />
        </mxCell>
        <mxCell id="PETL4pHNEPdp8-49zuH2-8" value="useMemo" style="rounded=0;whiteSpace=wrap;html=1;shadow=1;fontSize=17;align=center;" vertex="1" parent="PETL4pHNEPdp8-49zuH2-1">
          <mxGeometry x="860" y="650" width="120" height="60" as="geometry" />
        </mxCell>
        <mxCell id="PETL4pHNEPdp8-49zuH2-9" value="useRef" style="rounded=0;whiteSpace=wrap;html=1;shadow=1;fontSize=17;align=center;" vertex="1" parent="PETL4pHNEPdp8-49zuH2-1">
          <mxGeometry x="580" y="720" width="120" height="60" as="geometry" />
        </mxCell>
        <mxCell id="PETL4pHNEPdp8-49zuH2-10" value="useImperative Handle" style="rounded=0;whiteSpace=wrap;html=1;shadow=1;fontSize=17;align=center;" vertex="1" parent="PETL4pHNEPdp8-49zuH2-1">
          <mxGeometry x="720" y="720" width="120" height="60" as="geometry" />
        </mxCell>
        <mxCell id="PETL4pHNEPdp8-49zuH2-11" value="useLayout Effect" style="rounded=0;whiteSpace=wrap;html=1;shadow=1;fontSize=17;align=center;" vertex="1" parent="PETL4pHNEPdp8-49zuH2-1">
          <mxGeometry x="860" y="720" width="120" height="60" as="geometry" />
        </mxCell>
        <mxCell id="PETL4pHNEPdp8-49zuH2-12" value="useDebug Value" style="rounded=0;whiteSpace=wrap;html=1;shadow=1;fontSize=17;align=center;" vertex="1" parent="PETL4pHNEPdp8-49zuH2-1">
          <mxGeometry x="580" y="790" width="120" height="60" as="geometry" />
        </mxCell>
        <mxCell id="PETL4pHNEPdp8-49zuH2-13" value="&lt;b style=&quot;font-size: 23px;&quot;&gt;Primitive Hooks&lt;/b&gt;" style="text;html=1;strokeColor=none;fillColor=none;align=center;verticalAlign=middle;whiteSpace=wrap;rounded=0;shadow=1;fontSize=23;" vertex="1" parent="PETL4pHNEPdp8-49zuH2-1">
          <mxGeometry x="675" y="540" width="210" height="20" as="geometry" />
        </mxCell>
        <mxCell id="PETL4pHNEPdp8-49zuH2-18" value="" style="rounded=0;whiteSpace=wrap;html=1;shadow=1;fontSize=17;align=center;fillColor=#dae8fc;strokeColor=#6c8ebf;" vertex="1" parent="PETL4pHNEPdp8-49zuH2-1">
          <mxGeometry x="1030" y="630" width="210" height="180" as="geometry" />
        </mxCell>
        <mxCell id="PETL4pHNEPdp8-49zuH2-19" value="&lt;b style=&quot;font-size: 23px&quot;&gt;Custom Hook&lt;/b&gt;" style="text;html=1;strokeColor=none;fillColor=none;align=center;verticalAlign=middle;whiteSpace=wrap;rounded=0;shadow=1;fontSize=23;" vertex="1" parent="PETL4pHNEPdp8-49zuH2-1">
          <mxGeometry x="1020" y="600" width="230" height="20" as="geometry" />
        </mxCell>
        <mxCell id="PETL4pHNEPdp8-49zuH2-20" value="useTranslate" style="rounded=0;whiteSpace=wrap;html=1;shadow=1;fontSize=17;align=center;fillColor=#ffe6cc;strokeColor=#d79b00;fontStyle=1" vertex="1" parent="PETL4pHNEPdp8-49zuH2-1">
          <mxGeometry x="1045" y="650" width="180" height="40" as="geometry" />
        </mxCell>
        <mxCell id="PETL4pHNEPdp8-49zuH2-21" value="" style="rounded=0;whiteSpace=wrap;html=1;shadow=1;fontSize=17;align=center;fillColor=#ffe6cc;strokeColor=#d79b00;" vertex="1" parent="PETL4pHNEPdp8-49zuH2-1">
          <mxGeometry x="1045" y="690" width="180" height="100" as="geometry" />
        </mxCell>
        <mxCell id="PETL4pHNEPdp8-49zuH2-22" value="useState" style="rounded=0;whiteSpace=wrap;html=1;shadow=1;fontSize=17;align=center;" vertex="1" parent="PETL4pHNEPdp8-49zuH2-1">
          <mxGeometry x="1077.5" y="701.5" width="115" height="30" as="geometry" />
        </mxCell>
        <mxCell id="PETL4pHNEPdp8-49zuH2-24" value="useEffect" style="rounded=0;whiteSpace=wrap;html=1;shadow=1;fontSize=17;align=center;" vertex="1" parent="PETL4pHNEPdp8-49zuH2-1">
          <mxGeometry x="1077.5" y="747" width="115" height="30" as="geometry" />
        </mxCell>
      </root>
    </mxGraphModel>
  </diagram>
  <diagram id="X2txt9xWtzmHOwKiG19y" name="01 - mock">
    <mxGraphModel dx="770" dy="379" grid="1" gridSize="10" guides="1" tooltips="1" connect="1" arrows="1" fold="1" page="1" pageScale="1" pageWidth="1920" pageHeight="1200" math="0" shadow="0">
      <root>
        <mxCell id="0" />
        <mxCell id="1" parent="0" />
        <mxCell id="-uQ1WT1Tk8hT50v0npia-1" value="" style="strokeWidth=1;shadow=0;dashed=0;align=center;html=1;shape=mxgraph.mockup.containers.browserWindow;rSize=0;strokeColor=#666666;strokeColor2=#008cff;strokeColor3=#c4c4c4;mainText=,;recursiveResize=0;" vertex="1" parent="1">
          <mxGeometry x="460" y="180" width="550" height="380" as="geometry" />
        </mxCell>
        <mxCell id="-uQ1WT1Tk8hT50v0npia-2" value="Page 1" style="strokeWidth=1;shadow=0;dashed=0;align=center;html=1;shape=mxgraph.mockup.containers.anchor;fontSize=17;fontColor=#666666;align=left;" vertex="1" parent="-uQ1WT1Tk8hT50v0npia-1">
          <mxGeometry x="60" y="12" width="110" height="26" as="geometry" />
        </mxCell>
        <mxCell id="-uQ1WT1Tk8hT50v0npia-3" value="" style="strokeWidth=1;shadow=0;dashed=0;align=center;html=1;shape=mxgraph.mockup.containers.anchor;rSize=0;fontSize=17;fontColor=#666666;align=left;" vertex="1" parent="-uQ1WT1Tk8hT50v0npia-1">
          <mxGeometry x="130" y="60" width="250" height="26" as="geometry" />
        </mxCell>
        <mxCell id="-uQ1WT1Tk8hT50v0npia-4" value="&amp;nbsp; &amp;gt;&amp;nbsp; What is React?" style="rounded=0;whiteSpace=wrap;html=1;align=left;" vertex="1" parent="-uQ1WT1Tk8hT50v0npia-1">
          <mxGeometry x="30" y="130" width="300" height="40" as="geometry" />
        </mxCell>
        <mxCell id="-uQ1WT1Tk8hT50v0npia-5" value="&amp;nbsp; &amp;gt;&amp;nbsp; How do we show content with React?" style="rounded=0;whiteSpace=wrap;html=1;align=left;" vertex="1" parent="-uQ1WT1Tk8hT50v0npia-1">
          <mxGeometry x="30" y="170" width="300" height="40" as="geometry" />
        </mxCell>
        <mxCell id="-uQ1WT1Tk8hT50v0npia-6" value="&amp;nbsp; &amp;gt;&amp;nbsp; Why is React useful for engineers?" style="rounded=0;whiteSpace=wrap;html=1;align=left;" vertex="1" parent="-uQ1WT1Tk8hT50v0npia-1">
          <mxGeometry x="30" y="210" width="300" height="40" as="geometry" />
        </mxCell>
      </root>
    </mxGraphModel>
  </diagram>
  <diagram name="02 - mock" id="awSHhTHrl13otkBcK2rJ">
    <mxGraphModel dx="770" dy="379" grid="1" gridSize="10" guides="1" tooltips="1" connect="1" arrows="1" fold="1" page="1" pageScale="1" pageWidth="1920" pageHeight="1200" math="0" shadow="0">
      <root>
        <mxCell id="7FmeAl3M9rQzZqt5at2T-0" />
        <mxCell id="7FmeAl3M9rQzZqt5at2T-1" parent="7FmeAl3M9rQzZqt5at2T-0" />
        <mxCell id="7FmeAl3M9rQzZqt5at2T-2" value="" style="strokeWidth=1;shadow=0;dashed=0;align=center;html=1;shape=mxgraph.mockup.containers.browserWindow;rSize=0;strokeColor=#666666;strokeColor2=#008cff;strokeColor3=#c4c4c4;mainText=,;recursiveResize=0;" vertex="1" parent="7FmeAl3M9rQzZqt5at2T-1">
          <mxGeometry x="460" y="180" width="550" height="380" as="geometry" />
        </mxCell>
        <mxCell id="7FmeAl3M9rQzZqt5at2T-3" value="Page 1" style="strokeWidth=1;shadow=0;dashed=0;align=center;html=1;shape=mxgraph.mockup.containers.anchor;fontSize=17;fontColor=#666666;align=left;" vertex="1" parent="7FmeAl3M9rQzZqt5at2T-2">
          <mxGeometry x="60" y="12" width="110" height="26" as="geometry" />
        </mxCell>
        <mxCell id="7FmeAl3M9rQzZqt5at2T-4" value="" style="strokeWidth=1;shadow=0;dashed=0;align=center;html=1;shape=mxgraph.mockup.containers.anchor;rSize=0;fontSize=17;fontColor=#666666;align=left;" vertex="1" parent="7FmeAl3M9rQzZqt5at2T-2">
          <mxGeometry x="130" y="60" width="250" height="26" as="geometry" />
        </mxCell>
        <mxCell id="7FmeAl3M9rQzZqt5at2T-5" value="&lt;b&gt;&amp;nbsp; V&amp;nbsp; What is React?&lt;/b&gt;&lt;br&gt;&lt;br&gt;&lt;blockquote style=&quot;margin: 0 0 0 40px ; border: none ; padding: 0px&quot;&gt;React is a Javascript front-end library. It is used to show content to users and handle user events.&lt;br&gt;Engineers use React to create reusable&amp;nbsp; &amp;nbsp; &amp;nbsp; &amp;nbsp; &amp;nbsp; &amp;nbsp; components&lt;/blockquote&gt;" style="rounded=0;whiteSpace=wrap;html=1;align=left;" vertex="1" parent="7FmeAl3M9rQzZqt5at2T-2">
          <mxGeometry x="30" y="130" width="300" height="130" as="geometry" />
        </mxCell>
        <mxCell id="7FmeAl3M9rQzZqt5at2T-6" value="&amp;nbsp; &amp;gt;&amp;nbsp; How do we show content with React?" style="rounded=0;whiteSpace=wrap;html=1;align=left;" vertex="1" parent="7FmeAl3M9rQzZqt5at2T-2">
          <mxGeometry x="30" y="260" width="300" height="40" as="geometry" />
        </mxCell>
        <mxCell id="7FmeAl3M9rQzZqt5at2T-7" value="&amp;nbsp; &amp;gt;&amp;nbsp; Why is React useful for engineers?" style="rounded=0;whiteSpace=wrap;html=1;align=left;" vertex="1" parent="7FmeAl3M9rQzZqt5at2T-2">
          <mxGeometry x="30" y="300" width="300" height="40" as="geometry" />
        </mxCell>
      </root>
    </mxGraphModel>
  </diagram>
  <diagram id="Lt0QfNCtppPKwfxQBDog" name="08 - props">
    <mxGraphModel dx="715" dy="352" grid="1" gridSize="10" guides="1" tooltips="1" connect="1" arrows="1" fold="1" page="1" pageScale="1" pageWidth="1920" pageHeight="1200" math="0" shadow="0">
      <root>
        <mxCell id="L2yjmUAzMqp82lK3GQU_-0" />
        <mxCell id="L2yjmUAzMqp82lK3GQU_-1" parent="L2yjmUAzMqp82lK3GQU_-0" />
        <mxCell id="L2yjmUAzMqp82lK3GQU_-2" value="&lt;br&gt;&lt;br&gt;&lt;b&gt;Accordion&lt;/b&gt;" style="rounded=0;whiteSpace=wrap;html=1;shadow=1;fontSize=23;align=center;fillColor=#d5e8d4;strokeColor=#82b366;" vertex="1" parent="L2yjmUAzMqp82lK3GQU_-1">
          <mxGeometry x="650" y="390" width="190" height="90" as="geometry" />
        </mxCell>
        <mxCell id="L2yjmUAzMqp82lK3GQU_-4" style="edgeStyle=orthogonalEdgeStyle;rounded=0;orthogonalLoop=1;jettySize=auto;html=1;exitX=0.5;exitY=1;exitDx=0;exitDy=0;strokeWidth=1;fontSize=23;" edge="1" parent="L2yjmUAzMqp82lK3GQU_-1" source="L2yjmUAzMqp82lK3GQU_-3" target="L2yjmUAzMqp82lK3GQU_-2">
          <mxGeometry relative="1" as="geometry" />
        </mxCell>
        <mxCell id="L2yjmUAzMqp82lK3GQU_-3" value="App&lt;br&gt;&lt;br&gt;" style="rounded=0;whiteSpace=wrap;html=1;shadow=1;fontSize=23;align=center;fontStyle=1;fillColor=#e1d5e7;strokeColor=#9673a6;" vertex="1" parent="L2yjmUAzMqp82lK3GQU_-1">
          <mxGeometry x="650" y="220" width="190" height="80" as="geometry" />
        </mxCell>
        <mxCell id="62lOe2GNONvVcp_pzKrQ-0" value="items" style="rounded=0;whiteSpace=wrap;html=1;shadow=1;fontSize=15;align=center;fillColor=#dae8fc;strokeColor=#6c8ebf;" vertex="1" parent="L2yjmUAzMqp82lK3GQU_-1">
          <mxGeometry x="700" y="270" width="90" height="20" as="geometry" />
        </mxCell>
        <mxCell id="62lOe2GNONvVcp_pzKrQ-4" value="Props" style="rounded=0;whiteSpace=wrap;html=1;shadow=1;fontSize=18;align=center;fillColor=#fff2cc;strokeColor=#d6b656;fontStyle=2" vertex="1" parent="L2yjmUAzMqp82lK3GQU_-1">
          <mxGeometry x="410" y="190" width="90" height="30" as="geometry" />
        </mxCell>
        <mxCell id="1EdiAR1xuL0hYkyDy7zY-0" value="items" style="rounded=0;whiteSpace=wrap;html=1;shadow=1;fontSize=15;align=center;fillColor=#dae8fc;strokeColor=#6c8ebf;" vertex="1" parent="L2yjmUAzMqp82lK3GQU_-1">
          <mxGeometry x="740" y="330" width="90" height="20" as="geometry" />
        </mxCell>
        <mxCell id="1EdiAR1xuL0hYkyDy7zY-1" value="items" style="rounded=0;whiteSpace=wrap;html=1;shadow=1;fontSize=15;align=center;fillColor=#dae8fc;strokeColor=#6c8ebf;" vertex="1" parent="L2yjmUAzMqp82lK3GQU_-1">
          <mxGeometry x="700" y="410" width="90" height="20" as="geometry" />
        </mxCell>
      </root>
    </mxGraphModel>
  </diagram>
  <diagram name="09 - props" id="NfH0RulourmTtb6go_yR">
    <mxGraphModel dx="770" dy="379" grid="1" gridSize="10" guides="1" tooltips="1" connect="1" arrows="1" fold="1" page="1" pageScale="1" pageWidth="1920" pageHeight="1200" math="0" shadow="0">
      <root>
        <mxCell id="sbZWdnFzj0f_-SOEwZNb-0" />
        <mxCell id="sbZWdnFzj0f_-SOEwZNb-1" parent="sbZWdnFzj0f_-SOEwZNb-0" />
        <mxCell id="1qJgRPCny-njWIL1g2WB-0" value="" style="strokeWidth=1;shadow=0;dashed=0;align=center;html=1;shape=mxgraph.mockup.containers.browserWindow;rSize=0;strokeColor=#666666;strokeColor2=#008cff;strokeColor3=#c4c4c4;mainText=,;recursiveResize=0;" vertex="1" parent="sbZWdnFzj0f_-SOEwZNb-1">
          <mxGeometry x="720" y="130" width="550" height="380" as="geometry" />
        </mxCell>
        <mxCell id="1qJgRPCny-njWIL1g2WB-1" value="Page 1" style="strokeWidth=1;shadow=0;dashed=0;align=center;html=1;shape=mxgraph.mockup.containers.anchor;fontSize=17;fontColor=#666666;align=left;" vertex="1" parent="1qJgRPCny-njWIL1g2WB-0">
          <mxGeometry x="60" y="12" width="110" height="26" as="geometry" />
        </mxCell>
        <mxCell id="1qJgRPCny-njWIL1g2WB-2" value="" style="strokeWidth=1;shadow=0;dashed=0;align=center;html=1;shape=mxgraph.mockup.containers.anchor;rSize=0;fontSize=17;fontColor=#666666;align=left;" vertex="1" parent="1qJgRPCny-njWIL1g2WB-0">
          <mxGeometry x="130" y="60" width="250" height="26" as="geometry" />
        </mxCell>
        <mxCell id="1qJgRPCny-njWIL1g2WB-3" value="&lt;b&gt;&amp;nbsp; V&amp;nbsp; What is React?&lt;/b&gt;&lt;br&gt;&lt;br&gt;&lt;blockquote style=&quot;margin: 0 0 0 40px ; border: none ; padding: 0px&quot;&gt;React is a Javascript front-end library. It is used to show content to users and handle user events.&lt;br&gt;Engineers use React to create reusable&amp;nbsp; &amp;nbsp; &amp;nbsp; &amp;nbsp; &amp;nbsp; &amp;nbsp; components&lt;/blockquote&gt;" style="rounded=0;whiteSpace=wrap;html=1;align=left;" vertex="1" parent="1qJgRPCny-njWIL1g2WB-0">
          <mxGeometry x="30" y="130" width="300" height="130" as="geometry" />
        </mxCell>
        <mxCell id="1qJgRPCny-njWIL1g2WB-4" value="&amp;nbsp; &amp;gt;&amp;nbsp; How do we show content with React?" style="rounded=0;whiteSpace=wrap;html=1;align=left;" vertex="1" parent="1qJgRPCny-njWIL1g2WB-0">
          <mxGeometry x="30" y="260" width="300" height="40" as="geometry" />
        </mxCell>
        <mxCell id="1qJgRPCny-njWIL1g2WB-5" value="&amp;nbsp; &amp;gt;&amp;nbsp; Why is React useful for engineers?" style="rounded=0;whiteSpace=wrap;html=1;align=left;" vertex="1" parent="1qJgRPCny-njWIL1g2WB-0">
          <mxGeometry x="30" y="300" width="300" height="40" as="geometry" />
        </mxCell>
        <mxCell id="Qk2BpvY2CdCW3mAHljEt-0" value="items" style="rounded=0;whiteSpace=wrap;html=1;shadow=1;fontSize=20;align=center;fillColor=#dae8fc;strokeColor=#6c8ebf;fontStyle=1" vertex="1" parent="sbZWdnFzj0f_-SOEwZNb-1">
          <mxGeometry x="420" y="210" width="240" height="30" as="geometry" />
        </mxCell>
        <mxCell id="Qk2BpvY2CdCW3mAHljEt-1" value="&lt;span style=&quot;font-weight: normal&quot;&gt;{ &lt;br&gt;&amp;nbsp; &lt;/span&gt;title&lt;span style=&quot;font-weight: normal&quot;&gt;: &#39;What is React?&#39;,&lt;br&gt;&amp;nbsp; &lt;/span&gt;content&lt;span style=&quot;font-weight: normal&quot;&gt;: &#39;React is a Javascript...&#39;&lt;br&gt;}&lt;br&gt;&lt;/span&gt;" style="rounded=0;whiteSpace=wrap;html=1;shadow=1;fontSize=15;align=left;fillColor=#dae8fc;strokeColor=#6c8ebf;fontStyle=1" vertex="1" parent="sbZWdnFzj0f_-SOEwZNb-1">
          <mxGeometry x="420" y="240" width="240" height="80" as="geometry" />
        </mxCell>
        <mxCell id="Qk2BpvY2CdCW3mAHljEt-4" value="&lt;span style=&quot;font-weight: normal&quot;&gt;{ &lt;br&gt;&amp;nbsp; &lt;/span&gt;title&lt;span style=&quot;font-weight: normal&quot;&gt;: &#39;How do we show...&#39;,&lt;br&gt;&amp;nbsp; &lt;/span&gt;content&lt;span style=&quot;font-weight: normal&quot;&gt;: &#39;To show content...&#39;&lt;br&gt;}&lt;br&gt;&lt;/span&gt;" style="rounded=0;whiteSpace=wrap;html=1;shadow=1;fontSize=15;align=left;fillColor=#dae8fc;strokeColor=#6c8ebf;fontStyle=1" vertex="1" parent="sbZWdnFzj0f_-SOEwZNb-1">
          <mxGeometry x="420" y="320" width="240" height="80" as="geometry" />
        </mxCell>
        <mxCell id="Qk2BpvY2CdCW3mAHljEt-5" value="&lt;span style=&quot;font-weight: normal&quot;&gt;{ &lt;br&gt;&amp;nbsp; &lt;/span&gt;title&lt;span style=&quot;font-weight: normal&quot;&gt;: &#39;Why is React useful...&#39;,&lt;br&gt;&amp;nbsp; &lt;/span&gt;content&lt;span style=&quot;font-weight: normal&quot;&gt;: &#39;Engineers like React...&#39;&lt;br&gt;}&lt;br&gt;&lt;/span&gt;" style="rounded=0;whiteSpace=wrap;html=1;shadow=1;fontSize=15;align=left;fillColor=#dae8fc;strokeColor=#6c8ebf;fontStyle=1" vertex="1" parent="sbZWdnFzj0f_-SOEwZNb-1">
          <mxGeometry x="420" y="400" width="240" height="80" as="geometry" />
        </mxCell>
      </root>
    </mxGraphModel>
  </diagram>
  <diagram name="10 - state" id="DofYChhraYmceSZVvc5E">
    <mxGraphModel dx="601" dy="296" grid="1" gridSize="10" guides="1" tooltips="1" connect="1" arrows="1" fold="1" page="1" pageScale="1" pageWidth="1920" pageHeight="1200" math="0" shadow="0">
      <root>
        <mxCell id="yIJc1pgKyLIH8nqSVqXh-0" />
        <mxCell id="yIJc1pgKyLIH8nqSVqXh-1" parent="yIJc1pgKyLIH8nqSVqXh-0" />
        <mxCell id="yIJc1pgKyLIH8nqSVqXh-2" value="&lt;br&gt;&lt;br&gt;&lt;b&gt;Accordion&lt;/b&gt;" style="rounded=0;whiteSpace=wrap;html=1;shadow=1;fontSize=23;align=center;fillColor=#d5e8d4;strokeColor=#82b366;" vertex="1" parent="yIJc1pgKyLIH8nqSVqXh-1">
          <mxGeometry x="650" y="390" width="190" height="90" as="geometry" />
        </mxCell>
        <mxCell id="yIJc1pgKyLIH8nqSVqXh-3" style="edgeStyle=orthogonalEdgeStyle;rounded=0;orthogonalLoop=1;jettySize=auto;html=1;exitX=0.5;exitY=1;exitDx=0;exitDy=0;strokeWidth=1;fontSize=23;" edge="1" parent="yIJc1pgKyLIH8nqSVqXh-1" source="yIJc1pgKyLIH8nqSVqXh-4" target="yIJc1pgKyLIH8nqSVqXh-2">
          <mxGeometry relative="1" as="geometry" />
        </mxCell>
        <mxCell id="yIJc1pgKyLIH8nqSVqXh-4" value="App&lt;br&gt;&lt;br&gt;" style="rounded=0;whiteSpace=wrap;html=1;shadow=1;fontSize=23;align=center;fontStyle=1;fillColor=#e1d5e7;strokeColor=#9673a6;" vertex="1" parent="yIJc1pgKyLIH8nqSVqXh-1">
          <mxGeometry x="650" y="220" width="190" height="80" as="geometry" />
        </mxCell>
        <mxCell id="yIJc1pgKyLIH8nqSVqXh-6" value="state" style="rounded=0;whiteSpace=wrap;html=1;shadow=1;fontSize=18;align=center;fillColor=#fff2cc;strokeColor=#d6b656;fontStyle=2" vertex="1" parent="yIJc1pgKyLIH8nqSVqXh-1">
          <mxGeometry x="450" y="190" width="90" height="30" as="geometry" />
        </mxCell>
        <mxCell id="yIJc1pgKyLIH8nqSVqXh-7" value="activeIndex" style="rounded=0;whiteSpace=wrap;html=1;shadow=1;fontSize=15;align=center;fillColor=#dae8fc;strokeColor=#6c8ebf;" vertex="1" parent="yIJc1pgKyLIH8nqSVqXh-1">
          <mxGeometry x="685" y="400" width="120" height="30" as="geometry" />
        </mxCell>
      </root>
    </mxGraphModel>
  </diagram>
  <diagram name="13 - reminder" id="EPYHS9csVoZZQpRKW6wt">
    <mxGraphModel dx="613" dy="302" grid="1" gridSize="10" guides="1" tooltips="1" connect="1" arrows="1" fold="1" page="1" pageScale="1" pageWidth="1920" pageHeight="1200" math="0" shadow="0">
      <root>
        <mxCell id="UCzq-UxkKGO-OqH3Rzav-0" />
        <mxCell id="UCzq-UxkKGO-OqH3Rzav-1" parent="UCzq-UxkKGO-OqH3Rzav-0" />
        <mxCell id="qEZ0BmIwxcJe1y6jpJpj-2" value="" style="shape=image;verticalLabelPosition=bottom;labelBackgroundColor=#ffffff;verticalAlign=top;aspect=fixed;imageAspect=0;image=data:image/png,iVBORw0KGgoAAAANSUhEUgAAA74AAAZyBAMAAADlQiVaAAAAKlBMVEVHcEwAIkD+//+b/PwdPlNngZJEXHHN09ehnqk30AP15n32fNt1xs8egh5lVTBKAAAAAXRSTlMAQObYZgAAg79JREFUeNrsvb1vE9v38PvTbW7zNBP2jA0E6bKVxClug4akcjOJ8wKHb+EECDqhcQIJAoqbEeAUt4kFJEoqpNOkSHGkA0LukA4Iyc3lGqjcIH2bFPwvz1pr7z1vHicO5MWerCWIxzN7XjyfWS97zew1//M/LJmW/9VqtXzJkj0pANn/73/+17cWn4qMSus+8GXtzaz836i/rL7Zlf8X+P7/Ur62WLIns6DAwFfKF3wuMimrUhLfCp+KTIqDfP9POcpnIqNSk//P//wfcoRPREZlSf5fwPcqn4iMygDzZb4szJeF+bIwXxbmy8J8WZgv82VhvizMl4X5sjBfFubLwnyZLwvzZWG+LMyXhfmyMF8W5st8WZgvC/NlYb4szJeF+bIwX+bLwnxZmC8L82VhvizMl4X5Ml8+EcyXhfmyMF8W5svCfFmYL/NlvsyX5ThkxWO+GZaaLJ87vlPlc4M3J9d7UH8fbW29PJH9bm7QNT18nNv8s5evlomzqaF+CN/tev1dt5sSK0d4i0Nt7fj5bm+keb2Vo/s98fDVsb+QYulqL/IVpZtd880fxcwrvke3z9NH5euCfD9km4kLQPhSFn7TFiS32aN8LevSu+43NXJUvkcWUfeOyrfVarpfDtymm9jmkly/5/+eORVtb6SZ6Hu+S+ujvcgXFHF+7Ch8Bb4Nyt44Zr4DQ/3Ot/ZK9ijfQfcofPOF3z+tKXx7LL56VH9fifB1INIilyS29YJH9Xr8pXbygfpRYlN3BWb9AgXfj/xRXDVXXYNFG9ig8BL55qrVdcusgZ9V7558njwK3NQWrJ/fon2+f/8PLrDVUcxu2NuEHA7rJfGdTRwW8nWQoGgpP/y06X5Te73vtmD+/RaY8K9ROxQEfQv0Q3Ibm6OiBrYp98z219VvV5+rZfiJnp6Bn5sVmMAVq7JafRbvHw33FN98HcQL+V7C79QJ0QuoQVRhHGn5G8p9STlMM0Dg7NrwMUq7GpqRErhOSFnw13CGVKqyKqXEsyEfST+WBbDrKn5/DH8e/6N3/g/pMZCGz5v/6BY3ccnfag1q0cZ3GQKtsg64ruESnAGGex5nXE8zLXC0GFJMrBfkZgGOa2DEpxkQSapfOPcajndIz8AFtTswYw1zGSBDvcy3/tabrkf194HlIE4BWuzgmf3znSUeR1nkR625NcL6wprFH7tUqIgaXOZLo55Najsz4r+egwlosIpnQZRmC8qYPYPGyBdOoh89lj/fgj56eHXRjmGN+oMSXXV1jw7nJrC8icdJnzjjLVwJGwm+touMv1rz4zDjrmfNF/E4QZ2nYIaYdtU2jfhmdYixZqQHl6M3V/BqG3CuXsDFS906bxavwzn5Umn73LA1K2EbPvzO2ghuU8a32Wt8nXql3f/+SfphLoCNdgdDfficcV/+Wvg5N0RLhi3ga8OZEGqhcnV5nIHnC3VgKXrZ41Fsq6sqX4/6XzyUm/9YxNam/zAf9RcXtPnfSeA5CP/tojYL6I8Hix38r9wwBqlCsOFXwUEtrcG58mBmWR0ravkcGu1RS83AywL78xPDaf5XzPWU/71UT4mv0ELaJsDZ/ru9g4e/1TI/xNY/kU7TwCil6NaQL10AtQhfWojA8TRF8zx0MT3+m3b9+J8oXwR/6a1i7ECrS2RS4Az/+U+S79fSQ7THy2iCXX1ISJSUOYWvMB5CHeeQNTGEnRvkO6zo4wVqLcFxzl1VP4F+BnZwkTGdhCTfnH8m2eeOfMOsRoKvY/JZf76vtEXE+ULEfZkw1JbmXOXgvEC/ny7wKF9CiucqyZeoXfpHhQOVCF/6sN9H+L7T8fPjeqU9v1FEnOhzm+WQb/NaOl/HkKDLDjAC36WQr69/Jn5Bf4RfCCl2gGqd+A7IUa+X+D5u4zu1reKWP3X4nG8Ln8vaoq1FLn+yvgaknrM0kuBLM9CCt/OF7CIdiqBoKuDr1GHBo3rI96bhaycPyy02Ea/V/A6rIF9xv+kS3y+d7LPhizjhYozrb+2qvlhHQ/3Njd69exftVkf9FQ/9nur/Pv4nwRdwbm3/ozoiqqP0KJ6adtBooesy7mtgNKLHBDk3ms6XnDPObeOLwbDay/bbKF+KkusRvnS8pn/0Nu5/bbLKTVRkTGQ1oTuERN0vh/jfiZDvUoyvcjaFUH8H6E3owwfor95a7/LdfqdOJshDrUvQJa5Es88oawfq70F80/X3DshtUtiYfXbquGAlwvddkN9w/qwn4meyxM1vuEoFch0VbZ878TU/YKKj/o4m9HegoI/T78y3t+LnNv+LOmug5w3XeiTGyknd5zvA/46G563dPnfyv/p4VDwX8NVI2uyzuRajfDF8Vv4X5MKYdQjf2tAh/pd+DC6N+V9atV/4hmdW8aX+ktZf1RWNazn2a0qlEqIzpwd7PUH8HFzy5rzF4isDPMk3H0Tx9Y2b72PxVSXOF2PpgO/Nt3G+ZKCXNd/lcRM/X2/je4+2OjEaMUBzyfgZVJQsEh50LH42XedOfHuqf5QP8ryKLyH9M+BbaedLwPCHmtMjjB/DT1JRzTcnrXj/F0+k6v8m+AY7go6S7pHrS8v0zgxfuhKMObmZ0F+rCSgv6O7u5Bj2fz01ETZRV+SI+sA9eaobBMcZ6u+oulopwgY7HeivY2gG+mu1dYd66/6CgFhZ3Iv0hOHcUdco/86ilJKAvLCI2me/TLbYg9OzYTkv8MfCD12tUHJH4dR8HWgwIyN8Bc2w2vmSpX3sKWIU3eFxCEQIu58th3wxmUX5q+0KRIDJ/OQy5jZgwvmuOC+jQtMMyjuDpRbqXCg99Ic96xGGe8+Idai/cHwz1AUcgV9aDvWXclYLXkR/8boQ8fiqt+4fPa6/V/lnByZQd+uv6lswA/K8W8jZwc/IzRx9CWN2pyarlG+elQUfdTcv1ykLn/Nlla7qWmGzgOo+U4U5VTSCsMZIGt9ZPIqySpYpA30Tdluh3W/X/w75Wtv1rTrYZ8hLv4+FfTo/WcE8c8slzsX7xeZXiqhpBuJuUYidk6M67wwHPoyJ9Cp+hPor9XHOwC+iVI7WX5hRpQRGqL+wrl9OpH96iS92g15q0niG4YS+E3V1f0HduambBtFoCvXU9vXTDwtS3Q2CTzTVE1Iqk21L+WxO3WcAwYsD1vDS+OLeTNLMJmxwHPVK2A0K+EKPaeOx6v+23z+yMIHlNN0iTs+7bnkSfS/OoCvBTDjymblvRDeOhC8LFSvqf+fUcVo1Sb8w0F9c40XU/9JPqvQw38gTJmpCPLCUxcGJeIM2WTFKXUlvKdqebnrQaVNOcifigWfFDsPM9w49rAdhA9VmOrFNJ9yJFWsQJDymO+2kbYZIPPbVq89vsET5/sbKhQfMN8N8hTyHz7efI76WvVlhvhnme0bHzHy7ltwL5svCfFmYLwvzZWG+zJf5Ml8W5svCfFmYLwvzZWG+LGfAd6XSM79crDDf45YFudEzv9yRo8z3eMWW613qr/P65PV3Uz2jy3yPTXJda8zEEUq1ONVfPJylIeZ7vDsb+k2+zgpKm1XobpvTdxPPOJ7RkJEe59v2JGj3ccqhNYKCh1472Gc1iM1LOtKudp5vND4e8XDOJd/kY4B296b0UIU5rAhnfmtTbm15v3QAjY+PGuVfNCfnia//G3yHf5NvavGx7vTXbnjWk0/xvTHf49Xf/Inw7e4ALoNxzn+Ox1dXmW8gUKntORjGVazMhqOKpnzV2dnEGdTR0DXcDoITj5+nNs0YnUdU6c6u+oVqFYcaVatVqg+H281jQTjbL2xE+QaV7vJ+dUpG9l7d0GtYVrwr9uRf0PRG7ACXTP+ownwdKX0qT6UrTVCJNhrvrMsyBDXcDrKRcb5LurAdVbiTFStvoiebvuqB3wN6L2pkl+ZrKt1RKV8Z2TtWOVEVmmbiQ6wXP0DrRmzWnOY7Iyvnnu8AnN5HQ1hBTt6mymxTFSruZpWmZIlmmBpuwRWBNSnueAfob75iURk4GCnsOT5ua2mkVMIwulSiU25G0MNEJTYiPKh0l5NlUZORvcMqemD5XDx9sfMBY6xUvnMZTnR0yzfMBYTxlaoEpt1fUMMtoCelVsNwI+3+F9cIRvqH/lfVN6AR9DimFveuRg8YvrrSHW4RyyUEe4dt6SZz8VzozoaoWPEAekLXpJrroazpmfEdSYmvCKfmG9RwC/R3CyVaYcdPOY84zjsvrXS+tC9dJdCyC1G+ZdUYqyTgAYR7nxvSl2IuPv62sfFHA/7EfU5hLaXl+bTP8nZ7/yjKN6jh1rl3JFPOI9rIMG2Z5Av0bVO4QXWDEnwJvIzuPV8wBxgP9hrlJw0vzhcs+9WUluc1vnruxfT3nq+G4wd8dQ23zsmph8mi94+qFJqF47aSfEEV81S/887Dhw/T+OIRODK6dyHTy3M3Ni5/TtjnnLyb4cj5yP0jXUJRq8eSrG5F+QY13ALxUOIaHI+vZmR1C6OmiY58gTwmEamStMpLxvkKVV86tnc//SbGzgYpccx2cH4jqn4LqjyF0l+s2Ryzz0ENtwPiq0T/yH+h/G9nvkATO6lCvsKNH6C/4d5tmd7bWewcPzNffT6GQ/2lmKjN/8bTSm184/0jKrmD53igo/91pFcrx2K6g/yv3kT6qx1S+r9LzDduXguh/tJ0W/x8WHJxtC2vSO9hKHTiCxcTWeWw35Xku6b0N9y7v2EKrMV9wx+fMAedmp8Ur5kvtR0NguaI/joqqeF0kQSK31+gAuDI1w5WDSItw3fuRSHuKRN8KfkhI3u3pac3l+j1QHRFOeho/1f/7Ikzqr3dS3znyuZtclBfUnjERBWhw+wEFk4yNdwO4jsSt89YyhHJ+cN6VdRkL8p3ojCsWHn6jUQJvhOwgPJXZu+Y8FCllhNZCwds8+K/8d+ur5oa568sX67r9MQATAFRv7AplUOegykvrOF20M7i/aNaYUvWVPm3glrVkYUqZqSqVZgoUxeGGDh+oYopq+D+vuFry0JtVFrh3ikeL6RlHRcbO41K6uFwfpLqselXEwlVnm5Gymd5c3eAek66httBO4t3SGZhBYdYbJpVV2lChd4q+blhmuI+2vjCCoUHFAAs6DXp9kTZar9rYDcan9LNSY7tM8h0UJ9LVWabhtNXUsQjheGOor9U307EV53uUAVMdKoONt2xbl1bPNDplWID0mO+xyF5ebuHfvq0edXSUoYfhD5VvsLvqefbjQHPch7rdMcvOJu94+mcdXMs/hrzzbJIfj6HhfmyMF8W5svCfFmYLwvzZb4szJeF+bIwXxbmy8J8WZgv82VhvizMl4X5sjBfFubLwnyZLwvzZWG+LMyXhfmyMF8W5st8WZgvC/NlYb4szJeF+bIwX+bLwnxZmC8L82VhvizMl4X5Ml/my3xZmC8L82VhvizMl4X5sjBf5svCfFmYLwvzZWG+LBnlWznB9tMV5nvGMnPEl8jlh7tvu5rdF8QeA1/n6C+NvHPkF3YK/Yp2cafbFbp/1aEjg1fVMd92mXSj3+xWq5V+wmGBNoOO+yV2fltdqK9+x2e+/V29TjV1je7fCqrfCc58ox5rhaTSxnfQdd2kdjp37noA1XXLqXzt4uH789c68rVlB63s1qnmhplvUpouyZeIfVYvWBalqSRfGxqOwYJSs5xqn7vga5tXMKfYZyedb/evfWW+7XK/1XKLrVZUmZpfjHYmDHOz+K1FqttMd3Nd8J0YPoh9B2zdmt08v985VYW/pH93Evo76IKhfGr9Ft/a2kHhUaf56VHczAbz7UbmO/JNtLsetPhlvrJ8dP21/PQIupa0BTbHV3ASmsWv+PHdaekwSfF0ICxGPRlEe/0tpr/3XfwuwmBK8wXbrmaJ+y6uS3zvf+3G/VarVYJW9e7J56R7fnWK+D7y17ENLs6vH6j0bSGaw3zBiUKQBHZ2cGy+6BYjfG0137qA4VYxqr8YSX+NmWvNFzZ1jSaWKfAivoNuuZsejJQqFSEfSR8xCV/KgiRoUo5gUDWi/lMPqUOA5Y90Z+DPE19woqJ5HT/HAGklYp9LJfoqSs2vJS+qv81x61YRLwArwbdUmr+mGn63psYV3/mxqLreAbmbFiqVSkopJcD14ahzsixqiGdu2JpFJYeWQWZjIspR3AlkIeGYmS+oGnC4oPVMKF0z/lYo3En/S5hh0WDRavO/y8TXLAG+dkx9B6SUMmo0c6OJSAt1FdVzaRhVF7NVZeVvAW6g7LGg25YRiSv2KttngmcDMWKiYATxVRtfL6AHbTrznR8P+MbU18pvoUSPso1vWaln7aqKr4jp0lXq9QZmeSDK19kKpVaIKLDty2fMF5E6Rhub3ejvhXEF8sJYJ77Na4avfaD3jZGK80WVRb6k4AND5Kr9cvtVkQgmovcTbFkoM18EIOJ8D9HfyTHIX4Kj7ay/ZgW7GFfflFRFJ/1FV+sQ37t371JcJULDPtAxKVKLeGaxUuP+L+ko+t3u9XeZEpjXD+DrduTroXTBl9wu6i95bEk8/aBtLL6yRCiJHhL3f1VIleB7qP5irFpOiZ/b9Tdhn9viq8gdnnT9HSjgzm6rOMrcV4j1j2Lx1SjHz4fb5278r6W89mF8rebYgXwjKaoD/K9W2iCtMXe1E98Nzm8cFD93pb9BXNX80il+vh7wHXQPvJknwnt9Cb5rSv1CBfc3JkYPzk+29YfYPisWyPYA/Z2/FuNrm7zVMoIWMdKK7+RYwBeTIQdJiCrOF+8B5mTkZq8tPVtPiw43gJ3k0zg2x1eQ2/ACxh30F1MgnhV0jy1MTt6n1NdXS8yXIwqr+aLXdb4qvrfcAx/ZCV1pnO8E9GQpf4UR8YKnEh7+UNJpx2SikNgV3z9CpSw2kVub/tpFiJKbFeLYUrOabgtBTsJ3Qj/vFtWTADCHVocEdPG6aogpa+Qr3OsHdpAUK1GtykJ1LeRry0JtFPnOyColpNFgT6jGSyMdOkfJtDTf37dQwSBbnKK/g9QNUjNc97bSS3dccXbpppDTVOviRNHSz35c198r+v7R5IEKLFSPRlB0dDXka63KwgMKvhakfIG5SrwfpRp3cr92hfmmneLDH2ea1ohKD+LfgwnxIAFxutvj7KSM7ftIqHwXwvb57MWWR30E3X/W/bZve8z3jGXpqM+3F7pnVuPn289cnI2jtRdHaO9sMV8W5svCfFmYLwvzZWG+LMyX+bIwXxbmy8J8WZgvC/NlYb7Mt6fE3N/Pbq25c83X1K/LcK25Xuf78ASfcjH167Jca64n+c7+Y6ac+sYJqq+pX1dgZqfK9+Zv8HXu3e1W5X1tlbP8LGtv8dXPy4Z8u7fPOkRysDgKTSafbbVWEt+DAjrM97T4arARvl2LHuG3JNc31VDNZMWitpJWQSmNLD+rnDW+WPciT8+t+4fxDcZ8Mt++4Rsp8Hqo/gYNbI6vToWvs12vb297yNferqNzvPf+/d8qoq7XX8faLsgCzRCb9JnDMWLrEZ+6WpXVKlajm/LlOjLfxBl0DeiqdEHTTI/F7iW+dh2F+MLnO5gDH38HS6JKnZMFSUmJJTVyfkBXSBBGKZdM7Yya/vSlrlNnqtKFvaIs11LoKftcuvmuVEL7DCxv1lE7S4+J7823lvU42lOCsjZioYxoXmKZOWhYe0aV7nwdNImSvE0zpirWjISJ0pQs0YxIVTrme0b+F9jm6zSp+P75d7LrqmFjjQzlPnW0NCFHtQcO4yul1Nr/BlXpwvIaq2yfTz++cmJ8/+mQmqARYhRTab6iJkGlE/EVXQ2ab1CVzlQqy3atuf7g+7ieuMEzp3IY1tya0VTT2xELUg/FTucbVKUzlcqyXWuuP/jayfA5JyXNqD1/+PAh4QsLMz9SNcmM/t7zVe2igK+uSmfsc7ZrzfUHX+wfvY21XJVUi9sPSk9FCm9TPGX0d0lWt6J8g6p0of/l/u+Z87WcPxN3GpwaKmjtOdaYq8T5qiSHqa7xLG6fg6p03D/qJb6Wtf0u3lZgLe6QarRwPqFV+ouFnNv9bzyfxfmNXuB7kwy0eOVF+sCR9xHF9Lcc6C/1ctviZ6XZFbbPp8z30tsD+L5T/VviSImKoWg55hrtjyoo5JX/3Yjrr361TZihDmod2RxfnRbfOqFr47tdscQ26fYc1cEXVQ/s85oqS+W8oDhqGFedKTywRI14Qckx4VGNnBm6JvAVCljR0FSlC6ur8P2j0+Ir6u/RzQZ8t1XeWdRhvuoCLxFfR8p1X6U1ZFVVhc3BnDWs6Fr15Zo6inXQUOEXNuXcsOozb6IKm6p0YYKS7++fFl9IZNSjfOv6vgLeX3itO75kVWd9naZyfKnTEypxlfdVx4lec4NLZqR8phQU2I+i3qqqdJF7Ecz31Pha06UO801YZZavmBkriSbhczmqCT64o1YSiRJ4pn4d2+fT43uaYurXZbnW3HnmG0RYNX6+PZN8Tf26DNeaO9d8WZgvC/NlvizMl4X5sjBfFubLwnxZmC/zZWG+LMyXhfmyMF8W5sty9nxnT6Bk5BSXoewZvv4R3g050eUA32b7+6Dvl5lnL/GdXgF5kOQ78st8m1+Y52nyDZ5+fZRuS2umrsqv8E2xz/PM91T5ykPs5b0tv7D1+hf5pqk08z1Vvv6h/nCu3XD/Bl/W397S39SXcrP+9ijfe77Ug4k2JRadC6rSzagPUUWPubBmBVXpjP7mXzibBXq8eUE+J7660l2+ivMooBbxUQu3Wq1v9PnFbhZxu6JV/Ep84TteVoO4uMXAj4+vqTlH5eiGI1XplqQqEktjePGPqUpn9Dc/PFeggYV5WZA4JNRUuqNhosoK1OJx2LLrjuHn5PWm647jhOu6xBe+F+FasN0K/OehLMfH945nzSFHR76wZkciVelESRVfx1HdNBDfVKUz+psD/nlaMOpNIXlT6Q6Xq5GhjpSxnYnSLcXX/W5NFmHCvW49dYHvoFsRivM1a3KM7fOx+l8agB/WEgziK1VHAy0vFl4IqtIF+gszaCbqrCmHRIUYYFvqEhAyWZdhUPEFXbVdi1SVuC5Dt/gCKfQY++Pj5ktlFeZG2uIrxRf/4v+gKl2gv6PKcNMYQbwKgkp3Qt7WG6kNp/JFnMj3QlHHV/jfxi+OO83m+ST4hsVTEvqLujsxEqlKF+iv5kvqjy3m1szacwVT2cxK19/rSBL4jun+EbhdmgGkm2yej5Ov2PSl9MJyk236i74XyQVV6ZL6S5Yd+YaV7nId603G+U6OK/0V7t2VlYeucs1sno+Tbw3fpuApJ5qqv1Ztg2YFVemS+hvwDSvd2R1H+8b5Lo8r/XVcEjTMg26Z8R4fXwySnAP115q7KrBBUJXuAP01le4m5OiBfJejfEl/cc07qgs1zniPjy+WeD3Y/1oDIyooHk3krwL/G/ANN/FKVrq2z8b/KnfhPnUZ7/HxXRoxfIc66W9+lKrfRF5BFtdfqnU2Ea10B021OegmvsLYOTDKg0WhHfC5fhLg2PjiG4roNRgTgXoGRec0X0dOXLVi702J6y/VKsTAK6h0BxeN3lyH/pHhO4i6ijznzW3h+WvKaFtCDjPfY9hQAQvWVdARb+gydaoqXcQi+4p4UJUuob+WP2LZciRS6c50ijvmN4z/dYDtLeR7ARMeX9A8VwC6evdKgfn+/oZsObo56j+jqvtVFRWpqnTWQtWX+D4cDLFJc01VOnN/3+gvRFPrPnWcdKU7Mti4zbb85HIR0sxjof5azWKr2CSuxRYGVreKOP2F+R5b/2hOyjK9pNc2Zep0Vbo5/T4c5Kea6qp0tWj1buQLKwznkK+udEdFzZZGU+zzMvaCihG+tut+Xf5C3SK6v0B2ep4MtM/2+VjyV/g4jsoIBmXqVrzOTVMleBor+YJJcViuUQSBc/KJLjnEfDP8C4XcYL4Z/oW25P5Rlvme7zd+Z59vboT58vgj5svCfFmYLwvzZWG+LMyXhfkyXxbmy8J8WZgvC/NlOQW+jnnCQvAorizyzevR+uf8/lt29XdTP75+vp+PyLD/ndNrzbECZ5LvhF7LluyBs8w3MmKQJUN8l8xaE/zO9Ez6X6O2doHPY5b5Co6gs8i3FhZiUFMlPp3Z5KvG29vneiBIlvmqnvCA5I5wpvxvEDYv6TKDQ3w+M8Q3Lwtag2mcLtvnjPEVNbkW5dteA4Wln/kuFe56UfvMkrH4ai0eX7FkO35myXb/lyVj/SPDV5fQxwruLBnia7TWlrq/xGY6U/Gz4WvKh3L+Klt8zVq6HGiO+WaK74Tu9Zp6oTbb50zq78yoccOcn8wQ3ylf+V9hygDn+Dm7DPHNy4IXja4iVZtZMsDXXtcP5djGKk9weJUp/9uxP8ySSb4szJeF+bIwXxbmy8J8mS8L82VhvizMl4X5sjBfFubLfONyl2/eZ5mvMLfzWbKpv1vyGZ+tLPvfGa6ClGm+eX68ivmy9C3fHNvnbPPlxyMzzXeA+WabrymywWXqMsnXlAPO69HcLBnjq/V3ibPV2YyvCmpAyoSpesWSKb6OL1+wfc4uX2tBj8/n+wyZ5JuXr7mMd5bjK85fnYv+EQvzZek/viZ/Je7wWctk/3fErMFlcjLJV8dXS1yGP9N8Jzg/mc3+76jpB6/xacuw/ub4bWVZ5DtdM/EVv20wg3yFNLcVljiPlUX9Xb+tJ/hlC9n0v0Zq3P3NNF++PZhtvizMl4X5sjBfFubLwnyZLwvzZWG+LMyXhfmyMF8W5st8mS/zZWG+LMyXhfmyMF8W5svCfJkvC/NlYb4szJeF+bIwXxbmy3xZmC8L82VhvizMl4X5sjBf5svCfFmYLwvzZWG+LMyXhfkyXxbmy8J8WZgvC/NlYb4szJf5sjBfFubLwnxZmC9Ltvg6kb/xBQ8YUv/zFT69VqlWTi7IS34dXgb4zqiXz06MJhf4hZcM6az5OsXfVl/10jsn+e53wS+j7QW+bhqzFZTu3maXM++cXRpJbFkyoh7lO+iioEMVh4ZIc0N6wpYe8+0Pvk6r5bZaaF4nrx9mnmUQV/lriSWMqEf54myljIfyzYevBF8aii+S/LrS/uc7EPaBcokImuOr0+H7tPVFNMmb3ne/4YyW91RN2M3iNPF96raQ5/1W2WkSWcXXbjWLLVoiWu53XNNpfrWbX2mN4veY+42psrLXZWZ0GnyX3WvLFC1h2IRs3Fsu8QbqbhH52rBgHD7n3S/zrlsJ+VKc5dE2aAvNebfYdIt6CW6rthYJqDzmewZ8xYXr7t0m0hm3bmF3FxE2ryHvCiBGrmPWLcQolr+7tyP6a5WWx0sl+vrVmh/HLQh3HE368pglnn6JB1XJDi/zPSX/e6F43WpWFDPUThec6jL8nxxDxgCGVPMLqelXK8rX+N9BVFn4D1cJbABWmb9mIG6khdIoU+x/T4sv8AO+CMmaB4yIcxK18ZqKr2zU4WUkNglY3ZT4Cq8GJAtbQb6eNW/irmjWKsa3ytnn0+NrWdOedWFcY0QdJr5fFF8CfwGJLcPUdApfUtdmOeS7XKy0M41lKKXk7PNp8R1TrMYg6YikjP7iJ/K9UIQFy0R/PL1/1PwOLaJ8Ib76nrTPcf2dXuD+72nxHddxNMr1UH8DvrRg3NjhNL7U4kvIF+Ixd6zN/1Y6ZLZYToPv5NgdkLLieiGmv7jgdjSdkeT7DVtE/C+0gM4U9496ie8FY3wD/Y363zCO6uR/kXPIl7pbkN8I929Lzm+cKd8xw1frb7NrvstpfLF7ZU2EdwWT+Umf+0enytfWXAL9xU6O6v9WOvHV18SFYhrf8TjUicQNYI6vTpevhQnF+xH9vVD0LMpfoaV96qX5X1RtDy+NsuV8j/BtVSzRvB53uhFXrOIr5nsqfJ82XbqXC9mLVpPyV1p/HUgmjyHfW7igjPcfiq0w76zy0MWmyky3MO1s+Iqmq9aIJCidRL6K7++fEt9lzYq6OV8j+os3gUqUrppX3dl5fTchfH4DmtASp+kWyxH9tZumAzwx3MH9Mt/Tss+RpIPX4bvT0ZZOl9Tngw7zA7X14+aZn984A74nIXMqrMoVkpeIfMEOOAN8dYRVe5ZcMMF3GLLA13pEf2fbF9x7wZAywJeF+bIwXxbmy3xZmC8L82VhvizMl4X5sjBf5svCfFmYLwvz7WExT4E5p7erbmS6wnyPQ2zzGFh7Qb3jlvwRnl9YlWt9yvfu72/izjE+yKMfF7Jm9fNCU0fGLF532zBZ0q2zOHK93E98/wyONl//bT1xuj9Ph6tv8Liffl6oduSHhHLtD27n11NbLo12reqF/vK/2xsh38rvM1k7tgMzVfSCamvHw7fQ4cLs9rfnhs+Ub8k7YsuQ73HY53tqo+L36wmbaphhtURjn6e7/onO667Vb26oP/hubxyx5fbGCRiFgd9/3jIA4R9rtdNOfHMd5ou2DYwy31+6yBNixrglxyKfEF+nwxirpQrzPRH9NcOR2xTrZPi2mQkzeyQZYpxmfLX1vuLU6/ijt+voa/Lv6/XtV+gHwVflYY6z/dp6XP8HWlqP6u+iv9O03N6Yrb9V23qvfuKjej3qt5znzmYBXd9Ctez4BTi5zqbENa2qt1CglrYv1/Hy36xWMb5yqn6hWiVvuSmfY5fxdu254w9HWho939gcFTXQCLEgaVNiXWyqYuLmfBs9zlWrFPouVGW1ShH1rL8OB5NfWyjAcaRon6iqgxDr1oJ8odeYJTyPfDqK6kYYUNfSI8OZpF47p8m3Xq9sE9/H9Tr2bi7BR/291spLbzEmfm/XEWx9VrUwErZ8DRN/07boA1YB2YimGeYKEn9UTW7MSVQe+Ev9ILkq6bvwpU8jHHxJP8KRKGU6O1ICi6VNKWEjXtjSGOH1gtwsQNO8XsORE1IirEBLTa3TAUkHAUcBMqT3MoqD4aSErWykmVx1mI6cgb3iccKMKm4E9zaie9iml7001CHMe5bc6mna5z/v1FeAr1N/af0JFEVp+yXFxYYvLHn87uY/dCVYip8+7qBlvSz+/Afj6dI2LYftiMflaJ9n1JvFcy+WXsjbAMmRL6059EKyUHHwqHOg1FMjtFFlVUsTw1QsTwBc7FkuFbxaAas8BC0NX+nNwbINS9yFMzmEaxQ86mQFHRZjp0VJqZ6Ylg/owJdGoSVsUpaXZGUp7eSVSmQEYJsVgdscgOP1cSNzw9Ys6iXY/iCzERvT7twJZK5wpnzrGwL4XgJNtOsJr6r51r1LyBf+P/4nzf/CZXFTWe4/iW99I9mn3dBDCpcKzyzfs9AjUqcU1WhpOOZt9XnW8RU6OwxcYO7cmgUYk34ZTirozZIyjTg+1UEOtaFIvBPaTe06jWYjO9gq7Aq2OnC1s1N10ITUrqo+0ExB1wPCRQA38McTw7GOc0Tihnu1cLp8LeRL5Cg9keQrAOwl4Ia2+ea7DvEVtYTJv8O/Ub4mVwh6YkndIUXoeJoGRtX/OF/NkT7gRAJAzTcRfE4MWRNXDV8cdkxY8VQHJV468aWWAyNWbgT/Dgx15kvlB9AM4EWKG6EN0ZHODQVmOXbp2Vuh1KLHbPvy2anyfUfjeUnzUvk6oI6iohYexlfp75/vK+0BIzFdgqkVbTHxXCFfVOZcWOAurr908moRvrlEKTzguxTjSyzwKgj4+h340mHBfg7nS1cC7IbUFjdC49dpjXwhKA00MNoxJxcNRmShfKp8/9FGFqrSUfjUrr+KFn5c6kp/8/HwWZ1psl46k4SmjtSKzpek+Go97i21MswNP3z4EFoGfCMtVbtAf+1NipaIRW40mpXswDdfuHv37sJot/oLfMmlK76wKlkkIQuHd+lkZNtipXaq/V+lchj76qC3XX+9gG93+ov9o3dJ/VV8h8IzjpANX7RahUqK/s5p/xXwjbSM668jC+u1gG8h4n/DslxxvspFjh5BfwO+A7QqHaI/msynKPFCmYn3t+3CGfDdfguR3t10/+sdUX+x0xy90xDR36F0/aXu60iK/50bVnX2Qr5hy7j/nYA+UWCf1UTlYL75Am777i/xLZgqf7YM4MX6R7H4auQs4+e/ox/Ho7/Y+u9U/zsUnvGo/7W0b073v/gZ8g1axvUXr5kgviJXaGpehi9jSvLVKLq2z3H/q5U2MP9zVzvxLZ9dfsMgedyR76/or+lJ2a/D+HkoxEVn3NfxszlXSo8T/tfYvBhfrfF0pynQX7xcYvFz4HdDGIn4ShvwKN+2pwti+ksxfxA/6+XBy/g65CdVT/+s7TP2f+MGGz4eH6y/pmWa/iq+NTqTdCJV/3coiDTJ1uH5QtgiPPlGf0djueMwvgpa5ihqadNfgleLXEyRWpgGi1YoHdZG+ObbTmGcr39V9X+D3An8NPMUQaestp3MjNlnEV85EDurh1Eev6MydRBXO/WD9Ve3TOqveO9ZQtln1bW3oceXp3OqTzlmjfA0WRCiCAS/9DJ4AELzzcMpLeFJe2mJVxG+Ycslim8C/YVoVvh06kf0QyBGb8PixIYv7FKoJJS1WonyHZAjB9ln3DPtxKpBuwVPJWf8oQPvOyTTV6d7/2hb5ZBxYktNXaq/Rzg362/rW28pfVX/J11/dcuAL4Xgf+MaW3V1Ufh0om0pq9h1sRb8QlUV2ClsUi9fyoKv8tHrVZpRrcqCyv3LwuYoBdBVX0b4Bi0hMzkS1d8Zue4PA0kHt0k3CwIlqykAM7ClalVdGlWfIjvY+1qUby7O16bD2Qj1Nw87WS9QWhw2VlZWaaKQcPOJK2TtGG59/sb9Bbq7oDhWdEYL+8EC+jj2W0xaRvjG9Ve3NHyF5mvhjYiXOhKiEoeFGZWnx8y+p5M4dBHLO3T3wHJ8KUc9dX9B5f7xxsJzys5Tcf+Ab9ASzvVaVH+hocpDy1nzOoBa/AbhBMU6ltod9bFWaR8Rvk78FNq0RoQvXF6FKdragsQbSmhlyBod4H7z3lnyjUjwRIx6fKWbJ2Q6PegSzNeBTFtNPL1xWRZax6bb9mbe+N1WZ8+0LCU2CYkxgfcuPLNN47zbn20U+oWoTuUQX9n+yzr99FzXUdMZ398/fukcMJ5A2f5IqVphTGPXzzbmf73Ord91VtmWt71s8ZWnyDf6mEwQYXVbPn6g8Ku7zRe6Z1br2+fbe0t/Lcvci5jtcuWJkV/e7REeUnK21lh/j0N/jyxza715Bnuc73qnJdXjfy2DqGaxUi2PL8u2MF/my8J8WZgvC/NlYb4szJeF+TJfFubLwnxZzjtfh1Fkma/w+TWDWeY7M8ooMsxX+BuMIsN8cwUm0X98u6/21nUJN5Ye4tt10VBxAo9TsfQO3zyb50zzHeB3dPc8X7G9ZalydDAGH8HOvq+/f4/DjrZw/NFLy7q0vSGgqJLlvIKPl+x++4uvU6/DP+QLIwtxECDWtaNqGmb84KX6PzdxGJn9/rEZm6alQ4E+ll6yz6J+8+3sW8RYoUG8olS/TdXegvGhN9/VX/+5Ydn1954Ts90+8+0D/wtam3+nBuCr4aCaIfHFkaJ5UOfHyHcjUaqOsxt9wfethXyRnCpYGOWLwC/BIigv6eDCWKk6yXz7ge/fQbk6J5VvHtwy5Dzsdr7c/e0HvmXlhu+urDzsoL/0nfj++Tfb537jW9FxdF0F0O3+933Id5v59idfUX+NJdpS9fe97kkl9Zf7R/3D1woLDLb53076O8fPB/UR33Invpfed/C/vz76neXU+f4ZlGrXfVz8+PNA/5vjpzf6h+8liK3sDU1aKJR2PWKf2/3vb5VGYDkVvkJnm3FiWxU2wzJ1G5iI3qo/fqfem1JO1V9OUPY+X8fwxSrs71Whs+26SnbU/7mk+W6k+t/4GyZYetM+h6psCsUJXdDu0GIojqwwir7h+wsyxxF0pvlyhJVtvtYjRpFpvizMl4X5sjBf5svCfFmYLwvzZWG+LMyXhfkyXxbmy8J8WZhv78j0ST0+4jxgvmcvq0d/71uXksOXhTLfsxVHrpdpYurIauy8Pni5vXnGT5Zlnu9i+dAmQfme5vWjbn0i9ga9/Pr6evI5ozMeO3cKfFdWVryjr7KycjwXfuNwvsF7k3+Xb868hjoic2tZ5+uCfD8kvomfFYGruNd/aW/Jt0vvHIGvsc/Th5rlSsI+qwBNTE+dR76tVtP9cnCTcoJvC+TLL+3twtiR9Tf5XmzbPWyNtgGPZoRr+3Ogc5m2z7aGNz92NL4H2mZxFL47R+frHCffGvF1ssnXqZYVvEH3uPiK6adjx6y/yddIH6v+qjeAr77IIl+xie/pRXiOC79btJQfftp0v6nl990WzL/VAnv8PYWv02pZt1wANtV0i6r6QxM9s/X0dnNMNJGk3qbzDbb1Fb82i61WJaG/+c/YcrGBzvIRDYF6FbsKFd9brRYd1n08HHIOT+nwBsvzRdEsRvS96heqVdxMtUovIs5VZaG6HuO7KZ/H+FZfZpDvavW2FeG7DGjKOuC6hstxxpj6cMfT+LquE7SgEwz03Luetdxy3Xk3sk27iBMergFSSehv41+YeNJo4PQfn2D68qd4/9fSR0O6T5fQF9JjOqzJouvej24Uw2SJ14QNnxU6iSCjUb4zMOOZ4qvWW6iWM8d3tvraGF80eQ4o2DxiBEDzRcL33Zoax0p3rqp012afPXdyDM2xXbGmcJ4NfyZhjeWiBwrVLAfbtN2i5+COSpNjpVLC/15uwMadxkvrySety08+WNZDLBNyO8JXlG4R39KUW6LDgaDhFlwzF1xvHv6F4Z4ozQ3RTkSpRHxFqfZM/QDNVwDcpdGI/oIpW/cyxteuPg+c6yTwHCyinkVc3GDxUP/rNr1BrdnNL8q54iaWr1lwvufLwTZtVDhskeZ/d1B9LwNXu4GcEToY6RoqHQ1rWzX+d3As6n8FHhVsc/I6/lv+kuZ/hU5PJfwvZkz0ZG3EhCLPs8XXqeor1v1aeoj2eBk7tIHlhWXz4x35ftMleMBiGr6oQHCeaVU42fP0z2yTkKTy3SnnUX2tJwi5UQn/P9oCAQNj+9qSBnx1/EzbhCvpAvC9hhPd86WCxypzNSsLZW3NXmSKb65aCfMbRcSJZ6hZDvk2r3Xka/wtXBcmYYGrI18R5Wu2SSzm0/WX1Nda/KD5gu6SDgdmxgBI6i+ZlwukvMj3KPq7NBT2jHxTfXGm6mWKr7FHbrGJeK3md0g6Il9xv0mxUfPLQfp7N7oAQm40AWSf4ewHfM02D9Dfew1CsPMJWmKABb6XfHCws5XaaKr+XijCGsvjhu9R9Hdu+OHDh2reXOGuZwxapvjmTZfALdtklSkuJT8J/Q/k63453P+qiVtusYXabsNq6MpDvnqbB+iv5tsg2aDYmcJngRLv/8b194Kr4vpf0N859O3qpmNwfwEirGzFV6ZLAPDIEjfRqd6pQK6jou1z13wx8U+meL54H6+KkK/eZme+O+WdT0p/74JUKIDG8DkSXzmyg/6qCPvCr+gvrlqO9I/Oqod0kv2jTeWBAR7qnAKkCRyNr4MftDr0UTEHEfe/RuU6xM/UPVL+lzbWUPcM50K+hc7+17J+2f9a0f7vWWU4TpKvjqDdMvVbAw0Al6bj5+ttfB+W0/gq7byGC/Qmgvg5yreD/ur0xoeAeKVRSc9PxvXX8I3or/OqO76Rgnz+WUbPJ5y/Uj1g6kZeR3un9WFMOVKaCPu26syOpfPV0baT5HuhmOQ7WGzr//6BCnz5Y0D8ZSNxmG3xlRc9ioj+LulYONDPgO/VGN/I+9hUFG2fTe/3pO8vzJr7C8uUg4B803fFeVllo2DGV+r7XLcEnphB1023z5DJcIlv6w6GowFfs83QPuO1UIrrr2h8QLMME2Qi//j4MREJJvgKcPEYeTXB0Dz1ovrr6zM1AWt4Ub5Lw3oGXACYaZcvLfEqwndh3csiX2vVM/lJ9KBuyyXOxfvF5leKqFuqmzvptjScYvz+glv8rlLC911KaTZVXzrgG27T6K+AULuYyD8/QYVdbGw1qF90mex1tCen7u8vQ565SITnixTf34KjwuAh1N+afhDPluv+EHYR8MZCmVLS6z4tqsnqCDn3qq+itjmaPXs22efTub9fVokKvPlTxOl51y1jpoJmqAcfmurOg2iOJ+4vqPsOtut+d5CaeHinBdoV8tXbDPkCFXcscf/IwX6RA90jZe0bH9L5BlkVWyVk8EC/x/zvjHlaDoIzsAV56gaVFVdJxiGvYjbh6+/n4PmNiOhUFD6Oo+yVeRJGV7rreOseS+CZZcvjadsMpfTg4L233RLOt5WvNTkzJ2lVg8Cs7d2ZZobzIP79XPH9XXlYCb3kr4f1jWQYKG+flHcUU2f87pD+4ksWeHL89zZy+WNyTu0En28/49LW/cV3ecyzpprXfmsbU0n3Cxq9dVJ88+sV5nuEDrW5F/UbFrPx2TpH0mfjF6ZaxdZvasTHCvNlYb4szJeF+bIwXxbmy8J8mS8L82VhvizMl4X5sjBfFubLfM9CpspMIJt87xPZ+TEmkE2+asRCk/lmlK96Vtlm+5xp/WXJGt/pmP6yZIzvVJX1N8N81Yhg0Sp+Rb6DpmAcjev8zjD6na+qV2hNuq5L1az0cC4qcrR8nWH0O19dggIqOz/FKhpQMI740pB7dsh9z3dGlaDAEdhC+V9Vzo6G3LvcVepzvqYEBdVUUHxVMQWHCoN6DKO/+S7o+k8Rc6zLUYLu2kVm0e98dZlHGt8Z1V8qlDLOLPqc76ou8EXj72P6i+VZrzGLPuere0eKb0x/YUQ+h8/9Hz/remeTbfoLH26FWfR9/9emCJriq5j+CnfaZRT9z9d6hD1gepeKG9Vfq3mHbwRngS9ksLCr+wWKVMX4Ljc5O5kJvlS0r1lsFdE+44tJiipD6XJ4lQm+yg277lcs9zdJBbTJD7tlRpEZvlSNjiW7fFmYLwvzZWG+zJf5Ml8W5svCfFmYLwvzZWG+LMyX+bIwXxbmy8J8WZgvC/NlYb7MNyty5UcvbOIc8723tbVxbBv7+ePKz/ic3Tex5T9/vjnyRvf30uf/52dyZ8y3XRqNxoeDW6zgA5crXW1s982NBIzdv2Kodnf3jo3v/t6VXeZ7mJRKTw7mKxofU17b24nvRQVDJI3rf9Ts0o2/uj0w4R1in28w367kUL6NrvnuG767CSYBiYtd6+/+YW6X+R4X30pP8r34F/M9Fr47G13z/XEo37+Y72lFzo3PlQjfqZ3GZ3J5dqPxCifEYuNzGfk++Zf4ikeNxmuYP/tg55PY+aRavE7je2N/d28PJy7u71OIu48z3kT198p+/BK4ApGXcrg/d/d+4Jq7u7TuFbUlhfvKnmpKq158w3wPkD8gcv4c4bsI3z8pe9zAkMp6ghMV+H75I/F18Dv0pZ7sNBqwzFMtyon+EZ76G7u7KlC+oeNl/K56SkZ/Ad9uIrJWTa/s0pKLZhMXdcP9N+ZP0PKHxf2jA8zuJ2v6Y1R/PWsWoeXhzxSCbry0xA42tBvKPt8FhYUFTz5bO/APnfJL6wnMEHdQYsPWjHIKra9J/3sRGsS6xlc8uBhozT3dOLDP/9kNVkS+F3ctsdsfKY+z5IsY2/wvqKt1+ZOadnQD0YDZxv9e/kztF+Ffmb7YqNgSZSONr9XGV+nvjTcpoRaudCVYM+Cr1qW/uBAZ33jDfA8zzx9T4is0v5c/GgWvGL47G4Yv4oT2TzasxQ0L/DJdEmILpdwd370IyhS+F3etznyFYXxxj/keFjX/m8IXImVQ7Nsa9kfN13vyb4LvIvFd/KBVPiXRcYj+dua714EvLsXwihhfYb6HyeKHJN9HKnyC+OojWWaInm4rvpc/El8HAquo/u58WllZiQdYXevvz//892eM789dCov3/+rEF+wyrnylfVXmmyI7Sb5PGp+3kC/FyZ6OqF8SX6dBfBuNrZ2o/iJuuiQ8lKPor6CAOgrpxu7eT+Nd0/mCz0W3e6VtVebbjf4KZLlDQRJ0dJXxnkJ1Bb6i8QAmLgN1O66/d0EqR4uvjP6iRFd4o1a60VF/Yc19surJVZnvwVkrNWU3dHxFwddnE0OXka+187KhPHa7/7V+KX5OzW8R347+Fz52Pe1/+0TOlO+nOF/s7Gj91bB1QI18//jUUBofj587Jza7iZ9jucZdTbRzfGXtKrR90vc9a76Xg4zyH/+q/nBEf/MJvpc/av3NR/X38seu+YoE3/03HfQ3DKqDJgHfn3tpqzLfVMHkk6DsscJkQ0fnMt7qf1KmFJVlf1Izka9DcfNHDLki+kvW+2Xq1gMIRh8NcN2/xY/ofV1Ma1ykhBY+EKBy1nsJvvsq4YUWvE8e2TnT/DPcPWg0lLJ+xni50bjXWCSEn3eQcx7CZUxQI1+6B5xvfNz52NgI9ReabjU+p2784u4eeVOTRQY4+zpNQQsgibwfe7Rjd/fnLhHFRDT6WdrEG52IVhlKxfcKrsr5q0NFBDcHFvE2AiSfGy9t4Ct21O0FuntQUXwt7BdRO1Reo7/Uk+pQLU33Zncjtw20ZVZ3f64kntQBjG+u7EUamImQr0ldXvyVh3zOH9/wdXXWNHVeHfirJkr6Cnjgta8Qn/Wg48ZLyRn/NeZWfyZMbPA4TtAgnEhKv7wNhJ9/zrYwX+bLwnxZmC8L82VhvizMl4X5Ml8W5svCfFmYLwvzZWG+LMyX+bIw3x6RFf18jhP525civF9rbz/IMt8F81h7rYx/lzb69pcsrR2tfW5EfU7IZ33L9+Fh17Qt15X+zhao6Uzh13c2deT3mjqvj7yTO51+kSPL6vN2l1uypTrefK3g9RNfHMxrbG4jpo5O+6OwuVE94auLWPhH1IL8u2Cy/s9RD3VCxja1vr6eeqYdWFA2FDfiq4TqO6w+J9229Qe/p+59Tiuw8Mt9wtd5uKKeeS2n8rXba+gMDJmLWZ/ZmdGj7fLSkfmuKKm08c1JKZN8nXt3PRoeZcbdyLXUyzOElML3wlgHBdZ7q230B19b1VUplYIhvXH7nMZXX8NLI4GZ69LKigdJvl3a5xoNZiNOxj5P05pieirJNw8Nh2HBtG8Q3PPS+eaMY0mxz4PpfC1jq/qEr2g0Xi0S2vQh22l8TZARnD+r1uWvufQ2ybdL2axWZaFajZ7T2pq5uOJ8hV94tUmq66cjCPnODXXeYwf9tSa0Se8T+3wZhyI8wqmd7vkOJ0/swHAHLMfFN8LzML45aX7RoXz9AwL/Tvpra533K33BNyzI0b3+5ofj1g3mFDqEp2unzzdUysP4HuhWOumv0CvJ3uRr71B5Dfs1lNUgqxycA62/9z5//qB+yD2qyEF878XGC+bVCZoYiYBM7y3MxQIvsb1d396uIF9nu47nZ/b9e4XartdfxTYx6xfwyHLP7FqhHOFpV6tVXDOH9no9tu9N+ZzO/0aCL9h2dSmITYmxNvIVm8/Cq9JptVq4DeebuO9+xTlP3W9Kf++733CnuPjp99hWZW/2j3bU4LD8p0WqY+cE9bCM/u6YytBPVOBl0xjC2MVqK2pLEe8lOyh/bL5TRyG+2/U6qvJN9WEJXPA22tSXEnuYAyO1ghyO8pVSVugkgoxG+c7AjGeRADcgAZtSJ3uJAi/iS0bcKLLtui5u0y4uwxSs7sBHE/neggkE7n5R/8PjELIn8xvgbkWDRmx/pGG+Eeur9VfoytAONJv6pPhi/TrrIZarK0f0d+5qB75TdwLxY465dPNtCUegXaq/s2brtLObRDVf96ypqNGeKHhk3AcASE5Gz2upRHxFqfas5EX4CoC7NIrRs5XgK0rqSB35wpodUVj9kWjUUCopvm7Rc1z4Jcv4CXwFwF1GzvDHdvV1ozYmelN/0d1iTYY8DeGuhEP2I/43UrlB+V+b1NdHjRmKZAWiDjHm6pZkRCpp/hdwOnUvnNPmkGtDKlIdkBUD0OzOOMCE/0Vji5ORqCA4qKWr0XgB+OaUDQguPqH5goo29f/JMZyBi9BJud7kuNmYMlv+i17ki/WRyOJ+VkQvf07qr+FrKnVA60UaGHwPy9WBH8772sPF+EaDn9mtUPyRNL5v0SRXInzfJ44Td4E8EIEGeghfggVEw+g4ydeknqCFOqpIAKH5WsRWoA6j/72ATJtlmtv8YsV6/auyUOk9vqikDuqt4fuxk/6aSll2w45735z5YVGmtU4ZypmYHYvEzzG++frL9iDVlkfhS2oFSYeBjnzNCrlRpb5hfibQX/gz/wXcr6fi5+XragZa7CDDpdeyfdmjfEWUb0f9bQRFdRbjBVXEQ62THe1z5wgr2j+K8oX46q0X61hVVKTUPd+54YcPH8K8NPusXKYf8NU/oJP+kqtF/V0eh5woKa7tXrfi9rk2utJ79llVDwWuhm9n/xvyfaIrUqJEO5DR+CrGV0RkadTqQn8ptPYSWV6EfAS+OoGZ7+h/TccpN1obSWRl4vpLn6i/8y7KNdxJyNfEV72YvxKqtEaov+3xcztfW5EP4yv7kPg5Fl+tWV3oL1bPi95pIL5H1V8V37fHz4avn7TPEVfdzhf1d37MlLgedItJvj3ZP0raZyf0rR39r0VV+SN8df8odF/BOW/nG79N2lF/sS/8vs0+H9n/xpNSHf2vjq9CUy7a7XPgf0maX92y1Qf938aGymkYvlb4mquE/i7+G/BNpDcM38jln+/wa4X/zOpOfzHGUlkzz1i//JHi58CZhmFfwv/WhgK+KuqLpEIS8VVF6W/QJ4KIa/662X25h/NXQf/X8KVuELlVU6VQ8zWVwNGCNz6l3V+wZUrKPhk9x68M3Q9K1V/FN6dMBEKi/u8BfK/G+AbKSL1zkaK/E6PBwQr1eE3gVeL+l1JVmNcYLIbJaDNtfnVv3l/A+oSomQHfPBa0WyxHFDaoPArWW9cWvdyI30AdsRIhxlKHG23x3i+mmT0sc9Smv48hJ/74vbLtw5qF8K8eyBc5ejpuwgqkEn7IK7pCYILuzhqF1Xzz0NB5oS7GJfIbYQ8gZp/B71pB/kp8UzMdbaDNpdyb9wedRoPuKwR86QUqFEv90fj8WSeoqVDwjnrTik3Fgv+N/YCRMMkUpiNS7x8lT0K9vv0+or+PMe8MM/6sv9+u/01g5YjSkgL1L9v45ulGcJk4ritTXJPVEQqgq75U3wvq0Y0JWUWlpjVAXwU0xJQ1ElJ3trRG20XMN1dC/b3ltpotykvChGspg60NtLk91aP3f2cVvJAvlmd/rdHTTMNXl6mjCPuPmAKb53MCk5jv9IDdw7bd1yH1HOqv4Su2TQc4rwPuVbpZkMKXoray4ihf6lkj5Ov1d7w38UJPFKKBoe1LvBdFGjhXCGOxQeoGlUO+VtMdo/tHoum6t1Wu0posxsK3Xn1+o/2J32k9RySf6S11+gHmGbPgMdmhrndf6vDgsKmeF+zUOfzJZHPgzoP49/AXrSQ2spKS5k4/zOQ+gogieLawN/X3OCQv9eNKOnlhy0rf/pKjPt9u7kk9kpXM8hXmDoN+/nBupG9/Sse8eQcx0dWEHLYyy9dyNrVxmlVa4PXtL7HLR2xvcpyvvAzzZTlImC/zZWG+LMyXhfmyMF8W5svCfJkvC/NlYb4szJeF+bIwXxbmy3xZmC8L82VhvizMl6Xn+Toen+4s8515zqc7y3xnqy/5fGfZ/65WN/iEZ5iv2KxW+IxnOH4W1XWOsbLcP7KrHGNluv87yxY603wd5ptpvptVdsAZ5ss9pEzzna2+5jOeXb4cPWear8O930zzXeXYOdN882U+3VnvH7EwXxbmy8J8WZgv82VhvizMl4X5sjBfFubLwnyZLwvzZWG+LMyXhfmyMF8W5st8WZgvy29L+dzwFXf6FJH476+va6+rTdzNPl/bTb2WH21tHV/Jjv/8vPLTTO//OKTxld3uNnrxsHY/f/z82WFRTo3mGHS9zPMdTOe72Gh8OnjFaXzb7nRXJ2h/L4S2/+a0+O7+2N/rsGh17dzwtdLtc6n0xyF8d/CF3o2uHNmNKN/D9Fd0yffKf3+db7V8buxzR7l8KN/KL/E9Lv09VHZ/3PgrfYlTPRfx84Pf5PuhW74X/zpDvrHafepL7vkRzkPf8p1d/z2+i//+Et8fp8f3Il5L0dp9YnMj4n7NzGo5i3zVkOBWq5X4dY8anysRvtM7+ruz0/hYUQ0a6Ld2Hn1UfB+pUCxfXvxs7XzEFvca8cHkF99oaPvgE+Gc7+//ELu7oEpif5dC3H1Y8l8Fd+8/1PTn7l5wMVzZs668uQLrRq+Cvb09pZhXglWpQdhS843W7ltQKNVrx4X+7WLzZAbPni1fXRDLdd0vsfn5BogX8n0CXz8re6wmqAGowc7dhuKL38FUX/7caEDUDZfAH6pBBMYPizDe2N0lCIiZ+O6r79YuLsGdwsfeLgXHu7t/ISLN9+Jf0HQvpuW7mrfepsBPshWm5U/vCrUIK1OsKtTa/Trw28vq+3rm+JqCdqVSM8638dGb/hzRX7tiTSE0G/5Mo3YufrLEEzgvO2WYg3xXPOsJrHG54S3CPziXjX9phvXwDkjUOgCyG7tvqMO0+wN4CgBDMS7AFbjgCs5ASkAI+z/7tPwiftlLdogEXRAw9wepOSylTbS3DGr3zVZfqEv4uekjNMuxBRniu1q9rafmY3ydRqXd/6I2Xv4c+UL6XF78YPyvDar8x7/478kH+iLQBPgSZCjhWUnrkPKu6sKqmWi09zDQVjOIHYJ7Q3z/gpZeW8dJ6a+J1/ATV09pqU1VUKNi9ZlZovlaMydRf/Us+UbKrcT1N8AY5QsgwSybuOqD4Qs4NV8HcF4Gvh+QL62IC+5tbcWyYBf3DI8bAAD+UXyLmPA/Lt1/o/iSAsKXG3AZ7IL7VqvuxkMzpb9m5q7S4dSWRDZ0s5vlJF/jmDPDdzMMKuP6G2Y1EnxtEzMtqnAL+OY/RvkCXMUXsEOrlGpMF4OQCRWtpFmj7iIP5Go+qSXQB7Lgjm8Yvl67/ppoW8RWTbSk2n05g9AJC4EFfMXmi2zxDU9/XH+ftPF9pMIny8TREF+9VnydBvyBc3OPIrJAf598WllZMVoeT3MY/dWJJTXdiS+63T2xt+/BJdFRfw3fK/jtSgf9pdp9eRNE5cNrO+BrrWaL70JYcCWuv0/+TfC93Pi8RXyhf9Qw/aNPxNdqVJDvDraI6O9iQ0fUAiWy7f2/Av19czDfG5rvlb0re/s/Ar4H6C99IuRU/cXafXkTRM08a+ebrz7LFN9IwaTmwXwhGCb7TGDVLIdSk4B28QP8ycMXEdPfjw9BKu3xVeh/Lx7AV0T0F/i+ufHjt/VX9ZB07yjifgO+J9JDOtP4OSx4drD/Rc9q+IIumxj6A/H941/4c/ljwv8Gl0iS743A/+5H+Br/ezHF/17Zu/jm4psOXjXhf72O/tcEkyqIEpE6nJovhF6VjPGFH/0sNX7+GOeLnZ2AL8E2Wo6q+3mxTB47pr8dbzy1628yft59E4FEih3jm6K/Iho/p+tvcCmrCDofUVXNd+FEMpRnnJ805iquv3mDMKq/Ox34Og1U4k8J/Q16UqmZ5d2I/0UWpqtL2m36R0HL3f0fV/Y66a/qH0X6v9iqrWXEFZEZjrhfzXf1ZN4+ctb3FzarKXzR34p7oTF2oAdkozn+4yUmHoHHZ88S2j5DarJM7Z6ADw70V0AGRLxK5QuOlHhovjRjT6WrLJV8snT+6o3yqMR3r4P+/jBG/z/68th9k9IyWrsPE1WRroPi65xI9urs+TrglYTbdN2YhX7S+Kzyzw5MUHR8rwE3DnD+DsZaTqOxRQ2Q72IDlfjz4uedf0P9VZtI2yPcTdjd/6HSznrGPvHGrLNyoHv7lH++ATPIRu/ivBStxPzzrrLJIKT2ahNtLWO1+2aqrwP369Bvh6WvrEzyJZfkolyLzoFu0EtzZ6GMDrjxySEnDLcXKM3XUA2Q7x/YAtpVgGygv7SJcrqB1vePDN8r+lYAcFd2Fu4zWLv6roGn+Fq7afob8MVV9vSqP6wO/d9oxzBwvw799i8ndm579fmN4JkqNSHAvFEvVjxINoh899I3kZS2+T+MqdVLgv6y6P6Azard3OUTm89O6zzy888JV3o6mZ0N5pthvuL0KiUz37Pgu2Ux3yzbZ4v5ngFfj/myMF8W5svCfFmYLwvzZb7Ml/myMF8W5svCfFmYL0tf8F05qaT+Cr+Mtgf41mT5pLZcKDPds+abk+qx4F+oXzd7iH4+8oeZ7lnznRhRnx3q1x0k/lD028Lm5utEA1sy3bPmu6R3PPi7fGtSjiQaCObbM3xN/TpxaBWo4KHXR9o+r9Df0oMl5tuD9jmx48nrh62RjMcCKzyQ5Osw3zPnOzB0VL5+13ztAtM9c74jJ6e/zLcH+keqD6NruNmtZrHVogG1Lfc7zneaX+3m17D9alVWaSDtjPqA4YcwYy3K1/YLanBAfpTp9ghfPcLKprFWyHdZVXVrzrvFpluMxGNSSjmsJggfjc6P8YU5BY/59hRfU7+utDxeKmFo5H615seB77hwxx03EhOX5O0SKXhphvCVpmSJZhi+uUJF+GvMtyf4ijnjNPX4bu1/B0Fl7SKNfHYrlpsaX+VGU/3vEkRsA8NqSZnxninfnB8gaMb4LuMHkG1WiK+XFl914OtvBJFVTa4z37PkOyBHvVT9nb9mkfKm8D1Mf5G/7vnOSo6gz5SveBgkGeP62/wOxefS+R6iv0LegbJXUuU3nj9gvmecvxpO1d+mLlpwdP11JAmukWft7ZX4uU1/v2HR5sov6e8rXJXj5x7jm+J/kfOv+V+L8xu9wnckPX5u5zt7u/v4WYnNfK2eub+g9ffCmPooJvkKEwsH/DRfR2rtVp1eay64Y8H55x6IrxJ8MbHhqcc5nO9RvrbUHGtDugSR5ivkhqpilFM4c5CctOkacJiv1SP394P6dQ7km8cRt9vCtHPI1zF8B+Q6qvBC1ZeqSNhcYZMWObKAvtnxC1WpQ2mm2xt8I/Xrnrp048hpusVyzP/62psKX+KDkXPYCxpVDlhnSWDWBmU19HchPcbbY89vWNZ0SX0mUxNhXbjkE9PJinbmO+tvD8RXhRNLMYkF9r9nzlfIk3u+XT5jumf//sHNkxpGsvCa4Vo8voz5sjBfFubLwnxZmC8L82VhvsyXhfmyMF8W5svCfFmYLwvzZb4nLg4/G5VpvjPxhyt+oX4dSy/zDd5fPYiPS/5K/TqWHuYrgvdXqxELg8w3U3zzwcj6QTUihe1zpviG7lePOGLJCN9p+hu+v3pwjKPrDPHNV+PuN11/Z54zmL7k66gxYbZ2v0/db6S/un7d4Ddk3/Ks2epLJtOHfMWmevH8zAtF23XdJvLV9etwdKhluxbWIdxgNP3Hd6Fajrrf5aLnuMhX168TbsVSDtlcCCz9xHfVmF0ND6FOKv+rxndjL1iVaBDVdY6x+ozvbFWZZeN+BeLU8bOqv4F1VfRIfrvKMVaf8V0wxHLG/XpB/Kyoou42y+ZqYAvdZ3xNUKzdr418Y/oLX4SphuQw3z7ju6qjK+N+KVKO6S/MsU21580qO+D+4is0MrtqhXxj+gsB9OC4uRi4h9Rv8bOjguKcCbPa/C8438lr2vvy8Oz+6//mKYJeWNO4g+5uUL9u+Zo21Bw99yNf6xH2gIPACZNWyzH9vTDerISKztJvfDGD5VTNl/kxS+WvIvXrXOV8OXbuT74QY60GpveW22q2xjCsCuvXEe58mcH0J18wvdW14EvTHRsci9Wvc68zkr7mC6FTRDlLDCBrfEP3y5JFvnnu+WSa7+wan/Qs82VhvizMl4X5sjBf5svCfFmYLwvzZWG+LMyXhfkyXxbmy8J8WZgvSwb5TpWzdj6v/GC+KPeJ7PzB1ZEebW0dXyGO//y88vPkf9f+3lnuvXf4qgEpzYP5LjYanw7ezDS+X3ba6+7MX9k9O76ns/fe4avHGR1sn0ulPw7hu9OAP42urPyNQ8+w6GhbD72AgtdPd7LPN84ZXz2g7DC5fCjfyvHx3X/TYcHFvUPV9sdv7z0bfKdj+nsMfD90y/fiX2fJ1+y9km2+U9Vj1t/Ff/uK76lXnTj1+nUelqgrfkW+g63WN4qlqbjZ91jk3PhcifCd3tHfnZ3Gx4pq0LiLfB99VHwfqVAsX178bO18xBb3GvEh4hffaL5X9nf/S5+7u0jlyhuYARNX9nZ39/cVLWpwZc+iBYIWRAH+Z3dXE/+5uwcLLu5Di5+0yt5egPsibWR3z4vs/dRHvp5F/bpJVw0XvOC6VG1j+br5YyTfAPFCvk/g62dlj9UENdiwrJ27DcUXv4Opvvy50YCoG/byh2oQ65mqHsruLoEV+EmatU+4Lu7qGUB1VwG/QTOo4W6UL37/S18i2IJWRbAXzRbe6D9X9IJg76c9cv0s6tfBIMGnOLZblG4RX6rREHPIjY/e9OeI/toVawqh2fBnGrVz8ZMlnsDGdsowB/mueNYTWONyw1uEfwC28S/NsB7eAYka8IuACvXr4i6Qe4Ofezgd2meBDfZI9eD/jxT7/B+8Bgg0tojZ5//Q1xtIH1e9YTYRyCnX1jxNvjPqp2HdDaH8r6qWQ3Un3QgDp1Fp97+ojZc/R76QPpcXPxj/a4Mq//Ev/nvygb4INAG+BBlK8bL4eYP0Fg4nyvcisbUUmFS+dBFYVgRdwFfhphV2NeOEW1+tlrPJ19Svu1AM4isiS4XOHDfilwKMUb4AEsyyias+GL6AU/N1AOdl4PsB+dKKuODe1lY8C2aY7Cod1ix+hHxv4AdAJ1Q0Ly2+Mqun8lWXh74KLv6V5qSyx3dBVwWOmGNd7Qp0N6h7hRJmNRJ8bRMzLapwC/jmP0b5AlzFF7BDq5QaSyaIFuRiA75eyJc+YGkXfPc68BWwPWMG2tYW1WfZ5Kt/1uR4Qn8R9oXxSMsnbXwfqfDJMnE0xFevFV+nAX/gpN2jiCzQ3yefVlZWjJan8b2CSK+k6e/+3n9//vdgvj9VwLX/Vwe+uL2LFF79/M/PG8m1V7PJ1zie5fGk/kLdyeVrUb7/JvhebnzeIr7QP2qY/tEn4ms1Ksh3B1tE9HexoSNqgZLKV0Nu099dHS935ru/u/cz7lmTfGGJiuFMZB3zUxuZ5Gscz3Kb/kIRjlj43MYXgmGyzwRWzXIoNQloFz/Anzx8ETH9/fgQpNIeX3Wjvz9BDvC/QeB1o6P+gs9V9h839d/Y2qfbQzqD+nWTbfoLH27lAP+LntXwBV02MfQH4vvHv/Dn8seE/w0ukU58RZxv0v+alml8L+6GvZ9OfPes3cjO2k9CJvu/NkXQFF/F9Fe4024sK/kxzhc7OwFfgm20HFX382KZPHZMfzveeBLR+Dldfw/lu3dYfAUfV/ZS+Z52ZfozqF83iCzdqP5azTuxG8F5gzCqvzsd+DoNVOJPCf0NelLtgW+k/4uAQv298SaWbT6QbxB+J1LXZtaust27P9JTPBnlCz8Pu7pfoLRZjO9yM173CvytuBcaYwd6QDaa4z9eYuIRzu5nzxLaPkNqskztnoAPDvRXQAZEvEo7BDSq/9HGdfdNVH81RnSv4q8o34Qa4tcbtAZmKX8qn53gu68uI5x/w4tasFN+M8xp16/DU94stor07oUiJKBVhtKN30560vis8s8OTFB0fK8BNw5w/g7GWk6jsUUNkO9iA5X48+LnnX9D/VWbSDsEyhlT3wXuG3hR/cU5lDje3d/di/KFkDr6XIbY3YMmf+lMNa16Ua0azWH/sPQmozqcfsllh6+6iF336/IXdZ/BJcebfL+kgG7QS3NnoYwOuPHJIScMtxc88siqAfL9A1tAuwqQDfSXNpFuCm/oHsuN3VBrFYN9fUdJ318I+V6Md3KwncpK7Rt6aiLke3HXM/P3rDOUM3l+QxweYgTPVKkJXIN6seJBskHku5e+iTbRC0Rbgyt6TltdvUTTK+1TVzr91rOthMvPP2dbmC/zZWG+LMyXhfmyMF8W5svCfJkvC/NlYb4szJeF+bIwXxbmy3xZmO+Jykole3tivoEsyFMbxFErlNuZM98TFVuuK626c/KPLz3yh9vmZeYF0z3KNzeqPh33y2lcTMk52XnJaY/yHRg6Rb6ijW/uBfM92cMa0RPaPgePxR5dnE6mNthmO9/VNeZ7svZ5JP79wtgvb2qu048bMG7XaeN7yoOEssw3qpjTId/hk+cb7MMuhDpdSXG/DvP9ZZldj6rNbTOVHz5F/Y3wVTUkcvER2Jsvme+vhq44mN3+7jSLqDjh2Ni8ip/vt1oYX4kWDElr0bL7Lpa8e3q7OSbixYVtv0BB0axfwJ5z7plN/dp81S9USR3FZgFLdjjPxaZ8hjqKC8qRnVlBcSrlfp1vcFjYYKGPzfXZ8hU0mH1wbN51x6zo2HZbnfKm616jKBoF+d6Cz6+WtdxyXVgn0jcWOE4fsDjwWfAwQKsVJChoTkopST+XYGIDt7xUkNKzHFwg43zzunTCJs22i8uqwN5pj8nODF994gYB7i3CF9Sm0Ke8VJq/Rp+TYyUc8yUA7jJcCctFr1m0mhG1mpAPxBzgmyh4DnIeALg5iTXy5oZoVUe+tOaGsbM7Ci1gzdLEcKkU3VlweWn3a7tFTw1sPPWqkRnhu6oc7iCwFaqja2qgLRnfqOvqaP9ru8jYw7lQwGM+wrc2FH5ODOPvqgBSL/S/mDFBR2ujEvsbsfhKqXGgpvnnemdlU0fitKtGZoPvbFVVK6MqHM1rGjl4wLwfZJ/jfKlKFqgtjB6e/xKtuSOkZo0r5goqeBKyEvJdwgsAZlCyqrYWja+smlyPulldnwovJmv+etQxM9+jyKZWCuKrDDGc5efoNAuVVL5UZBawtvG1pc6DIFJE2MZ3DpH6ZRUsE9+wDzaLHtoJECr3q/hOjhtTw3yPzHcjwtfUB8YOk3joj6TzHYeqdM0UvnlpUhUVBbuNb+051MMCu5yiv458/iBSetupehG+Yyb0Yr5HlQV9RhXfcd1hemG8ZQrfeQqkr6XwLUT0GCG38aU6WGC9U/RXrSxMEKXdb4yv068O+Cz5mrA0or/Opppld+A7htWcK531l/h20F+1aor+6vhZX1rWzLM2vv3bQzrT+FmHpRH/G4Swo539L3528r9OR/9LSE2yKqG/emePlAc2biPif/s3w3G2+Y1ZKpUbxs+rJsbpwNdEOxG+9uuAq4mj82nx89yQuRLa9DcwFoRRVD0rET8/qvZthvKM85MENKjfbnq/Ed3SfE0h0mIb35oi62v1xE/q/wZ8lxTYgdE2/TVYg/wzmeG8yYhjnXnq/071be/37O8vbFYxv/EF/nuWCM9jLhE/47kuqfyV+BbjS1lJoAhJyRm4RCZGLeFfjfKFOZankhjOi6j+5qWnCiE5hWhEYNwv7PMr/IdNbPZt9urs+Tqvka/bovzzveA86vv7TUhAF69TYhJq3iFut9V0Y3x1KsSWBR9J02clyteW6/4QKXoVu7mh/lqysDmqjHs0IjDuF8uwtSj/PNPHD2P1wv39QUzkx8+hfj6nid0hiqluqTsQAubcjvFFxSVLL+Ww/nxmRflac1Ki+3R8iTeUQv21ZqR8rpy2F4kIjPsFvrDTstXf0ht822rNDYwkG5X0gwBtVenMhWEet3HajKlZpe2hV+eBldDf8C0RFF85nsV8j4NvUvLy9qntXiwUIt9mXkT49r/0KF/hn+Lz7TL6vouFDeZ78nwhkXVqnm8h9p7ChQrzPQW+PSDM97j4futNvi3my8J8WZgvC/NlYb4szJf5sjBfFubLwnxZmC8L82Vhvsz3tKT/H3xhvgfJzLPYV3GHSWSKb/AQ6uB3/EtDqVkywzcYA6IHngwy30zxDcaAQG0V+mD7nCm+ofv9jcJWLD3IV5WoCx9CHRzj6DpDfFWZg9D9puvvzHMG05d8YXwehcva/T51v5H+tlotjK/oOUrR8vq3Ws0552vKHOgxIFiWjooMwicOFaPnoOmp49XqBqPpP76mzIF2v1CFzqFRgaUSlRETOIiQFLqfKwKeX75B9QUND6Hq+jSqlAb2gievKw+9zjFWn/ENqi9o9ysQp46fVRlArLGii6bYVY6x+ozvgiGWM+7XCwsfEVXUXVM0dJYtdL/xNUGxdr9UvySmv/BFmKK/DvPtM76rpoiUJkeRckx/YY5txhJuVtkB9xdfoZHZupQj8Y3pLwTQg0E9T+4h9Vv8rOsRmpcL2W3+F5zv5DXtfV8zm77r/+Ypgl5Y07iD7q7RX6h2Nd/n9bTPNV9V6C8InDBptRzT3wvjzYrV1/XwzzdfzGCFLxeaH7NU/irgO1h0lfPl2Lk/+UKMtRqY3ltuq9kaw7Cq6bpkoTXufJnB9CdfML3VteBL0x0bJL6qajea7OuMpK/5QugUUc4SA8ga3+y8Wpf5pvaRuOeTab6za3zSs8yXhfmyMF8W5svCfJkvC/NlYb4szJeF+bIwXxbmy3xZmC8L82XJOF/Bz0Nmmi8/tJFtvolyhCwZ40vlCJ2VlaM+Lzm9gsKUepyvqoc06bpu8WBHbN7RbGSZnoz+tZ1O8xCX0+KryhFOFlst9+BydZOJx9vnYZXWL7590i0z3RPn60Tc7+Q4DkmpHIXv8rUDtb0bvtPM9+T46iILqiAD8qUxg0fQ3wP4lh42K13wrd5mvifFV5exEooy8W0isaduC53jVNP446lm8Su+cLcJ9thL0d/7rbLTdD1L3Hfd72oOOuYv9tenxcpT2oje5v3KUyqZdqvltlrY9JxX0jpRvrqema6HRHxRI21AM66jJyq3gYXsQN1siqa8FP2dd7/Mu2DaqSFaABx6OP7Assdcd4yGppltNu+4TfeLjszGrXM/lvgk+ZoykrocodLfLzTu9xZitCvWFPnj5WJFzMNEaXm8VErzv2L5u3sbV7lriXnazFfLKXpYF3wS/l0Pt9mE6wRbiJJ7u6TLfTxnviex6SlzYnU9JOTrwOmnuma6IIP6NF86+99l96ulNRurVFIVpWbZsosWfIWaLME20TirmnhB/BzUVWO+xxtbGcOoPeDkeGm6WdR1c4xm4sB9Owiq2+LnsTt37lSo7+xZuh9sm00AfHsMC3gA32CbyPhCnG9YF5H5HqPMmMDGVAOeVF5WlYm9cD3U0EG3Y/xs/O1yMejpIErDd9DwDbaJfAcTfMPKecz3GPkmyhFifoNYXShCznEZvejTJsVGg0XrIP1FK7Csy2I5LcpnKfv8JdTfYJupfGfXme/xJ62MVTT1kMD/NpHfBVfHtrfcYgv7SxeKh/Z/l9UC0YRej6s8NpZXCvmababxtc+xAz7B+MpUezZ2GvhOkhktglLegbQD0p4/WH+vxRcMgt6Sbb7lfkNXPhjqr9lmO19n8xz3kE6Qr85umHKEyFeVNNM46cvBfJP6ixaY+NpFSo3YMf9r4vEE33Od4TjJ/q+KoI37pf4RqqxhYYIkVagwzte+G9dfzVe1xu+6SnQXfFfP9cscTjR/RamF1bUI38miLsNvaazof0WgasHbVOZVm6T+zl/X0bbuMQf22Wwzwlc3Ode935O+v4AZrKAe0uS47uo2YeKpR7mOQSp7BcknnKFUm3RZ9Yra/C9WM2yS2oO/fRDRX7PNCF+4FoRniXNeyfKE7w+uVu8E9ZBUfvK6Sh5Tvsm9784XKWwqUtIYkBeb1BNqKpU2+nsfIm3i7441x7DlLZ2xDvgG2wz4TsIc+HLPY74nxxdirOcxvhRBz6u7QLbrfnfIcT41t4XMxHLRi+rvvLnvMA9hFfneh3eAeWifg22GfEXTjXSBme/JiBMpRxiZq5QKH5sVwRTJtL6/0EnrpsNlduxWU/tL7QQ/oXMKz+dsnoQO2XjTXrj8VHUP6O9JbJUssOOyfp4931cn0vFyb1tivsj4zt4+n4w0zY0llkzydaAy+G2ml1m+LMyXhfkyXxbmy8J8WZgvC/NlYb4szJf5sjBflvPD9wGfzSzzFQW+3Z5p/a1xEbNM881LVuBMx1e1NT6fWeY7McrnM8t8HckPrGa6/+tv8AnNMt85zpNkmu/EsOoJcxydTb45FWDNcZyVTb75An1IjrMyzdfnREc2+dqS7fM54Gux+mbUPks+oefA/7Jku3/EklG+A8w303yXhlSYxSNzs8lX3wCucZiVSb5ClumT81fZ5JvT4bPPfDPJd25If7J9ziLf4PENzk9mku/SsJ7wh/i8Zo+via4sS/JjOlnU39cBaA6vstn/VWJzFjrTfFmYLwvzZWG+LMyX+TJf5svCfFmYLwvzZWG+LMyXhfky33RxVvQEj+bOJN+81C8GzY3wWcyi/m7q5zVsvp2fTf9rqqnMsQJnku+EXsvm4fqZ5mv5a3weM8h3yaw1McznMYv+16gtP1CXbb78QGwm+daCx9h13ckSn85s8lXjfm0et5BRvqonPCC5I5wp/xuEzaouQ07yuLIs8c3LgtbgpRG2z9njK2pyLcrXEnw6s8R3qXDXi9pnlozFV2vx+Iol2/EzS7b7vywZ6x8ZvqYywx2+T5gpvkZrddnnPD+ml6342fDVZWM5f5UxvmYtXdcsx3wzxXdC93pNXTOb7XMm9Xdm1Lhhzk9miO+Ur/yvMG8dzPFzdhnim5cFLxpdcfX2bPG11/VDObaxyhMcXmXK/3bsD7Nkki8L82VhvizMl4X5sjBf5svCfFmYLwvzZWG+LMyXhfky37jc5Zv3WeYrzO18lmzq75Z8xmcry/53hqsgZZpvnh+vYr4sfcs3x/Y523z58chM8x1gvtnmy0U2Ms13gpOY2ebL+pvt+KrAVWKzzNfx5Qs+X9nlay3w+Pws883L12ygsxxfcf6K+0cszJelJ/ly/irj/V+OnrPNl+Mr5svSv/1ffn6D9ZelX/lO1zi+yjBfIXURb5Zs6u/6bT5Zmfa/LMyXhfmyMF8W5svCfFmYL/NlYb4szJeF+bIwXxbmy8J8mS8L82VhvizMl4X5sjBfFubLfFmYLwvzZWG+LMyXhfmyMF/my8J8WZgvC/NlYb4szJeF+TJfFubLwnxZmC8L82VhvizMl/kyX+bLwnxZmC8L82VhvizMl4X5Ml8W5svCfFmYLwvzZWG+LKfB14n8jS94wKe+//kK38OPWjm5IC/5ZZUZ4DujXik70fZmWb/wkk99//B1ih3Ud0MtlhuJBbLCZ76f+Lqps3MFPbGUeLWsI/nEZ4Dv3JCesKXHfDPHV4RvDPbXEkv4xPc/33whmFwaii9K6DNLP/IdCPtAuUQEzfFVr/F92voimi4a3PvuN5zR8p6qCbtZnCa+T90WquX9Vtlpul7E/cZUWdnrMp/53uK77F5bdpHvoOu6X2GGe8sl3kDdLSJfGxaMw+e8+2XedUFBa2uRgMpjvj3NV1y47t5tApbmuHULu7uIsHkNeVcAMXIds26h2orl7+5tnIgEVckOL/PtOf97oXjdav7v9s7fN4pk2+Mve8lL2lS3x2CCbWHGwUvQYCInbRt7YHeDMbsYwU3G3rUtdoPnFmYcvGRGYFt2ZIlkAgcrAUKdXYlFSJNcnu/elzixtIkD/pdbp350V/8Y48UGpovv0S4z01PdM65Pf6vOOdV9psmnWk6O1Fm7zkXN/5+eIMYcIYn54J2Q+j8dwbdd5EqT3cT8O3h8OT/Od5S0e4djJJzTfDwmDZN/5ZKGl/gLZ5rDpRdm1irFt4Xs8yDydZzZwLlwQ2EkDQu+7yRfAf7CdXqXP5vNME1lKH0f2efB4zshHqYnlpeX71xL9EuPxPfCJH9jSdC/oSbZfvqdXUD8O3h8byg/mux6ot+Yr3hD8L2e45vxrzLTMWxw+E5P/MitIbleSOmX3viBmii+iI9KyFc9GPo1518pccV3Pjmq6yO/URK+E5qv0u9BX75TyapgNj8ZIj4aUL5uLUjr9851Hf82M3wNqFOZBWD4V4PK16Hk5N8M/V6YDByRv+KJLefXwJh/jUnXmIqlfwW+A8b314PaoRDodO3wQOSvlH692uTBBPH9jt5o0PrD5KHEF67F7lV6PMb6/sDxpbhIQjpQ6wtKv3zZaHJGrB/xVYV/yQc1hk+N9Zl+wXfwxmcjPRH0ee0FWYxKtmF6eMb1GwPN9/Q2L92q4Wp2uvUfYwK2gK/ysDqPsm9MYYXBBr7Oqvi3nn/j3mN0vQV8YeALA18Y+MLAF3xh4AsDXxj4wsAXBr4w8AVfGPjCwPdU5qHnreabL2kHs4hvvYrrc2zmGz5Cz1vM18X17SXkO3NqaNl6hbAy8N1pn3p4bqPjLebrYXi2mu9wFf0+8Hy3XzW9KOJP2E60yR8qr6Jo5yl/co+HthW+xdvZdB5Gz3lLZzV6ae46hel38PlGUXNH8H0YRRFHepE/RK+UjC++4IyjV25EYKO6bJG4V1fQ74M/Pt//MVrmfL3oiXOfU2QzO0+EB6358ncevrz9XJwJTvSbsec80t1l4Bu1Ged7kWvWjYz51+AbBReJL///4XNjz8zd3rAB5esQX0EuahbwZRzsRa5bGptvvwTfsvHlyH5ynPu/9ePrRW2HNeWbKb4h+JaBrxxyd17yunXCfcrrV97eTQ8Xod/S8f1N+dFk7UL9BjHflH7hX5WI784LXrbubvH8GxTrF3xLxPd+HPmcWr9YXigR34d9+fbV7/A4+r00fCn+TQ/Y/OHhifp1UT6nPHw97juzTaFkzjAQfrUXnahflAcuAd8dmW2mJ9vy2cXoFaUhb0cvou0XIn0VPS/Ur9NBAnrg+VJUpAQcqUD3vlhGYHxRwX1BSUuDb0q/WCAsw/icWPxb3LKSHfvgb3MzHxdwlIjvX7dFeNBW82Uo4G4136KSdjCL+MLAFwa+MPAFX/AFXxj4wsAXBr4w8IWBLwx8wRcGvjDwhYEvrER82Y9f9E97/xV/+ifmO0o/BOy4tcZJjdzt7e1z+8TL74P3R6ktI91Tgnif2VEcrvvR32Rk/6RPz3/PMvK9MCEon8z3Uq/XO/kw3nLgOF7zVHy7QXcvw/d0VZi63cyO58Q3OOX3LKV+BV/n5PGZzcx+gO+lXttxLr0+HV8n22/9RkiW7vmZmeN8h7Oz8u336QXfs7T6/aB5H+T7+gx8+9lxdnw8/gT6PYfvOYB89S+0j54X39/5P29Oyff4qBx8xed7ZeTLttrnq9/fe39Bv6Xiu/WkhHwXWuRQ/Vr7Q+j38PCQXo7+QeQPzUnP3e1tGnzZvV5P/rmrvd5d0aDXexoQ2l5T8J3d7b3lbhbbrPea/D9xiLfNzIQp+o3+uUw9vL+/f5Tp2S5tHznudo/fq0Zqnz3dYj9Qj9+bfC/zXeTX/77bPVJb3qvHP+nD9/dpJ9FgfyT16e/lMUeOeNPA+J6yq8rFd65FlLxarXZAfPnjO+I7KUIlkwV3nMlz0nxdek20KuoN0YCG5tcP2oLvL/z1W97+ba/3pkeTMpMbUt7Ue82Xeph1FQrTTyYEI+pRKFTKVPG9LN8QLfdNvrf0G9RCHPVYOd3H8jXfztRBZdP40/Uxb+3xJ8+M78m2Ws2S8a23HtPD0mTg1SaEY3pAfFmtmZmQv+012S8NQ78/OGyXRuEHbxzxRqUXODff0NT77Wsx/7pN5yY/A7xeu8L/o3d6gUdngvsjVf8wKR7pEZKl+VLAcvmZMT5LMAbfWyRCsfGIgzP1G8g3nON9hx2LYx2JnURLeUqM7H+/T2eC0rH+9GN1zBEONx0Se62NoFR8vda6+MIEdVrivEN8HYqCp68bLXdf5+df4UX12sYL8Xjp93j+5W/y9i7/jyv7wd/5afKavj63amZyVTNghu9+Zv4lQHKj4kvt6emt/YL5VxxMH/F4PzmmbMkHcBrw9e5x2/iY3dwx3dZ6mfiyrQ0x4DDCqeQq9OvcuaZJ6+G5UcCXRtvdv2u/SvPlLTRfjpS/8t46Lm9Kwzm1qmxvp7Ngf43vrb2Erwh5R545SpkFPli8UUc4WsN8y74YHLqZTxd70Nlw61n+mPXWkxLxrSiHwasFsf8sqZJ2Dxqm1xzk+VaI7wPlM1V6P2gd95ppvq7gy+gQ7tuibFRfvvFLxXdkX5OV/4rup43JwJ3hG58isY73YmXzZ0fJIVJ8acOtonNmpVUmvhtq2CG+Kf3yF6xmzDVuLxsfebvSW+L+1aZywH4PJN8HbTFYc8e6Z+jX6/Gieau9PsFPIV8+hErvWPOl7laTpOL7/vv3twr5fi/dKc33ss49JoO29qYyfMVz+mdkryAnVikTX1d6V9JTTumXb3EnzT8ry9fr9bZ336r46I3aQgrlaL99Tfq91Hu73TP0Kzxukb0OyE6jX+HKBgZf3t2qxyVf4Vh3i/jyd953k5nVGKdPzbdIv97nmIDPz79akdOJ4JvSL3egR284J+j327eBHJ+FkuUsvipSk2/4JEt86cWDlH7vkv0V/0rEoqb/zN+XMXCiX25/yv1SWus+S4/P7CP0+yyn388TIZ1jfCRDdjc3//LJd/paYdZKPSNn+JKeTHvKx/r2reDr9ThfMWOb8288hef4dk/gK7zYhO/x3kiar3EIU2sCZ5pvfv4t5nvS/Pt5MhznyJefkLScZ4S7Ur/O0jXTfeZwmmm+FBZVNN9fXicqp6m3xzcIxZv6Zb3mCcnHvnwvp/je2hvZK+SbYSGd4D1jTbcfX1boP2u+af2utj5LhvI881cyZKek1VJKvxduHKRwaIlKN1iGRZeyfCuK74Oe0u+uod84ksrzzUagBXz3dMRkREoZamm+gRkKGUdIIuVukjMxP53F8W9Wvzc/S/R7zvnnSmuNQ51wZP4q5js6WUs1+4XPt3VBXEbCD0imHCfj2xnBpxzWL3J85skuGqQbXMNm/Eujd71ofDt+pjNIGb63jnReQmcnLu+rFoqIiFMDKdPj1PhMkc+ejHKdY50LO5LkVf7qSB+CpT5dfJ2jgvl3ayMoH19nlVP7rnZ4cDhBbtUBT0S/EyFxejmJe7+7UsO7vV3hHf+++ztHSH608Jsf9N6KBpfeqDXg3d693oO3hn69+BDZ1RueOn6vMsCpDPRxd/+4u6eb7Alu3WQfuaygssn7x6n8M19M6AqMI9043yyzyXypQnpjKrlMRzo2P502yPxzRr9znyX7/EnW9w9qE6OCL5lwrGrX0y2+FasHkjRHyPjqUPCgIRcaaFbiG0QD4usRX2pH4o3169T1IbJOAA9xLutMv8mXHatFArEqIJOH+zHArnrYV+sJTjcdWT27rFvsGWtR+jFemaCzKP3p6rMK49+S8nVmPuyK6bNX1brj/zLxZFaNWt5MfgeW3tKvSl7fce9y/M5lpdtnesOf6piqBct+3eyelKwq/jTmfGhD+fmWxQrW9a2zr5gv6wbgazHe430HfC0enfPxMfhaZLe+Bry4vwx8YeALA18Y+MLAFwa+MPAFXxj4wsAXBr6wEvKdbQzUHyuvGlEXfrBl8D2jzfkD9UOwrvjVQ1aVy/qePw6+ZzIWjvf5ndCfv8iVE/NXxUPnkfx2W/4a+J5JL34KY/25fuZFH/H7sMPrZ/466u5T/bUWr4Dv2cfD2G6fke9YwUZvmex0B1i8qp50lG6Hr4LvWayibvxSV8MmfD9qfC7kO0X3l/nClfvQBeMs1CfVlDrvhsD3bPqtpoRr8P0YK+Rb3+5UZX2GztopzzbyrOS5MITx+Uzm+Z+cL988nh50+9pUolal5CnwPZv/PFB857/JPl38BnzPxpemWW8ninZ2AuLr7kS05d6rV7/J0TWKNs0dtlpNN6yK2KVKb3jrPIgR0cyqvy75LvgbqZaK73DLr7bEO3wzqXOjErbrflvsIY7lhIlPNyVPlUXER2czwdeNyARf/viSb+EPgq94xxR16DdC4S0t+r5P1cvGF6s+HcTlr0MCOcyfPDJbKr7iPv5xeQy/Gjis2gnHw3CM9uCHWKOTrZnV/Dz4noN+nZnbL2fodrHbnOXtiLbPPBR8b79wnIdmpMQ629VlnybuJ878GGEdDzy/wXlX+SOJLnzszFWNlpoVm+k8mqFPG642WbjGP/qK6z+qjIukBltoJE6V4WqB79msnpl/OdtKJJ5Kvvd/y82RYZtVJTNyvl0SMY2rnJiIajw6Ywi4bpmbfylnMTRGauVtvWoyLHtGskXxnRoPwPfj1dvyH+f8Ky/FN+dwzVcDoiYSS1xvri/BMUJK86+AKWSnWub4Ek5+ajA/YL4j+K7p7JWZyVLIq2vg+/HRkd8+me/DKJuToEF5WREMGzKA5uCE9ojv0Jh2e1XLHF9fDMXE15N856vNfnxZx/6F0U84Pi93qifzdTPuM4ckI9LO+s8//8yVqPXrar5TY7zqlYhuOlcK4yPm/8h39Q39co9sUzI1xmfJd9i/2wTfsyg4OJEvxUcv0vpVg6zIOrZj/QoexHdRvHHF9I3SfD3RgOBq/Torvr9ePP/OI79xDvHRCXwd7356pUFR66xTWeemoV/Fd2qc3mj058v8p9TC0C//kA4N2oiPvgBfx9l5WcRX+0TVzPg8NJZpWTj/ytBM65dWFr5J3hF/9DjyG58mP5nje1sM0OxpYELSA6fWr4hdY/85nY4s8J8l31i/amHfSGCqhV/kJ886/8rHiy9O4Cv0O6UupVCqVPqK9euQJ744bjpJef1+Y54aiX4DvdFYzVeop8D3bHyVfC5GoptzfHeaDtsR2p5XF2opai4fS73HiX6dzpij8lc8OXmvkO/imPiQ4WrguO1Ev6wVOEzEwIn2mRqqsT54NtPrvyx6RdNszHdH5p1ZxLfLEHhR8t3yqy0pML9FVWFj/c75G+HWmHCGWyEN1rrlVFw/dpg34S29sNryryb69Xx/Q+xhJCiH1ffC+v7ZrKIV81CsK8R8I7WuQOsLmyoSbau4SHa9F/rVhqFfDny8MiZTEv4To2Vy/Yaj3qn7/nhgzL/1UG6PR/Bkesf1OeejX8eZ7VPSTpery5e8y15TNZvbpd/BcoXtloO0bGMhQ79n9a82BymBL6dhOVOL8yGEf3U2mx+s69vVUqLyrjzfb4Lv2RRz79FA/bFyHlY5b2+j4YAvDHxh4AsDXxj4wsAXBr7gCwNfGPjCwBcGvjDwhYEv+H5GYz+XuvfuBuB7It7QL/Mtmsyv5r9+A3xjm/O3i9/wfvgMn37zzCi2/dwFDO7G18b3sP9lMJk7vHbilrejz/C3d8ZO37ZP9by5scKGo//6ivjWEpksZ4az+XQdu2gg+M4W1cTrU72nkqtRurLG/7mQ/GC595P1fGNq39UyI6K+J2g2y/eD47OXHRRmT32xXNyyz/g8H9dq+Ri+LTrohRvxFH0w8dXo161l+c5LviwKMnw/aPPZr/zB+lenbrm6HVa3n56Ob26zJ26rSPR7p2Y1X9fQr3cwKfkmFNUdfIPFN66PdRq+ySXyXpDM07F+f61J/Xp28vVotNKinZ5siqdeK8Y4VXa+yS0QbKsdT7+xflntX/LpymMb+bItQllr/lr7g7TccBTfDe1myQqQq1H06tVzwXdVFEDzdkTBO36A+9Gr1JDuhv4GP2SlFVZbNBJ6W36VrmrO1a9LRlu+h/y4BZ++TdxyuCV3EBPmHMU59XCjafAtqJ63JUo9uK3AUcSSWxAXxHGcrYbULx+s6NmPCvVK64mFfFda5CbV/lbTE698cFs62JDdc1/XsYs46aghbzwTPf0w0s+UhX7oy6Ip8gYz8aSZr19n7uH7V2WsLXaJWw6pW9Tk/WvfyNod4wbffPW8OV09b03XXYpvIVYA5fTLoR7U1MSrpKzwW8W33hK3CtRqTXZwzXS16vpslvplM9FPovgcZ8l26NbgmRlJNXrisB2DFpVgv7lOe8xfETXxuJ/tUU9n69clxktNr4iKd/7V4Oa40ZLN1AVfUfY7FDeQB668d0XxzVbPYxwu3WVOdzCpIvC6BG29JQfgijxzL9Ru8GDB5Mu2NgLL+GqZ1q47ztL1lCu9Is9m1snMv1zED5/LLeKW3SjTJ8k92sb8K2/MT9evS3sBxCKuyp/Mv5W4QJqopEiMpUOv+Waq51F7fSxVbXhYVteKR6SVR4pv4Hi1wJyKvda6XXzjaZagTt9I8ZUT81yoao/FfBu6YIN0tVjW4RquFvCVNNL169JuAIkw8ZkyfOnfmJz0lzRfJ109T5w3osBH2FZ1PrzQf2yKU06/AiqTcUMcKmmJ28J3WLvJ9Hdm+Dqs9Yju2ldyNP1nyVeRjV6kBezqkocm3yGTr6pflzbamKRCM3ypcBLRE2eFdKMU32z1PDFQdAjs4rg+hRZoch/Wk6vXkt+X4qMsX2euFVjFd93Ib1zI8BUDmbfq5/MbFw39kn+VTu+F/ngzxfdmy/cNvrp+nSHehdD3G8bd+1m+pEiaRitVXhtvYTyv37g60/wYP7bY2/VVXFTxN8md12sKavqVULN8Pbv4VrQTVaTfequdTJ399cvjoygVWKjCDTFf169udAy+un6dmW1sbQu+a/348jmXNglX3B/P6zeunicSl+KU9PSNzbJlRQ+9c2o5qUi/fBC3y7/SIUGBfrU/MnTlZP1yfUaZlYZVKVfFd348cIZS+pX164wR/Ykcn/vrl7tKYcPhr2jPu0X61XzHdPW8YVUnRMdHOrxV02+hfr9MhPQp46MtOQPn9Ru7XkMf0K/woTPdMucbfMm1zc2/OY/sxPmXO9CiEFvy+yoZ/bqp+Vce4pH6HB3/SnhMj8AF+v1CGY5PWn9DYszpl21p16sgP5nRL38mRvL6D2YMHPOlbh7K+s/q05/GzpcIYq/24+tVxQ9xGQVm0/qNq+fFv8Di+YGqX6vzV9KDjufhvH6/jPf8ifNXchjO6TcZqXSFQKXRIv1KvkwOiCzmoLREs6GKj1L166iFqLk0VFXxURJaxSO1Vqy/IsD57WL9xtXz4kPw99XzeH3Bo2Snnn7z+nW/TPT7qdcX6np9wdSvm4xUusJn9JvDCvTrvqRcpXgmfSbqwDlZ+GpclKsLr+jfAU3XrxOu9jdipgwkaY8nn9i60TLh25EJLyoZvtLM6zeunsf4XM6ealG308sOJNCtdj/9LmwENvJ1VoJEv26tJhLRLFlbnVd8b0fbhFHrV/7kStOpRHz7K+UXC9X61S0Zmrj+RniF6ptthBtiwE7XryMIwtPlwt+qdq5KRzpV6W6uFfpijUIpnfvJ1ZD2WVR+dL563jxVz1MzhDimuaw019qMA6BYv3foT+aE618m+/zZ1vfpDx5VfA3r6B+/kMsIWr8VxVesL8iBOpS1jbZEdToZ95Bn7IX+uBM2JU+jfp3ww8TmFd9vi1HUk3Fw3DIpfTesZl5VCVxfv1FQPU/WwhO/XygHaPP6jYVWHADF+j1QfL+YfdnrJ7V+HfZT8fgVb2fqMbmcSZaro2p1zNyQ1K9rJpsDs0H/Gnhev/XnvtXzzGVhtjVY1aAGgO/i+E9OmW22Y5Y4XGiDb8bB9kt+fbsZbrNWE3wzdnOr1D8xtWFe5sm2HfCFgS8MfGHgCwNf8IWBLwx8YeALA18Y+MLAF3xh4AsDX5htfBvoWJv5Zmu43Wyio23imxR7k7XrDq6jo23iK4vIkNUa4Gsf3+ROuYMGxmfr+KoiMol+YZbwNWu4GfrNGNRcUr6pGm599eu1ALicfFM13KjeZIP0+93hIZWvY8KX/vWdWb8OVia+6RpuzlKtJgqKLqk7rGrvaMB+9wVvhgXfs1imhptX+ydH26BCcd8Jvneu6Zue61+qGiP4frxla7iNThJOMVSPCr7yHmCldPjVJeObq+E2PRH7z5IvAR/V1RjhY5WMb66Gmyg5aeqXtDutMlmifh2sRHxzNdzuXM/ol25ov/POSQ3isNLwzdZwI3cqpV/ynXW+Q9Wvg5XHv8rWcBN8U/pdusZkzVxESGWMjzI13O5k519eZMWdVFM0Mhzl45up4bZ0I6vf0cnRG/CeS8s3W8NtknIcJl9Wm76WCB1WNr7pGm4uZ7uU4uvUKDtp1q+DlYpvqoYbO5g8nKTxeWmSJ6JlhlJkJ9lTdHtJ+Zo13KhenVg/WqIabsKxmq6hw8vNN1XDjcFJto3vQNZwA9/z0y8iH7v5bqNLrR6fYeALA18Y+MLAF3zBF3xh4AsDXxj4wsAXBr4w8AVf2NfK10PnWc2300Dv2cx3ahy9Z/X47ONSK6v9q8Wr6D6b+bo+rn+1Oj4K19B/NvNdvIL+s5nvMDxoq/lWqvIRl7TbydeTDtZiFX6WlXyZL5Tb8RvoRzv5NsDXYr6OBLtSRTdayldmKDH9Wq1fmN3+Fczu+AhmKV/XR//ZzFflJz2Us7KT75RcAJ7HMG0n386aeAhxIYeVfD3lPnfA10q+enlwCmGSlXxDOTzz9SN0o4V8h/Wy4PwYutFCvh1daTLE3S028q3rJ8hCWxofSWMIf63mCwNfGPjCwBcGvjDwBV8Y+MLAFwa+MPCFgS8MfMG3j93FKpHNfJmPu7it1u+2/wi9ZfP8O4fLrKzmW0G1HPCFlZbvMMZnu/minKjVfIfA126+qDZpNd8pJDHt5gv92u1fVXEbqM18vdB/jP6yl6+z4MODtphvxd/EAG2zf4X8FeIjGPjCBpIv8leWx7/wnu3mC/8KfGHljX9x/Qb0Cysr39kO/CuL+TIfZcys1u/GD+gsq+dfGPjCwBcGvjDwhYEvDHzBFwa+MPCFgS8MfGHgCwPfr5nvMqqZWc03xN2gVvO9F+JyHKvn32FcLmk1Xxe/6gu+sPLyxfhsNV/crmC5f4XbFcAXVl6+iH+hX1h5/SsfCUqb+bKOv47usZevs+IjQrKYr+uv/4Tusdi/gnoRH8HAF4b4F/b541/Mv+ALK298hPV98IWBL2wQ+c7Mw3+2mW/ot9E5FvPd2kTfWD3/wsAXBr4w8IWBLwx8YeALvjDwhYEvDHxh4AsDXxj4gi8MfGHgCwNfGPjCwBcGvuCLjgBfGPjCwBcGvjDwhYEv+IIv+MLAFwa+MPCFgS8MfGHgC74w8IWBLwx8YeALA18Y+IIvDHxh4AsDX9gn5ovfsrLVFjnf/8QvhVprHf9//uO/fPyWs6Xm+f4/iO9jdIWVtiL4/p/v4+cWbLRV3/9vzvf/fZit9r+c72GIfrDUqoec798O0RGW2uEf//g3HRBYGnto8t4AAAAASUVORK5CYII=;" vertex="1" parent="UCzq-UxkKGO-OqH3Rzav-1">
          <mxGeometry x="350" y="190" width="343.83" height="592.21" as="geometry" />
        </mxCell>
      </root>
    </mxGraphModel>
  </diagram>
  <diagram name="14 - reminder" id="XuTdsGLseQxt6xghk3Bm">
    <mxGraphModel dx="699" dy="344" grid="1" gridSize="10" guides="1" tooltips="1" connect="1" arrows="1" fold="1" page="1" pageScale="1" pageWidth="1920" pageHeight="1200" math="0" shadow="0">
      <root>
        <mxCell id="hYdmPjtUIXpwZ3_l2GcM-0" />
        <mxCell id="hYdmPjtUIXpwZ3_l2GcM-1" parent="hYdmPjtUIXpwZ3_l2GcM-0" />
        <mxCell id="hYdmPjtUIXpwZ3_l2GcM-2" value="" style="shape=image;verticalLabelPosition=bottom;labelBackgroundColor=#ffffff;verticalAlign=top;aspect=fixed;imageAspect=0;image=data:image/png,iVBORw0KGgoAAAANSUhEUgAAA74AAAZyBAMAAADlQiVaAAAAKlBMVEVHcEwAIkD+//+b/PwdPlNngZJEXHHN09ehnqk30AP15n32fNt1xs8egh5lVTBKAAAAAXRSTlMAQObYZgAAg79JREFUeNrsvb1vE9v38PvTbW7zNBP2jA0E6bKVxClug4akcjOJ8wKHb+EECDqhcQIJAoqbEeAUt4kFJEoqpNOkSHGkA0LukA4Iyc3lGqjcIH2bFPwvz1pr7z1vHicO5MWerCWIxzN7XjyfWS97zew1//M/LJmW/9VqtXzJkj0pANn/73/+17cWn4qMSus+8GXtzaz836i/rL7Zlf8X+P7/Ur62WLIns6DAwFfKF3wuMimrUhLfCp+KTIqDfP9POcpnIqNSk//P//wfcoRPREZlSf5fwPcqn4iMygDzZb4szJeF+bIwXxbmy8J8WZgv82VhvizMl4X5sjBfFubLwnyZLwvzZWG+LMyXhfmyMF8W5st8WZgvC/NlYb4szJeF+bIwX+bLwnxZmC8L82VhvizMl4X5Ml8+EcyXhfmyMF8W5svCfFmYL/NlvsyX5ThkxWO+GZaaLJ87vlPlc4M3J9d7UH8fbW29PJH9bm7QNT18nNv8s5evlomzqaF+CN/tev1dt5sSK0d4i0Nt7fj5bm+keb2Vo/s98fDVsb+QYulqL/IVpZtd880fxcwrvke3z9NH5euCfD9km4kLQPhSFn7TFiS32aN8LevSu+43NXJUvkcWUfeOyrfVarpfDtymm9jmkly/5/+eORVtb6SZ6Hu+S+ujvcgXFHF+7Ch8Bb4Nyt44Zr4DQ/3Ot/ZK9ijfQfcofPOF3z+tKXx7LL56VH9fifB1INIilyS29YJH9Xr8pXbygfpRYlN3BWb9AgXfj/xRXDVXXYNFG9ig8BL55qrVdcusgZ9V7558njwK3NQWrJ/fon2+f/8PLrDVUcxu2NuEHA7rJfGdTRwW8nWQoGgpP/y06X5Te73vtmD+/RaY8K9ROxQEfQv0Q3Ibm6OiBrYp98z219VvV5+rZfiJnp6Bn5sVmMAVq7JafRbvHw33FN98HcQL+V7C79QJ0QuoQVRhHGn5G8p9STlMM0Dg7NrwMUq7GpqRErhOSFnw13CGVKqyKqXEsyEfST+WBbDrKn5/DH8e/6N3/g/pMZCGz5v/6BY3ccnfag1q0cZ3GQKtsg64ruESnAGGex5nXE8zLXC0GFJMrBfkZgGOa2DEpxkQSapfOPcajndIz8AFtTswYw1zGSBDvcy3/tabrkf194HlIE4BWuzgmf3znSUeR1nkR625NcL6wprFH7tUqIgaXOZLo55Najsz4r+egwlosIpnQZRmC8qYPYPGyBdOoh89lj/fgj56eHXRjmGN+oMSXXV1jw7nJrC8icdJnzjjLVwJGwm+touMv1rz4zDjrmfNF/E4QZ2nYIaYdtU2jfhmdYixZqQHl6M3V/BqG3CuXsDFS906bxavwzn5Umn73LA1K2EbPvzO2ghuU8a32Wt8nXql3f/+SfphLoCNdgdDfficcV/+Wvg5N0RLhi3ga8OZEGqhcnV5nIHnC3VgKXrZ41Fsq6sqX4/6XzyUm/9YxNam/zAf9RcXtPnfSeA5CP/tojYL6I8Hix38r9wwBqlCsOFXwUEtrcG58mBmWR0ravkcGu1RS83AywL78xPDaf5XzPWU/71UT4mv0ELaJsDZ/ru9g4e/1TI/xNY/kU7TwCil6NaQL10AtQhfWojA8TRF8zx0MT3+m3b9+J8oXwR/6a1i7ECrS2RS4Az/+U+S79fSQ7THy2iCXX1ISJSUOYWvMB5CHeeQNTGEnRvkO6zo4wVqLcFxzl1VP4F+BnZwkTGdhCTfnH8m2eeOfMOsRoKvY/JZf76vtEXE+ULEfZkw1JbmXOXgvEC/ny7wKF9CiucqyZeoXfpHhQOVCF/6sN9H+L7T8fPjeqU9v1FEnOhzm+WQb/NaOl/HkKDLDjAC36WQr69/Jn5Bf4RfCCl2gGqd+A7IUa+X+D5u4zu1reKWP3X4nG8Ln8vaoq1FLn+yvgaknrM0kuBLM9CCt/OF7CIdiqBoKuDr1GHBo3rI96bhaycPyy02Ea/V/A6rIF9xv+kS3y+d7LPhizjhYozrb+2qvlhHQ/3Njd69exftVkf9FQ/9nur/Pv4nwRdwbm3/ozoiqqP0KJ6adtBooesy7mtgNKLHBDk3ms6XnDPObeOLwbDay/bbKF+KkusRvnS8pn/0Nu5/bbLKTVRkTGQ1oTuERN0vh/jfiZDvUoyvcjaFUH8H6E3owwfor95a7/LdfqdOJshDrUvQJa5Es88oawfq70F80/X3DshtUtiYfXbquGAlwvddkN9w/qwn4meyxM1vuEoFch0VbZ878TU/YKKj/o4m9HegoI/T78y3t+LnNv+LOmug5w3XeiTGyknd5zvA/46G563dPnfyv/p4VDwX8NVI2uyzuRajfDF8Vv4X5MKYdQjf2tAh/pd+DC6N+V9atV/4hmdW8aX+ktZf1RWNazn2a0qlEqIzpwd7PUH8HFzy5rzF4isDPMk3H0Tx9Y2b72PxVSXOF2PpgO/Nt3G+ZKCXNd/lcRM/X2/je4+2OjEaMUBzyfgZVJQsEh50LH42XedOfHuqf5QP8ryKLyH9M+BbaedLwPCHmtMjjB/DT1JRzTcnrXj/F0+k6v8m+AY7go6S7pHrS8v0zgxfuhKMObmZ0F+rCSgv6O7u5Bj2fz01ETZRV+SI+sA9eaobBMcZ6u+oulopwgY7HeivY2gG+mu1dYd66/6CgFhZ3Iv0hOHcUdco/86ilJKAvLCI2me/TLbYg9OzYTkv8MfCD12tUHJH4dR8HWgwIyN8Bc2w2vmSpX3sKWIU3eFxCEQIu58th3wxmUX5q+0KRIDJ/OQy5jZgwvmuOC+jQtMMyjuDpRbqXCg99Ic96xGGe8+Idai/cHwz1AUcgV9aDvWXclYLXkR/8boQ8fiqt+4fPa6/V/lnByZQd+uv6lswA/K8W8jZwc/IzRx9CWN2pyarlG+elQUfdTcv1ykLn/Nlla7qWmGzgOo+U4U5VTSCsMZIGt9ZPIqySpYpA30Tdluh3W/X/w75Wtv1rTrYZ8hLv4+FfTo/WcE8c8slzsX7xeZXiqhpBuJuUYidk6M67wwHPoyJ9Cp+hPor9XHOwC+iVI7WX5hRpQRGqL+wrl9OpH96iS92g15q0niG4YS+E3V1f0HduambBtFoCvXU9vXTDwtS3Q2CTzTVE1Iqk21L+WxO3WcAwYsD1vDS+OLeTNLMJmxwHPVK2A0K+EKPaeOx6v+23z+yMIHlNN0iTs+7bnkSfS/OoCvBTDjymblvRDeOhC8LFSvqf+fUcVo1Sb8w0F9c40XU/9JPqvQw38gTJmpCPLCUxcGJeIM2WTFKXUlvKdqebnrQaVNOcifigWfFDsPM9w49rAdhA9VmOrFNJ9yJFWsQJDymO+2kbYZIPPbVq89vsET5/sbKhQfMN8N8hTyHz7efI76WvVlhvhnme0bHzHy7ltwL5svCfFmYLwvzZWG+zJf5Ml8W5svCfFmYLwvzZWG+LGfAd6XSM79crDDf45YFudEzv9yRo8z3eMWW613qr/P65PV3Uz2jy3yPTXJda8zEEUq1ONVfPJylIeZ7vDsb+k2+zgpKm1XobpvTdxPPOJ7RkJEe59v2JGj3ccqhNYKCh1472Gc1iM1LOtKudp5vND4e8XDOJd/kY4B296b0UIU5rAhnfmtTbm15v3QAjY+PGuVfNCfnia//G3yHf5NvavGx7vTXbnjWk0/xvTHf49Xf/Inw7e4ALoNxzn+Ox1dXmW8gUKntORjGVazMhqOKpnzV2dnEGdTR0DXcDoITj5+nNs0YnUdU6c6u+oVqFYcaVatVqg+H281jQTjbL2xE+QaV7vJ+dUpG9l7d0GtYVrwr9uRf0PRG7ACXTP+ownwdKX0qT6UrTVCJNhrvrMsyBDXcDrKRcb5LurAdVbiTFStvoiebvuqB3wN6L2pkl+ZrKt1RKV8Z2TtWOVEVmmbiQ6wXP0DrRmzWnOY7Iyvnnu8AnN5HQ1hBTt6mymxTFSruZpWmZIlmmBpuwRWBNSnueAfob75iURk4GCnsOT5ua2mkVMIwulSiU25G0MNEJTYiPKh0l5NlUZORvcMqemD5XDx9sfMBY6xUvnMZTnR0yzfMBYTxlaoEpt1fUMMtoCelVsNwI+3+F9cIRvqH/lfVN6AR9DimFveuRg8YvrrSHW4RyyUEe4dt6SZz8VzozoaoWPEAekLXpJrroazpmfEdSYmvCKfmG9RwC/R3CyVaYcdPOY84zjsvrXS+tC9dJdCyC1G+ZdUYqyTgAYR7nxvSl2IuPv62sfFHA/7EfU5hLaXl+bTP8nZ7/yjKN6jh1rl3JFPOI9rIMG2Z5Av0bVO4QXWDEnwJvIzuPV8wBxgP9hrlJw0vzhcs+9WUluc1vnruxfT3nq+G4wd8dQ23zsmph8mi94+qFJqF47aSfEEV81S/887Dhw/T+OIRODK6dyHTy3M3Ni5/TtjnnLyb4cj5yP0jXUJRq8eSrG5F+QY13ALxUOIaHI+vZmR1C6OmiY58gTwmEamStMpLxvkKVV86tnc//SbGzgYpccx2cH4jqn4LqjyF0l+s2Ryzz0ENtwPiq0T/yH+h/G9nvkATO6lCvsKNH6C/4d5tmd7bWewcPzNffT6GQ/2lmKjN/8bTSm184/0jKrmD53igo/91pFcrx2K6g/yv3kT6qx1S+r9LzDduXguh/tJ0W/x8WHJxtC2vSO9hKHTiCxcTWeWw35Xku6b0N9y7v2EKrMV9wx+fMAedmp8Ur5kvtR0NguaI/joqqeF0kQSK31+gAuDI1w5WDSItw3fuRSHuKRN8KfkhI3u3pac3l+j1QHRFOeho/1f/7Ikzqr3dS3znyuZtclBfUnjERBWhw+wEFk4yNdwO4jsSt89YyhHJ+cN6VdRkL8p3ojCsWHn6jUQJvhOwgPJXZu+Y8FCllhNZCwds8+K/8d+ur5oa568sX67r9MQATAFRv7AplUOegykvrOF20M7i/aNaYUvWVPm3glrVkYUqZqSqVZgoUxeGGDh+oYopq+D+vuFry0JtVFrh3ikeL6RlHRcbO41K6uFwfpLqselXEwlVnm5Gymd5c3eAek66httBO4t3SGZhBYdYbJpVV2lChd4q+blhmuI+2vjCCoUHFAAs6DXp9kTZar9rYDcan9LNSY7tM8h0UJ9LVWabhtNXUsQjheGOor9U307EV53uUAVMdKoONt2xbl1bPNDplWID0mO+xyF5ebuHfvq0edXSUoYfhD5VvsLvqefbjQHPch7rdMcvOJu94+mcdXMs/hrzzbJIfj6HhfmyMF8W5svCfFmYLwvzZb4szJeF+bIwXxbmy8J8WZgv82VhvizMl4X5sjBfFubLwnyZLwvzZWG+LMyXhfmyMF8W5st8WZgvC/NlYb4szJeF+bIwX+bLwnxZmC8L82VhvizMl4X5Ml/my3xZmC8L82VhvizMl4X5sjBf5svCfFmYLwvzZWG+LBnlWznB9tMV5nvGMnPEl8jlh7tvu5rdF8QeA1/n6C+NvHPkF3YK/Yp2cafbFbp/1aEjg1fVMd92mXSj3+xWq5V+wmGBNoOO+yV2fltdqK9+x2e+/V29TjV1je7fCqrfCc58ox5rhaTSxnfQdd2kdjp37noA1XXLqXzt4uH789c68rVlB63s1qnmhplvUpouyZeIfVYvWBalqSRfGxqOwYJSs5xqn7vga5tXMKfYZyedb/evfWW+7XK/1XKLrVZUmZpfjHYmDHOz+K1FqttMd3Nd8J0YPoh9B2zdmt08v985VYW/pH93Evo76IKhfGr9Ft/a2kHhUaf56VHczAbz7UbmO/JNtLsetPhlvrJ8dP21/PQIupa0BTbHV3ASmsWv+PHdaekwSfF0ICxGPRlEe/0tpr/3XfwuwmBK8wXbrmaJ+y6uS3zvf+3G/VarVYJW9e7J56R7fnWK+D7y17ENLs6vH6j0bSGaw3zBiUKQBHZ2cGy+6BYjfG0137qA4VYxqr8YSX+NmWvNFzZ1jSaWKfAivoNuuZsejJQqFSEfSR8xCV/KgiRoUo5gUDWi/lMPqUOA5Y90Z+DPE19woqJ5HT/HAGklYp9LJfoqSs2vJS+qv81x61YRLwArwbdUmr+mGn63psYV3/mxqLreAbmbFiqVSkopJcD14ahzsixqiGdu2JpFJYeWQWZjIspR3AlkIeGYmS+oGnC4oPVMKF0z/lYo3En/S5hh0WDRavO/y8TXLAG+dkx9B6SUMmo0c6OJSAt1FdVzaRhVF7NVZeVvAW6g7LGg25YRiSv2KttngmcDMWKiYATxVRtfL6AHbTrznR8P+MbU18pvoUSPso1vWaln7aqKr4jp0lXq9QZmeSDK19kKpVaIKLDty2fMF5E6Rhub3ejvhXEF8sJYJ77Na4avfaD3jZGK80WVRb6k4AND5Kr9cvtVkQgmovcTbFkoM18EIOJ8D9HfyTHIX4Kj7ay/ZgW7GFfflFRFJ/1FV+sQ37t371JcJULDPtAxKVKLeGaxUuP+L+ko+t3u9XeZEpjXD+DrduTroXTBl9wu6i95bEk8/aBtLL6yRCiJHhL3f1VIleB7qP5irFpOiZ/b9Tdhn9viq8gdnnT9HSjgzm6rOMrcV4j1j2Lx1SjHz4fb5278r6W89mF8rebYgXwjKaoD/K9W2iCtMXe1E98Nzm8cFD93pb9BXNX80il+vh7wHXQPvJknwnt9Cb5rSv1CBfc3JkYPzk+29YfYPisWyPYA/Z2/FuNrm7zVMoIWMdKK7+RYwBeTIQdJiCrOF+8B5mTkZq8tPVtPiw43gJ3k0zg2x1eQ2/ACxh30F1MgnhV0jy1MTt6n1NdXS8yXIwqr+aLXdb4qvrfcAx/ZCV1pnO8E9GQpf4UR8YKnEh7+UNJpx2SikNgV3z9CpSw2kVub/tpFiJKbFeLYUrOabgtBTsJ3Qj/vFtWTADCHVocEdPG6aogpa+Qr3OsHdpAUK1GtykJ1LeRry0JtFPnOyColpNFgT6jGSyMdOkfJtDTf37dQwSBbnKK/g9QNUjNc97bSS3dccXbpppDTVOviRNHSz35c198r+v7R5IEKLFSPRlB0dDXka63KwgMKvhakfIG5SrwfpRp3cr92hfmmneLDH2ea1ohKD+LfgwnxIAFxutvj7KSM7ftIqHwXwvb57MWWR30E3X/W/bZve8z3jGXpqM+3F7pnVuPn289cnI2jtRdHaO9sMV8W5svCfFmYLwvzZWG+LMyX+bIwXxbmy8J8WZgvC/NlYb7Mt6fE3N/Pbq25c83X1K/LcK25Xuf78ASfcjH167Jca64n+c7+Y6ac+sYJqq+pX1dgZqfK9+Zv8HXu3e1W5X1tlbP8LGtv8dXPy4Z8u7fPOkRysDgKTSafbbVWEt+DAjrM97T4arARvl2LHuG3JNc31VDNZMWitpJWQSmNLD+rnDW+WPciT8+t+4fxDcZ8Mt++4Rsp8Hqo/gYNbI6vToWvs12vb297yNferqNzvPf+/d8qoq7XX8faLsgCzRCb9JnDMWLrEZ+6WpXVKlajm/LlOjLfxBl0DeiqdEHTTI/F7iW+dh2F+MLnO5gDH38HS6JKnZMFSUmJJTVyfkBXSBBGKZdM7Yya/vSlrlNnqtKFvaIs11LoKftcuvmuVEL7DCxv1lE7S4+J7823lvU42lOCsjZioYxoXmKZOWhYe0aV7nwdNImSvE0zpirWjISJ0pQs0YxIVTrme0b+F9jm6zSp+P75d7LrqmFjjQzlPnW0NCFHtQcO4yul1Nr/BlXpwvIaq2yfTz++cmJ8/+mQmqARYhRTab6iJkGlE/EVXQ2ab1CVzlQqy3atuf7g+7ieuMEzp3IY1tya0VTT2xELUg/FTucbVKUzlcqyXWuuP/jayfA5JyXNqD1/+PAh4QsLMz9SNcmM/t7zVe2igK+uSmfsc7ZrzfUHX+wfvY21XJVUi9sPSk9FCm9TPGX0d0lWt6J8g6p0of/l/u+Z87WcPxN3GpwaKmjtOdaYq8T5qiSHqa7xLG6fg6p03D/qJb6Wtf0u3lZgLe6QarRwPqFV+ouFnNv9bzyfxfmNXuB7kwy0eOVF+sCR9xHF9Lcc6C/1ctviZ6XZFbbPp8z30tsD+L5T/VviSImKoWg55hrtjyoo5JX/3Yjrr361TZihDmod2RxfnRbfOqFr47tdscQ26fYc1cEXVQ/s85oqS+W8oDhqGFedKTywRI14Qckx4VGNnBm6JvAVCljR0FSlC6ur8P2j0+Ir6u/RzQZ8t1XeWdRhvuoCLxFfR8p1X6U1ZFVVhc3BnDWs6Fr15Zo6inXQUOEXNuXcsOozb6IKm6p0YYKS7++fFl9IZNSjfOv6vgLeX3itO75kVWd9naZyfKnTEypxlfdVx4lec4NLZqR8phQU2I+i3qqqdJF7Ecz31Pha06UO801YZZavmBkriSbhczmqCT64o1YSiRJ4pn4d2+fT43uaYurXZbnW3HnmG0RYNX6+PZN8Tf26DNeaO9d8WZgvC/NlvizMl4X5sjBfFubLwnxZmC/zZWG+LMyXhfmyMF8W5sty9nxnT6Bk5BSXoewZvv4R3g050eUA32b7+6Dvl5lnL/GdXgF5kOQ78st8m1+Y52nyDZ5+fZRuS2umrsqv8E2xz/PM91T5ykPs5b0tv7D1+hf5pqk08z1Vvv6h/nCu3XD/Bl/W397S39SXcrP+9ijfe77Ug4k2JRadC6rSzagPUUWPubBmBVXpjP7mXzibBXq8eUE+J7660l2+ivMooBbxUQu3Wq1v9PnFbhZxu6JV/Ep84TteVoO4uMXAj4+vqTlH5eiGI1XplqQqEktjePGPqUpn9Dc/PFeggYV5WZA4JNRUuqNhosoK1OJx2LLrjuHn5PWm647jhOu6xBe+F+FasN0K/OehLMfH945nzSFHR76wZkciVelESRVfx1HdNBDfVKUz+psD/nlaMOpNIXlT6Q6Xq5GhjpSxnYnSLcXX/W5NFmHCvW49dYHvoFsRivM1a3KM7fOx+l8agB/WEgziK1VHAy0vFl4IqtIF+gszaCbqrCmHRIUYYFvqEhAyWZdhUPEFXbVdi1SVuC5Dt/gCKfQY++Pj5ktlFeZG2uIrxRf/4v+gKl2gv6PKcNMYQbwKgkp3Qt7WG6kNp/JFnMj3QlHHV/jfxi+OO83m+ST4hsVTEvqLujsxEqlKF+iv5kvqjy3m1szacwVT2cxK19/rSBL4jun+EbhdmgGkm2yej5Ov2PSl9MJyk236i74XyQVV6ZL6S5Yd+YaV7nId603G+U6OK/0V7t2VlYeucs1sno+Tbw3fpuApJ5qqv1Ztg2YFVemS+hvwDSvd2R1H+8b5Lo8r/XVcEjTMg26Z8R4fXwySnAP115q7KrBBUJXuAP01le4m5OiBfJejfEl/cc07qgs1zniPjy+WeD3Y/1oDIyooHk3krwL/G/ANN/FKVrq2z8b/KnfhPnUZ7/HxXRoxfIc66W9+lKrfRF5BFtdfqnU2Ea10B021OegmvsLYOTDKg0WhHfC5fhLg2PjiG4roNRgTgXoGRec0X0dOXLVi702J6y/VKsTAK6h0BxeN3lyH/pHhO4i6ijznzW3h+WvKaFtCDjPfY9hQAQvWVdARb+gydaoqXcQi+4p4UJUuob+WP2LZciRS6c50ijvmN4z/dYDtLeR7ARMeX9A8VwC6evdKgfn+/oZsObo56j+jqvtVFRWpqnTWQtWX+D4cDLFJc01VOnN/3+gvRFPrPnWcdKU7Mti4zbb85HIR0sxjof5azWKr2CSuxRYGVreKOP2F+R5b/2hOyjK9pNc2Zep0Vbo5/T4c5Kea6qp0tWj1buQLKwznkK+udEdFzZZGU+zzMvaCihG+tut+Xf5C3SK6v0B2ep4MtM/2+VjyV/g4jsoIBmXqVrzOTVMleBor+YJJcViuUQSBc/KJLjnEfDP8C4XcYL4Z/oW25P5Rlvme7zd+Z59vboT58vgj5svCfFmYLwvzZWG+LMyXhfkyXxbmy8J8WZgvC/NlOQW+jnnCQvAorizyzevR+uf8/lt29XdTP75+vp+PyLD/ndNrzbECZ5LvhF7LluyBs8w3MmKQJUN8l8xaE/zO9Ez6X6O2doHPY5b5Co6gs8i3FhZiUFMlPp3Z5KvG29vneiBIlvmqnvCA5I5wpvxvEDYv6TKDQ3w+M8Q3Lwtag2mcLtvnjPEVNbkW5dteA4Wln/kuFe56UfvMkrH4ai0eX7FkO35myXb/lyVj/SPDV5fQxwruLBnia7TWlrq/xGY6U/Gz4WvKh3L+Klt8zVq6HGiO+WaK74Tu9Zp6oTbb50zq78yoccOcn8wQ3ylf+V9hygDn+Dm7DPHNy4IXja4iVZtZMsDXXtcP5djGKk9weJUp/9uxP8ySSb4szJeF+bIwXxbmy8J8mS8L82VhvizMl4X5sjBfFubLfONyl2/eZ5mvMLfzWbKpv1vyGZ+tLPvfGa6ClGm+eX68ivmy9C3fHNvnbPPlxyMzzXeA+WabrymywWXqMsnXlAPO69HcLBnjq/V3ibPV2YyvCmpAyoSpesWSKb6OL1+wfc4uX2tBj8/n+wyZ5JuXr7mMd5bjK85fnYv+EQvzZek/viZ/Je7wWctk/3fErMFlcjLJV8dXS1yGP9N8Jzg/mc3+76jpB6/xacuw/ub4bWVZ5DtdM/EVv20wg3yFNLcVljiPlUX9Xb+tJ/hlC9n0v0Zq3P3NNF++PZhtvizMl4X5sjBfFubLwnyZLwvzZWG+LMyXhfmyMF8W5st8mS/zZWG+LMyXhfmyMF8W5svCfJkvC/NlYb4szJeF+bIwXxbmy3xZmC8L82VhvizMl4X5sjBf5svCfFmYLwvzZWG+LMyXhfkyXxbmy8J8WZgvC/NlYb4szJf5sjBfFubLwnxZmC9Ltvg6kb/xBQ8YUv/zFT69VqlWTi7IS34dXgb4zqiXz06MJhf4hZcM6az5OsXfVl/10jsn+e53wS+j7QW+bhqzFZTu3maXM++cXRpJbFkyoh7lO+iioEMVh4ZIc0N6wpYe8+0Pvk6r5bZaaF4nrx9mnmUQV/lriSWMqEf54myljIfyzYevBF8aii+S/LrS/uc7EPaBcokImuOr0+H7tPVFNMmb3ne/4YyW91RN2M3iNPF96raQ5/1W2WkSWcXXbjWLLVoiWu53XNNpfrWbX2mN4veY+42psrLXZWZ0GnyX3WvLFC1h2IRs3Fsu8QbqbhH52rBgHD7n3S/zrlsJ+VKc5dE2aAvNebfYdIt6CW6rthYJqDzmewZ8xYXr7t0m0hm3bmF3FxE2ryHvCiBGrmPWLcQolr+7tyP6a5WWx0sl+vrVmh/HLQh3HE368pglnn6JB1XJDi/zPSX/e6F43WpWFDPUThec6jL8nxxDxgCGVPMLqelXK8rX+N9BVFn4D1cJbABWmb9mIG6khdIoU+x/T4sv8AO+CMmaB4yIcxK18ZqKr2zU4WUkNglY3ZT4Cq8GJAtbQb6eNW/irmjWKsa3ytnn0+NrWdOedWFcY0QdJr5fFF8CfwGJLcPUdApfUtdmOeS7XKy0M41lKKXk7PNp8R1TrMYg6YikjP7iJ/K9UIQFy0R/PL1/1PwOLaJ8Ib76nrTPcf2dXuD+72nxHddxNMr1UH8DvrRg3NjhNL7U4kvIF+Ixd6zN/1Y6ZLZYToPv5NgdkLLieiGmv7jgdjSdkeT7DVtE/C+0gM4U9496ie8FY3wD/Y363zCO6uR/kXPIl7pbkN8I929Lzm+cKd8xw1frb7NrvstpfLF7ZU2EdwWT+Umf+0enytfWXAL9xU6O6v9WOvHV18SFYhrf8TjUicQNYI6vTpevhQnF+xH9vVD0LMpfoaV96qX5X1RtDy+NsuV8j/BtVSzRvB53uhFXrOIr5nsqfJ82XbqXC9mLVpPyV1p/HUgmjyHfW7igjPcfiq0w76zy0MWmyky3MO1s+Iqmq9aIJCidRL6K7++fEt9lzYq6OV8j+os3gUqUrppX3dl5fTchfH4DmtASp+kWyxH9tZumAzwx3MH9Mt/Tss+RpIPX4bvT0ZZOl9Tngw7zA7X14+aZn984A74nIXMqrMoVkpeIfMEOOAN8dYRVe5ZcMMF3GLLA13pEf2fbF9x7wZAywJeF+bIwXxbmy3xZmC8L82VhvizMl4X5sjBf5svCfFmYLwvz7WExT4E5p7erbmS6wnyPQ2zzGFh7Qb3jlvwRnl9YlWt9yvfu72/izjE+yKMfF7Jm9fNCU0fGLF532zBZ0q2zOHK93E98/wyONl//bT1xuj9Ph6tv8Liffl6oduSHhHLtD27n11NbLo12reqF/vK/2xsh38rvM1k7tgMzVfSCamvHw7fQ4cLs9rfnhs+Ub8k7YsuQ73HY53tqo+L36wmbaphhtURjn6e7/onO667Vb26oP/hubxyx5fbGCRiFgd9/3jIA4R9rtdNOfHMd5ou2DYwy31+6yBNixrglxyKfEF+nwxirpQrzPRH9NcOR2xTrZPi2mQkzeyQZYpxmfLX1vuLU6/ijt+voa/Lv6/XtV+gHwVflYY6z/dp6XP8HWlqP6u+iv9O03N6Yrb9V23qvfuKjej3qt5znzmYBXd9Ctez4BTi5zqbENa2qt1CglrYv1/Hy36xWMb5yqn6hWiVvuSmfY5fxdu254w9HWho939gcFTXQCLEgaVNiXWyqYuLmfBs9zlWrFPouVGW1ShH1rL8OB5NfWyjAcaRon6iqgxDr1oJ8odeYJTyPfDqK6kYYUNfSI8OZpF47p8m3Xq9sE9/H9Tr2bi7BR/291spLbzEmfm/XEWx9VrUwErZ8DRN/07boA1YB2YimGeYKEn9UTW7MSVQe+Ev9ILkq6bvwpU8jHHxJP8KRKGU6O1ICi6VNKWEjXtjSGOH1gtwsQNO8XsORE1IirEBLTa3TAUkHAUcBMqT3MoqD4aSErWykmVx1mI6cgb3iccKMKm4E9zaie9iml7001CHMe5bc6mna5z/v1FeAr1N/af0JFEVp+yXFxYYvLHn87uY/dCVYip8+7qBlvSz+/Afj6dI2LYftiMflaJ9n1JvFcy+WXsjbAMmRL6059EKyUHHwqHOg1FMjtFFlVUsTw1QsTwBc7FkuFbxaAas8BC0NX+nNwbINS9yFMzmEaxQ86mQFHRZjp0VJqZ6Ylg/owJdGoSVsUpaXZGUp7eSVSmQEYJsVgdscgOP1cSNzw9Ys6iXY/iCzERvT7twJZK5wpnzrGwL4XgJNtOsJr6r51r1LyBf+P/4nzf/CZXFTWe4/iW99I9mn3dBDCpcKzyzfs9AjUqcU1WhpOOZt9XnW8RU6OwxcYO7cmgUYk34ZTirozZIyjTg+1UEOtaFIvBPaTe06jWYjO9gq7Aq2OnC1s1N10ITUrqo+0ExB1wPCRQA38McTw7GOc0Tihnu1cLp8LeRL5Cg9keQrAOwl4Ia2+ea7DvEVtYTJv8O/Ub4mVwh6YkndIUXoeJoGRtX/OF/NkT7gRAJAzTcRfE4MWRNXDV8cdkxY8VQHJV468aWWAyNWbgT/Dgx15kvlB9AM4EWKG6EN0ZHODQVmOXbp2Vuh1KLHbPvy2anyfUfjeUnzUvk6oI6iohYexlfp75/vK+0BIzFdgqkVbTHxXCFfVOZcWOAurr908moRvrlEKTzguxTjSyzwKgj4+h340mHBfg7nS1cC7IbUFjdC49dpjXwhKA00MNoxJxcNRmShfKp8/9FGFqrSUfjUrr+KFn5c6kp/8/HwWZ1psl46k4SmjtSKzpek+Go97i21MswNP3z4EFoGfCMtVbtAf+1NipaIRW40mpXswDdfuHv37sJot/oLfMmlK76wKlkkIQuHd+lkZNtipXaq/V+lchj76qC3XX+9gG93+ov9o3dJ/VV8h8IzjpANX7RahUqK/s5p/xXwjbSM668jC+u1gG8h4n/DslxxvspFjh5BfwO+A7QqHaI/msynKPFCmYn3t+3CGfDdfguR3t10/+sdUX+x0xy90xDR36F0/aXu60iK/50bVnX2Qr5hy7j/nYA+UWCf1UTlYL75Am777i/xLZgqf7YM4MX6R7H4auQs4+e/ox/Ho7/Y+u9U/zsUnvGo/7W0b073v/gZ8g1axvUXr5kgviJXaGpehi9jSvLVKLq2z3H/q5U2MP9zVzvxLZ9dfsMgedyR76/or+lJ2a/D+HkoxEVn3NfxszlXSo8T/tfYvBhfrfF0pynQX7xcYvFz4HdDGIn4ShvwKN+2pwti+ksxfxA/6+XBy/g65CdVT/+s7TP2f+MGGz4eH6y/pmWa/iq+NTqTdCJV/3coiDTJ1uH5QtgiPPlGf0djueMwvgpa5ihqadNfgleLXEyRWpgGi1YoHdZG+ObbTmGcr39V9X+D3An8NPMUQaestp3MjNlnEV85EDurh1Eev6MydRBXO/WD9Ve3TOqveO9ZQtln1bW3oceXp3OqTzlmjfA0WRCiCAS/9DJ4AELzzcMpLeFJe2mJVxG+Ycslim8C/YVoVvh06kf0QyBGb8PixIYv7FKoJJS1WonyHZAjB9ln3DPtxKpBuwVPJWf8oQPvOyTTV6d7/2hb5ZBxYktNXaq/Rzg362/rW28pfVX/J11/dcuAL4Xgf+MaW3V1Ufh0om0pq9h1sRb8QlUV2ClsUi9fyoKv8tHrVZpRrcqCyv3LwuYoBdBVX0b4Bi0hMzkS1d8Zue4PA0kHt0k3CwIlqykAM7ClalVdGlWfIjvY+1qUby7O16bD2Qj1Nw87WS9QWhw2VlZWaaKQcPOJK2TtGG59/sb9Bbq7oDhWdEYL+8EC+jj2W0xaRvjG9Ve3NHyF5mvhjYiXOhKiEoeFGZWnx8y+p5M4dBHLO3T3wHJ8KUc9dX9B5f7xxsJzys5Tcf+Ab9ASzvVaVH+hocpDy1nzOoBa/AbhBMU6ltod9bFWaR8Rvk78FNq0RoQvXF6FKdragsQbSmhlyBod4H7z3lnyjUjwRIx6fKWbJ2Q6PegSzNeBTFtNPL1xWRZax6bb9mbe+N1WZ8+0LCU2CYkxgfcuPLNN47zbn20U+oWoTuUQX9n+yzr99FzXUdMZ398/fukcMJ5A2f5IqVphTGPXzzbmf73Ord91VtmWt71s8ZWnyDf6mEwQYXVbPn6g8Ku7zRe6Z1br2+fbe0t/Lcvci5jtcuWJkV/e7REeUnK21lh/j0N/jyxza715Bnuc73qnJdXjfy2DqGaxUi2PL8u2MF/my8J8WZgvC/NlYb4szJeF+TJfFubLwnxZzjtfh1Fkma/w+TWDWeY7M8ooMsxX+BuMIsN8cwUm0X98u6/21nUJN5Ye4tt10VBxAo9TsfQO3zyb50zzHeB3dPc8X7G9ZalydDAGH8HOvq+/f4/DjrZw/NFLy7q0vSGgqJLlvIKPl+x++4uvU6/DP+QLIwtxECDWtaNqGmb84KX6PzdxGJn9/rEZm6alQ4E+ll6yz6J+8+3sW8RYoUG8olS/TdXegvGhN9/VX/+5Ydn1954Ts90+8+0D/wtam3+nBuCr4aCaIfHFkaJ5UOfHyHcjUaqOsxt9wfethXyRnCpYGOWLwC/BIigv6eDCWKk6yXz7ge/fQbk6J5VvHtwy5Dzsdr7c/e0HvmXlhu+urDzsoL/0nfj++Tfb537jW9FxdF0F0O3+933Id5v59idfUX+NJdpS9fe97kkl9Zf7R/3D1woLDLb53076O8fPB/UR33Invpfed/C/vz76neXU+f4ZlGrXfVz8+PNA/5vjpzf6h+8liK3sDU1aKJR2PWKf2/3vb5VGYDkVvkJnm3FiWxU2wzJ1G5iI3qo/fqfem1JO1V9OUPY+X8fwxSrs71Whs+26SnbU/7mk+W6k+t/4GyZYetM+h6psCsUJXdDu0GIojqwwir7h+wsyxxF0pvlyhJVtvtYjRpFpvizMl4X5sjBf5svCfFmYLwvzZWG+LMyXhfkyXxbmy8J8WZhv78j0ST0+4jxgvmcvq0d/71uXksOXhTLfsxVHrpdpYurIauy8Pni5vXnGT5Zlnu9i+dAmQfme5vWjbn0i9ga9/Pr6evI5ozMeO3cKfFdWVryjr7KycjwXfuNwvsF7k3+Xb868hjoic2tZ5+uCfD8kvomfFYGruNd/aW/Jt0vvHIGvsc/Th5rlSsI+qwBNTE+dR76tVtP9cnCTcoJvC+TLL+3twtiR9Tf5XmzbPWyNtgGPZoRr+3Ogc5m2z7aGNz92NL4H2mZxFL47R+frHCffGvF1ssnXqZYVvEH3uPiK6adjx6y/yddIH6v+qjeAr77IIl+xie/pRXiOC79btJQfftp0v6nl990WzL/VAnv8PYWv02pZt1wANtV0i6r6QxM9s/X0dnNMNJGk3qbzDbb1Fb82i61WJaG/+c/YcrGBzvIRDYF6FbsKFd9brRYd1n08HHIOT+nwBsvzRdEsRvS96heqVdxMtUovIs5VZaG6HuO7KZ/H+FZfZpDvavW2FeG7DGjKOuC6hstxxpj6cMfT+LquE7SgEwz03Luetdxy3Xk3sk27iBMergFSSehv41+YeNJo4PQfn2D68qd4/9fSR0O6T5fQF9JjOqzJouvej24Uw2SJ14QNnxU6iSCjUb4zMOOZ4qvWW6iWM8d3tvraGF80eQ4o2DxiBEDzRcL33Zoax0p3rqp012afPXdyDM2xXbGmcJ4NfyZhjeWiBwrVLAfbtN2i5+COSpNjpVLC/15uwMadxkvrySety08+WNZDLBNyO8JXlG4R39KUW6LDgaDhFlwzF1xvHv6F4Z4ozQ3RTkSpRHxFqfZM/QDNVwDcpdGI/oIpW/cyxteuPg+c6yTwHCyinkVc3GDxUP/rNr1BrdnNL8q54iaWr1lwvufLwTZtVDhskeZ/d1B9LwNXu4GcEToY6RoqHQ1rWzX+d3As6n8FHhVsc/I6/lv+kuZ/hU5PJfwvZkz0ZG3EhCLPs8XXqeor1v1aeoj2eBk7tIHlhWXz4x35ftMleMBiGr6oQHCeaVU42fP0z2yTkKTy3SnnUX2tJwi5UQn/P9oCAQNj+9qSBnx1/EzbhCvpAvC9hhPd86WCxypzNSsLZW3NXmSKb65aCfMbRcSJZ6hZDvk2r3Xka/wtXBcmYYGrI18R5Wu2SSzm0/WX1Nda/KD5gu6SDgdmxgBI6i+ZlwukvMj3KPq7NBT2jHxTfXGm6mWKr7FHbrGJeK3md0g6Il9xv0mxUfPLQfp7N7oAQm40AWSf4ewHfM02D9Dfew1CsPMJWmKABb6XfHCws5XaaKr+XijCGsvjhu9R9Hdu+OHDh2reXOGuZwxapvjmTZfALdtklSkuJT8J/Q/k63453P+qiVtusYXabsNq6MpDvnqbB+iv5tsg2aDYmcJngRLv/8b194Kr4vpf0N859O3qpmNwfwEirGzFV6ZLAPDIEjfRqd6pQK6jou1z13wx8U+meL54H6+KkK/eZme+O+WdT0p/74JUKIDG8DkSXzmyg/6qCPvCr+gvrlqO9I/Oqod0kv2jTeWBAR7qnAKkCRyNr4MftDr0UTEHEfe/RuU6xM/UPVL+lzbWUPcM50K+hc7+17J+2f9a0f7vWWU4TpKvjqDdMvVbAw0Al6bj5+ttfB+W0/gq7byGC/Qmgvg5yreD/ur0xoeAeKVRSc9PxvXX8I3or/OqO76Rgnz+WUbPJ5y/Uj1g6kZeR3un9WFMOVKaCPu26syOpfPV0baT5HuhmOQ7WGzr//6BCnz5Y0D8ZSNxmG3xlRc9ioj+LulYONDPgO/VGN/I+9hUFG2fTe/3pO8vzJr7C8uUg4B803fFeVllo2DGV+r7XLcEnphB1023z5DJcIlv6w6GowFfs83QPuO1UIrrr2h8QLMME2Qi//j4MREJJvgKcPEYeTXB0Dz1ovrr6zM1AWt4Ub5Lw3oGXACYaZcvLfEqwndh3csiX2vVM/lJ9KBuyyXOxfvF5leKqFuqmzvptjScYvz+glv8rlLC911KaTZVXzrgG27T6K+AULuYyD8/QYVdbGw1qF90mex1tCen7u8vQ565SITnixTf34KjwuAh1N+afhDPluv+EHYR8MZCmVLS6z4tqsnqCDn3qq+itjmaPXs22efTub9fVokKvPlTxOl51y1jpoJmqAcfmurOg2iOJ+4vqPsOtut+d5CaeHinBdoV8tXbDPkCFXcscf/IwX6RA90jZe0bH9L5BlkVWyVk8EC/x/zvjHlaDoIzsAV56gaVFVdJxiGvYjbh6+/n4PmNiOhUFD6Oo+yVeRJGV7rreOseS+CZZcvjadsMpfTg4L233RLOt5WvNTkzJ2lVg8Cs7d2ZZobzIP79XPH9XXlYCb3kr4f1jWQYKG+flHcUU2f87pD+4ksWeHL89zZy+WNyTu0En28/49LW/cV3ecyzpprXfmsbU0n3Cxq9dVJ88+sV5nuEDrW5F/UbFrPx2TpH0mfjF6ZaxdZvasTHCvNlYb4szJeF+bIwXxbmy8J8mS8L82VhvizMl4X5sjBfFubLfM9CpspMIJt87xPZ+TEmkE2+asRCk/lmlK96Vtlm+5xp/WXJGt/pmP6yZIzvVJX1N8N81Yhg0Sp+Rb6DpmAcjev8zjD6na+qV2hNuq5L1az0cC4qcrR8nWH0O19dggIqOz/FKhpQMI740pB7dsh9z3dGlaDAEdhC+V9Vzo6G3LvcVepzvqYEBdVUUHxVMQWHCoN6DKO/+S7o+k8Rc6zLUYLu2kVm0e98dZlHGt8Z1V8qlDLOLPqc76ou8EXj72P6i+VZrzGLPuere0eKb0x/YUQ+h8/9Hz/remeTbfoLH26FWfR9/9emCJriq5j+CnfaZRT9z9d6hD1gepeKG9Vfq3mHbwRngS9ksLCr+wWKVMX4Ljc5O5kJvlS0r1lsFdE+44tJiipD6XJ4lQm+yg277lcs9zdJBbTJD7tlRpEZvlSNjiW7fFmYLwvzZWG+zJf5Ml8W5svCfFmYLwvzZWG+LMyX+bIwXxbmy8J8WZgvC/NlYb7MNyty5UcvbOIc8723tbVxbBv7+ePKz/ic3Tex5T9/vjnyRvf30uf/52dyZ8y3XRqNxoeDW6zgA5crXW1s982NBIzdv2Kodnf3jo3v/t6VXeZ7mJRKTw7mKxofU17b24nvRQVDJI3rf9Ts0o2/uj0w4R1in28w367kUL6NrvnuG767CSYBiYtd6+/+YW6X+R4X30pP8r34F/M9Fr47G13z/XEo37+Y72lFzo3PlQjfqZ3GZ3J5dqPxCifEYuNzGfk++Zf4ikeNxmuYP/tg55PY+aRavE7je2N/d28PJy7u71OIu48z3kT198p+/BK4ApGXcrg/d/d+4Jq7u7TuFbUlhfvKnmpKq158w3wPkD8gcv4c4bsI3z8pe9zAkMp6ghMV+H75I/F18Dv0pZ7sNBqwzFMtyon+EZ76G7u7KlC+oeNl/K56SkZ/Ad9uIrJWTa/s0pKLZhMXdcP9N+ZP0PKHxf2jA8zuJ2v6Y1R/PWsWoeXhzxSCbry0xA42tBvKPt8FhYUFTz5bO/APnfJL6wnMEHdQYsPWjHIKra9J/3sRGsS6xlc8uBhozT3dOLDP/9kNVkS+F3ctsdsfKY+z5IsY2/wvqKt1+ZOadnQD0YDZxv9e/kztF+Ffmb7YqNgSZSONr9XGV+nvjTcpoRaudCVYM+Cr1qW/uBAZ33jDfA8zzx9T4is0v5c/GgWvGL47G4Yv4oT2TzasxQ0L/DJdEmILpdwd370IyhS+F3etznyFYXxxj/keFjX/m8IXImVQ7Nsa9kfN13vyb4LvIvFd/KBVPiXRcYj+dua714EvLsXwihhfYb6HyeKHJN9HKnyC+OojWWaInm4rvpc/El8HAquo/u58WllZiQdYXevvz//892eM789dCov3/+rEF+wyrnylfVXmmyI7Sb5PGp+3kC/FyZ6OqF8SX6dBfBuNrZ2o/iJuuiQ8lKPor6CAOgrpxu7eT+Nd0/mCz0W3e6VtVebbjf4KZLlDQRJ0dJXxnkJ1Bb6i8QAmLgN1O66/d0EqR4uvjP6iRFd4o1a60VF/Yc19surJVZnvwVkrNWU3dHxFwddnE0OXka+187KhPHa7/7V+KX5OzW8R347+Fz52Pe1/+0TOlO+nOF/s7Gj91bB1QI18//jUUBofj587Jza7iZ9jucZdTbRzfGXtKrR90vc9a76Xg4zyH/+q/nBEf/MJvpc/av3NR/X38seu+YoE3/03HfQ3DKqDJgHfn3tpqzLfVMHkk6DsscJkQ0fnMt7qf1KmFJVlf1Izka9DcfNHDLki+kvW+2Xq1gMIRh8NcN2/xY/ofV1Ma1ykhBY+EKBy1nsJvvsq4YUWvE8e2TnT/DPcPWg0lLJ+xni50bjXWCSEn3eQcx7CZUxQI1+6B5xvfNz52NgI9ReabjU+p2784u4eeVOTRQY4+zpNQQsgibwfe7Rjd/fnLhHFRDT6WdrEG52IVhlKxfcKrsr5q0NFBDcHFvE2AiSfGy9t4Ct21O0FuntQUXwt7BdRO1Reo7/Uk+pQLU33Zncjtw20ZVZ3f64kntQBjG+u7EUamImQr0ldXvyVh3zOH9/wdXXWNHVeHfirJkr6Cnjgta8Qn/Wg48ZLyRn/NeZWfyZMbPA4TtAgnEhKv7wNhJ9/zrYwX+bLwnxZmC8L82VhvizMl4X5Ml8W5svCfFmYLwvzZWG+LMyX+bIw3x6RFf18jhP525civF9rbz/IMt8F81h7rYx/lzb69pcsrR2tfW5EfU7IZ33L9+Fh17Qt15X+zhao6Uzh13c2deT3mjqvj7yTO51+kSPL6vN2l1uypTrefK3g9RNfHMxrbG4jpo5O+6OwuVE94auLWPhH1IL8u2Cy/s9RD3VCxja1vr6eeqYdWFA2FDfiq4TqO6w+J9229Qe/p+59Tiuw8Mt9wtd5uKKeeS2n8rXba+gMDJmLWZ/ZmdGj7fLSkfmuKKm08c1JKZN8nXt3PRoeZcbdyLXUyzOElML3wlgHBdZ7q230B19b1VUplYIhvXH7nMZXX8NLI4GZ69LKigdJvl3a5xoNZiNOxj5P05pieirJNw8Nh2HBtG8Q3PPS+eaMY0mxz4PpfC1jq/qEr2g0Xi0S2vQh22l8TZARnD+r1uWvufQ2ybdL2axWZaFajZ7T2pq5uOJ8hV94tUmq66cjCPnODXXeYwf9tSa0Se8T+3wZhyI8wqmd7vkOJ0/swHAHLMfFN8LzML45aX7RoXz9AwL/Tvpra533K33BNyzI0b3+5ofj1g3mFDqEp2unzzdUysP4HuhWOumv0CvJ3uRr71B5Dfs1lNUgqxycA62/9z5//qB+yD2qyEF878XGC+bVCZoYiYBM7y3MxQIvsb1d396uIF9nu47nZ/b9e4XartdfxTYx6xfwyHLP7FqhHOFpV6tVXDOH9no9tu9N+ZzO/0aCL9h2dSmITYmxNvIVm8/Cq9JptVq4DeebuO9+xTlP3W9Kf++733CnuPjp99hWZW/2j3bU4LD8p0WqY+cE9bCM/u6YytBPVOBl0xjC2MVqK2pLEe8lOyh/bL5TRyG+2/U6qvJN9WEJXPA22tSXEnuYAyO1ghyO8pVSVugkgoxG+c7AjGeRADcgAZtSJ3uJAi/iS0bcKLLtui5u0y4uwxSs7sBHE/neggkE7n5R/8PjELIn8xvgbkWDRmx/pGG+Eeur9VfoytAONJv6pPhi/TrrIZarK0f0d+5qB75TdwLxY465dPNtCUegXaq/s2brtLObRDVf96ypqNGeKHhk3AcASE5Gz2upRHxFqfas5EX4CoC7NIrRs5XgK0rqSB35wpodUVj9kWjUUCopvm7Rc1z4Jcv4CXwFwF1GzvDHdvV1ozYmelN/0d1iTYY8DeGuhEP2I/43UrlB+V+b1NdHjRmKZAWiDjHm6pZkRCpp/hdwOnUvnNPmkGtDKlIdkBUD0OzOOMCE/0Vji5ORqCA4qKWr0XgB+OaUDQguPqH5goo29f/JMZyBi9BJud7kuNmYMlv+i17ki/WRyOJ+VkQvf07qr+FrKnVA60UaGHwPy9WBH8772sPF+EaDn9mtUPyRNL5v0SRXInzfJ44Td4E8EIEGeghfggVEw+g4ydeknqCFOqpIAKH5WsRWoA6j/72ATJtlmtv8YsV6/auyUOk9vqikDuqt4fuxk/6aSll2w45735z5YVGmtU4ZypmYHYvEzzG++frL9iDVlkfhS2oFSYeBjnzNCrlRpb5hfibQX/gz/wXcr6fi5+XragZa7CDDpdeyfdmjfEWUb0f9bQRFdRbjBVXEQ62THe1z5wgr2j+K8oX46q0X61hVVKTUPd+54YcPH8K8NPusXKYf8NU/oJP+kqtF/V0eh5woKa7tXrfi9rk2utJ79llVDwWuhm9n/xvyfaIrUqJEO5DR+CrGV0RkadTqQn8ptPYSWV6EfAS+OoGZ7+h/TccpN1obSWRl4vpLn6i/8y7KNdxJyNfEV72YvxKqtEaov+3xcztfW5EP4yv7kPg5Fl+tWV3oL1bPi95pIL5H1V8V37fHz4avn7TPEVfdzhf1d37MlLgedItJvj3ZP0raZyf0rR39r0VV+SN8df8odF/BOW/nG79N2lF/sS/8vs0+H9n/xpNSHf2vjq9CUy7a7XPgf0maX92y1Qf938aGymkYvlb4mquE/i7+G/BNpDcM38jln+/wa4X/zOpOfzHGUlkzz1i//JHi58CZhmFfwv/WhgK+KuqLpEIS8VVF6W/QJ4KIa/662X25h/NXQf/X8KVuELlVU6VQ8zWVwNGCNz6l3V+wZUrKPhk9x68M3Q9K1V/FN6dMBEKi/u8BfK/G+AbKSL1zkaK/E6PBwQr1eE3gVeL+l1JVmNcYLIbJaDNtfnVv3l/A+oSomQHfPBa0WyxHFDaoPArWW9cWvdyI30AdsRIhxlKHG23x3i+mmT0sc9Smv48hJ/74vbLtw5qF8K8eyBc5ejpuwgqkEn7IK7pCYILuzhqF1Xzz0NB5oS7GJfIbYQ8gZp/B71pB/kp8UzMdbaDNpdyb9wedRoPuKwR86QUqFEv90fj8WSeoqVDwjnrTik3Fgv+N/YCRMMkUpiNS7x8lT0K9vv0+or+PMe8MM/6sv9+u/01g5YjSkgL1L9v45ulGcJk4ritTXJPVEQqgq75U3wvq0Y0JWUWlpjVAXwU0xJQ1ElJ3trRG20XMN1dC/b3ltpotykvChGspg60NtLk91aP3f2cVvJAvlmd/rdHTTMNXl6mjCPuPmAKb53MCk5jv9IDdw7bd1yH1HOqv4Su2TQc4rwPuVbpZkMKXoray4ihf6lkj5Ov1d7w38UJPFKKBoe1LvBdFGjhXCGOxQeoGlUO+VtMdo/tHoum6t1Wu0posxsK3Xn1+o/2J32k9RySf6S11+gHmGbPgMdmhrndf6vDgsKmeF+zUOfzJZHPgzoP49/AXrSQ2spKS5k4/zOQ+gogieLawN/X3OCQv9eNKOnlhy0rf/pKjPt9u7kk9kpXM8hXmDoN+/nBupG9/Sse8eQcx0dWEHLYyy9dyNrVxmlVa4PXtL7HLR2xvcpyvvAzzZTlImC/zZWG+LMyXhfmyMF8W5svCfJkvC/NlYb4szJeF+bIwXxbmy3xZmC8L82VhvizMl6Xn+Toen+4s8515zqc7y3xnqy/5fGfZ/65WN/iEZ5iv2KxW+IxnOH4W1XWOsbLcP7KrHGNluv87yxY603wd5ptpvptVdsAZ5ss9pEzzna2+5jOeXb4cPWear8O930zzXeXYOdN882U+3VnvH7EwXxbmy8J8WZgv82VhvizMl4X5sjBfFubLwnyZLwvzZWG+LMyXhfmyMF8W5st8WZgvy29L+dzwFXf6FJH476+va6+rTdzNPl/bTb2WH21tHV/Jjv/8vPLTTO//OKTxld3uNnrxsHY/f/z82WFRTo3mGHS9zPMdTOe72Gh8OnjFaXzb7nRXJ2h/L4S2/+a0+O7+2N/rsGh17dzwtdLtc6n0xyF8d/CF3o2uHNmNKN/D9Fd0yffKf3+db7V8buxzR7l8KN/KL/E9Lv09VHZ/3PgrfYlTPRfx84Pf5PuhW74X/zpDvrHafepL7vkRzkPf8p1d/z2+i//+Et8fp8f3Il5L0dp9YnMj4n7NzGo5i3zVkOBWq5X4dY8anysRvtM7+ruz0/hYUQ0a6Ld2Hn1UfB+pUCxfXvxs7XzEFvca8cHkF99oaPvgE+Gc7+//ELu7oEpif5dC3H1Y8l8Fd+8/1PTn7l5wMVzZs668uQLrRq+Cvb09pZhXglWpQdhS843W7ltQKNVrx4X+7WLzZAbPni1fXRDLdd0vsfn5BogX8n0CXz8re6wmqAGowc7dhuKL38FUX/7caEDUDZfAH6pBBMYPizDe2N0lCIiZ+O6r79YuLsGdwsfeLgXHu7t/ISLN9+Jf0HQvpuW7mrfepsBPshWm5U/vCrUIK1OsKtTa/Trw28vq+3rm+JqCdqVSM8638dGb/hzRX7tiTSE0G/5Mo3YufrLEEzgvO2WYg3xXPOsJrHG54S3CPziXjX9phvXwDkjUOgCyG7tvqMO0+wN4CgBDMS7AFbjgCs5ASkAI+z/7tPwiftlLdogEXRAw9wepOSylTbS3DGr3zVZfqEv4uekjNMuxBRniu1q9rafmY3ydRqXd/6I2Xv4c+UL6XF78YPyvDar8x7/478kH+iLQBPgSZCjhWUnrkPKu6sKqmWi09zDQVjOIHYJ7Q3z/gpZeW8dJ6a+J1/ATV09pqU1VUKNi9ZlZovlaMydRf/Us+UbKrcT1N8AY5QsgwSybuOqD4Qs4NV8HcF4Gvh+QL62IC+5tbcWyYBf3DI8bAAD+UXyLmPA/Lt1/o/iSAsKXG3AZ7IL7VqvuxkMzpb9m5q7S4dSWRDZ0s5vlJF/jmDPDdzMMKuP6G2Y1EnxtEzMtqnAL+OY/RvkCXMUXsEOrlGpMF4OQCRWtpFmj7iIP5Go+qSXQB7Lgjm8Yvl67/ppoW8RWTbSk2n05g9AJC4EFfMXmi2zxDU9/XH+ftPF9pMIny8TREF+9VnydBvyBc3OPIrJAf598WllZMVoeT3MY/dWJJTXdiS+63T2xt+/BJdFRfw3fK/jtSgf9pdp9eRNE5cNrO+BrrWaL70JYcCWuv0/+TfC93Pi8RXyhf9Qw/aNPxNdqVJDvDraI6O9iQ0fUAiWy7f2/Av19czDfG5rvlb0re/s/Ar4H6C99IuRU/cXafXkTRM08a+ebrz7LFN9IwaTmwXwhGCb7TGDVLIdSk4B28QP8ycMXEdPfjw9BKu3xVeh/Lx7AV0T0F/i+ufHjt/VX9ZB07yjifgO+J9JDOtP4OSx4drD/Rc9q+IIumxj6A/H941/4c/ljwv8Gl0iS743A/+5H+Br/ezHF/17Zu/jm4psOXjXhf72O/tcEkyqIEpE6nJovhF6VjPGFH/0sNX7+GOeLnZ2AL8E2Wo6q+3mxTB47pr8dbzy1628yft59E4FEih3jm6K/Iho/p+tvcCmrCDofUVXNd+FEMpRnnJ805iquv3mDMKq/Ox34Og1U4k8J/Q16UqmZ5d2I/0UWpqtL2m36R0HL3f0fV/Y66a/qH0X6v9iqrWXEFZEZjrhfzXf1ZN4+ctb3FzarKXzR34p7oTF2oAdkozn+4yUmHoHHZ88S2j5DarJM7Z6ADw70V0AGRLxK5QuOlHhovjRjT6WrLJV8snT+6o3yqMR3r4P+/jBG/z/68th9k9IyWrsPE1WRroPi65xI9urs+TrglYTbdN2YhX7S+Kzyzw5MUHR8rwE3DnD+DsZaTqOxRQ2Q72IDlfjz4uedf0P9VZtI2yPcTdjd/6HSznrGPvHGrLNyoHv7lH++ATPIRu/ivBStxPzzrrLJIKT2ahNtLWO1+2aqrwP369Bvh6WvrEzyJZfkolyLzoFu0EtzZ6GMDrjxySEnDLcXKM3XUA2Q7x/YAtpVgGygv7SJcrqB1vePDN8r+lYAcFd2Fu4zWLv6roGn+Fq7afob8MVV9vSqP6wO/d9oxzBwvw799i8ndm579fmN4JkqNSHAvFEvVjxINoh899I3kZS2+T+MqdVLgv6y6P6Azard3OUTm89O6zzy888JV3o6mZ0N5pthvuL0KiUz37Pgu2Ux3yzbZ4v5ngFfj/myMF8W5svCfFmYLwvzZb7Ml/myMF8W5svCfFmYL0tf8F05qaT+Cr+Mtgf41mT5pLZcKDPds+abk+qx4F+oXzd7iH4+8oeZ7lnznRhRnx3q1x0k/lD028Lm5utEA1sy3bPmu6R3PPi7fGtSjiQaCObbM3xN/TpxaBWo4KHXR9o+r9Df0oMl5tuD9jmx48nrh62RjMcCKzyQ5Osw3zPnOzB0VL5+13ztAtM9c74jJ6e/zLcH+keqD6NruNmtZrHVogG1Lfc7zneaX+3m17D9alVWaSDtjPqA4YcwYy3K1/YLanBAfpTp9ghfPcLKprFWyHdZVXVrzrvFpluMxGNSSjmsJggfjc6P8YU5BY/59hRfU7+utDxeKmFo5H615seB77hwxx03EhOX5O0SKXhphvCVpmSJZhi+uUJF+GvMtyf4ijnjNPX4bu1/B0Fl7SKNfHYrlpsaX+VGU/3vEkRsA8NqSZnxninfnB8gaMb4LuMHkG1WiK+XFl914OtvBJFVTa4z37PkOyBHvVT9nb9mkfKm8D1Mf5G/7vnOSo6gz5SveBgkGeP62/wOxefS+R6iv0LegbJXUuU3nj9gvmecvxpO1d+mLlpwdP11JAmukWft7ZX4uU1/v2HR5sov6e8rXJXj5x7jm+J/kfOv+V+L8xu9wnckPX5u5zt7u/v4WYnNfK2eub+g9ffCmPooJvkKEwsH/DRfR2rtVp1eay64Y8H55x6IrxJ8MbHhqcc5nO9RvrbUHGtDugSR5ivkhqpilFM4c5CctOkacJiv1SP394P6dQ7km8cRt9vCtHPI1zF8B+Q6qvBC1ZeqSNhcYZMWObKAvtnxC1WpQ2mm2xt8I/Xrnrp048hpusVyzP/62psKX+KDkXPYCxpVDlhnSWDWBmU19HchPcbbY89vWNZ0SX0mUxNhXbjkE9PJinbmO+tvD8RXhRNLMYkF9r9nzlfIk3u+XT5jumf//sHNkxpGsvCa4Vo8voz5sjBfFubLwnxZmC8L82VhvsyXhfmyMF8W5svCfFmYLwvzZb4nLg4/G5VpvjPxhyt+oX4dSy/zDd5fPYiPS/5K/TqWHuYrgvdXqxELg8w3U3zzwcj6QTUihe1zpviG7lePOGLJCN9p+hu+v3pwjKPrDPHNV+PuN11/Z54zmL7k66gxYbZ2v0/db6S/un7d4Ddk3/Ks2epLJtOHfMWmevH8zAtF23XdJvLV9etwdKhluxbWIdxgNP3Hd6Fajrrf5aLnuMhX168TbsVSDtlcCCz9xHfVmF0ND6FOKv+rxndjL1iVaBDVdY6x+ozvbFWZZeN+BeLU8bOqv4F1VfRIfrvKMVaf8V0wxHLG/XpB/Kyoou42y+ZqYAvdZ3xNUKzdr418Y/oLX4SphuQw3z7ju6qjK+N+KVKO6S/MsU21580qO+D+4is0MrtqhXxj+gsB9OC4uRi4h9Rv8bOjguKcCbPa/C8438lr2vvy8Oz+6//mKYJeWNO4g+5uUL9u+Zo21Bw99yNf6xH2gIPACZNWyzH9vTDerISKztJvfDGD5VTNl/kxS+WvIvXrXOV8OXbuT74QY60GpveW22q2xjCsCuvXEe58mcH0J18wvdW14EvTHRsci9Wvc68zkr7mC6FTRDlLDCBrfEP3y5JFvnnu+WSa7+wan/Qs82VhvizMl4X5sjBf5svCfFmYLwvzZWG+LMyXhfkyXxbmy8J8WZgvSwb5TpWzdj6v/GC+KPeJ7PzB1ZEebW0dXyGO//y88vPkf9f+3lnuvXf4qgEpzYP5LjYanw7ezDS+X3ba6+7MX9k9O76ns/fe4avHGR1sn0ulPw7hu9OAP42urPyNQ8+w6GhbD72AgtdPd7LPN84ZXz2g7DC5fCjfyvHx3X/TYcHFvUPV9sdv7z0bfKdj+nsMfD90y/fiX2fJ1+y9km2+U9Vj1t/Ff/uK76lXnTj1+nUelqgrfkW+g63WN4qlqbjZ91jk3PhcifCd3tHfnZ3Gx4pq0LiLfB99VHwfqVAsX178bO18xBb3GvEh4hffaL5X9nf/S5+7u0jlyhuYARNX9nZ39/cVLWpwZc+iBYIWRAH+Z3dXE/+5uwcLLu5Di5+0yt5egPsibWR3z4vs/dRHvp5F/bpJVw0XvOC6VG1j+br5YyTfAPFCvk/g62dlj9UENdiwrJ27DcUXv4Opvvy50YCoG/byh2oQ65mqHsruLoEV+EmatU+4Lu7qGUB1VwG/QTOo4W6UL37/S18i2IJWRbAXzRbe6D9X9IJg76c9cv0s6tfBIMGnOLZblG4RX6rREHPIjY/e9OeI/toVawqh2fBnGrVz8ZMlnsDGdsowB/mueNYTWONyw1uEfwC28S/NsB7eAYka8IuACvXr4i6Qe4Ofezgd2meBDfZI9eD/jxT7/B+8Bgg0tojZ5//Q1xtIH1e9YTYRyCnX1jxNvjPqp2HdDaH8r6qWQ3Un3QgDp1Fp97+ojZc/R76QPpcXPxj/a4Mq//Ev/nvygb4INAG+BBlK8bL4eYP0Fg4nyvcisbUUmFS+dBFYVgRdwFfhphV2NeOEW1+tlrPJ19Svu1AM4isiS4XOHDfilwKMUb4AEsyyias+GL6AU/N1AOdl4PsB+dKKuODe1lY8C2aY7Cod1ix+hHxv4AdAJ1Q0Ly2+Mqun8lWXh74KLv6V5qSyx3dBVwWOmGNd7Qp0N6h7hRJmNRJ8bRMzLapwC/jmP0b5AlzFF7BDq5QaSyaIFuRiA75eyJc+YGkXfPc68BWwPWMG2tYW1WfZ5Kt/1uR4Qn8R9oXxSMsnbXwfqfDJMnE0xFevFV+nAX/gpN2jiCzQ3yefVlZWjJan8b2CSK+k6e/+3n9//vdgvj9VwLX/Vwe+uL2LFF79/M/PG8m1V7PJ1zie5fGk/kLdyeVrUb7/JvhebnzeIr7QP2qY/tEn4ms1Ksh3B1tE9HexoSNqgZLKV0Nu099dHS935ru/u/cz7lmTfGGJiuFMZB3zUxuZ5Gscz3Kb/kIRjlj43MYXgmGyzwRWzXIoNQloFz/Anzx8ETH9/fgQpNIeX3Wjvz9BDvC/QeB1o6P+gs9V9h839d/Y2qfbQzqD+nWTbfoLH27lAP+LntXwBV02MfQH4vvHv/Dn8seE/w0ukU58RZxv0v+alml8L+6GvZ9OfPes3cjO2k9CJvu/NkXQFF/F9Fe4024sK/kxzhc7OwFfgm20HFX382KZPHZMfzveeBLR+Dldfw/lu3dYfAUfV/ZS+Z52ZfozqF83iCzdqP5azTuxG8F5gzCqvzsd+DoNVOJPCf0NelLtgW+k/4uAQv298SaWbT6QbxB+J1LXZtaust27P9JTPBnlCz8Pu7pfoLRZjO9yM173CvytuBcaYwd6QDaa4z9eYuIRzu5nzxLaPkNqskztnoAPDvRXQAZEvEo7BDSq/9HGdfdNVH81RnSv4q8o34Qa4tcbtAZmKX8qn53gu68uI5x/w4tasFN+M8xp16/DU94stor07oUiJKBVhtKN30560vis8s8OTFB0fK8BNw5w/g7GWk6jsUUNkO9iA5X48+LnnX9D/VWbSDsEyhlT3wXuG3hR/cU5lDje3d/di/KFkDr6XIbY3YMmf+lMNa16Ua0azWH/sPQmozqcfsllh6+6iF336/IXdZ/BJcebfL+kgG7QS3NnoYwOuPHJIScMtxc88siqAfL9A1tAuwqQDfSXNpFuCm/oHsuN3VBrFYN9fUdJ318I+V6Md3KwncpK7Rt6aiLke3HXM/P3rDOUM3l+QxweYgTPVKkJXIN6seJBskHku5e+iTbRC0Rbgyt6TltdvUTTK+1TVzr91rOthMvPP2dbmC/zZWG+LMyXhfmyMF8W5svCfJkvC/NlYb4szJeF+bIwXxbmy3xZmO+Jykole3tivoEsyFMbxFErlNuZM98TFVuuK626c/KPLz3yh9vmZeYF0z3KNzeqPh33y2lcTMk52XnJaY/yHRg6Rb6ijW/uBfM92cMa0RPaPgePxR5dnE6mNthmO9/VNeZ7svZ5JP79wtgvb2qu048bMG7XaeN7yoOEssw3qpjTId/hk+cb7MMuhDpdSXG/DvP9ZZldj6rNbTOVHz5F/Y3wVTUkcvER2Jsvme+vhq44mN3+7jSLqDjh2Ni8ip/vt1oYX4kWDElr0bL7Lpa8e3q7OSbixYVtv0BB0axfwJ5z7plN/dp81S9USR3FZgFLdjjPxaZ8hjqKC8qRnVlBcSrlfp1vcFjYYKGPzfXZ8hU0mH1wbN51x6zo2HZbnfKm616jKBoF+d6Cz6+WtdxyXVgn0jcWOE4fsDjwWfAwQKsVJChoTkopST+XYGIDt7xUkNKzHFwg43zzunTCJs22i8uqwN5pj8nODF994gYB7i3CF9Sm0Ke8VJq/Rp+TYyUc8yUA7jJcCctFr1m0mhG1mpAPxBzgmyh4DnIeALg5iTXy5oZoVUe+tOaGsbM7Ci1gzdLEcKkU3VlweWn3a7tFTw1sPPWqkRnhu6oc7iCwFaqja2qgLRnfqOvqaP9ru8jYw7lQwGM+wrc2FH5ODOPvqgBSL/S/mDFBR2ujEvsbsfhKqXGgpvnnemdlU0fitKtGZoPvbFVVK6MqHM1rGjl4wLwfZJ/jfKlKFqgtjB6e/xKtuSOkZo0r5goqeBKyEvJdwgsAZlCyqrYWja+smlyPulldnwovJmv+etQxM9+jyKZWCuKrDDGc5efoNAuVVL5UZBawtvG1pc6DIFJE2MZ3DpH6ZRUsE9+wDzaLHtoJECr3q/hOjhtTw3yPzHcjwtfUB8YOk3joj6TzHYeqdM0UvnlpUhUVBbuNb+051MMCu5yiv458/iBSetupehG+Yyb0Yr5HlQV9RhXfcd1hemG8ZQrfeQqkr6XwLUT0GCG38aU6WGC9U/RXrSxMEKXdb4yv068O+Cz5mrA0or/Opppld+A7htWcK531l/h20F+1aor+6vhZX1rWzLM2vv3bQzrT+FmHpRH/G4Swo539L3528r9OR/9LSE2yKqG/emePlAc2biPif/s3w3G2+Y1ZKpUbxs+rJsbpwNdEOxG+9uuAq4mj82nx89yQuRLa9DcwFoRRVD0rET8/qvZthvKM85MENKjfbnq/Ed3SfE0h0mIb35oi62v1xE/q/wZ8lxTYgdE2/TVYg/wzmeG8yYhjnXnq/071be/37O8vbFYxv/EF/nuWCM9jLhE/47kuqfyV+BbjS1lJoAhJyRm4RCZGLeFfjfKFOZankhjOi6j+5qWnCiE5hWhEYNwv7PMr/IdNbPZt9urs+Tqvka/bovzzveA86vv7TUhAF69TYhJq3iFut9V0Y3x1KsSWBR9J02clyteW6/4QKXoVu7mh/lqysDmqjHs0IjDuF8uwtSj/PNPHD2P1wv39QUzkx8+hfj6nid0hiqluqTsQAubcjvFFxSVLL+Ww/nxmRflac1Ki+3R8iTeUQv21ZqR8rpy2F4kIjPsFvrDTstXf0ht822rNDYwkG5X0gwBtVenMhWEet3HajKlZpe2hV+eBldDf8C0RFF85nsV8j4NvUvLy9qntXiwUIt9mXkT49r/0KF/hn+Lz7TL6vouFDeZ78nwhkXVqnm8h9p7ChQrzPQW+PSDM97j4futNvi3my8J8WZgvC/NlYb4szJf5sjBfFubLwnxZmC8L82Vhvsz3tKT/H3xhvgfJzLPYV3GHSWSKb/AQ6uB3/EtDqVkywzcYA6IHngwy30zxDcaAQG0V+mD7nCm+ofv9jcJWLD3IV5WoCx9CHRzj6DpDfFWZg9D9puvvzHMG05d8YXwehcva/T51v5H+tlotjK/oOUrR8vq3Ws0552vKHOgxIFiWjooMwicOFaPnoOmp49XqBqPpP76mzIF2v1CFzqFRgaUSlRETOIiQFLqfKwKeX75B9QUND6Hq+jSqlAb2gievKw+9zjFWn/ENqi9o9ysQp46fVRlArLGii6bYVY6x+ozvgiGWM+7XCwsfEVXUXVM0dJYtdL/xNUGxdr9UvySmv/BFmKK/DvPtM76rpoiUJkeRckx/YY5txhJuVtkB9xdfoZHZupQj8Y3pLwTQg0E9T+4h9Vv8rOsRmpcL2W3+F5zv5DXtfV8zm77r/+Ypgl5Y07iD7q7RX6h2Nd/n9bTPNV9V6C8InDBptRzT3wvjzYrV1/XwzzdfzGCFLxeaH7NU/irgO1h0lfPl2Lk/+UKMtRqY3ltuq9kaw7Cq6bpkoTXufJnB9CdfML3VteBL0x0bJL6qajea7OuMpK/5QugUUc4SA8ga3+y8Wpf5pvaRuOeTab6za3zSs8yXhfmyMF8W5svCfJkvC/NlYb4szJeF+bIwXxbmy3xZmC8L82XJOF/Bz0Nmmi8/tJFtvolyhCwZ40vlCJ2VlaM+Lzm9gsKUepyvqoc06bpu8WBHbN7RbGSZnoz+tZ1O8xCX0+KryhFOFlst9+BydZOJx9vnYZXWL7590i0z3RPn60Tc7+Q4DkmpHIXv8rUDtb0bvtPM9+T46iILqiAD8qUxg0fQ3wP4lh42K13wrd5mvifFV5exEooy8W0isaduC53jVNP446lm8Su+cLcJ9thL0d/7rbLTdD1L3Hfd72oOOuYv9tenxcpT2oje5v3KUyqZdqvltlrY9JxX0jpRvrqema6HRHxRI21AM66jJyq3gYXsQN1siqa8FP2dd7/Mu2DaqSFaABx6OP7Assdcd4yGppltNu+4TfeLjszGrXM/lvgk+ZoykrocodLfLzTu9xZitCvWFPnj5WJFzMNEaXm8VErzv2L5u3sbV7lriXnazFfLKXpYF3wS/l0Pt9mE6wRbiJJ7u6TLfTxnviex6SlzYnU9JOTrwOmnuma6IIP6NF86+99l96ulNRurVFIVpWbZsosWfIWaLME20TirmnhB/BzUVWO+xxtbGcOoPeDkeGm6WdR1c4xm4sB9Owiq2+LnsTt37lSo7+xZuh9sm00AfHsMC3gA32CbyPhCnG9YF5H5HqPMmMDGVAOeVF5WlYm9cD3U0EG3Y/xs/O1yMejpIErDd9DwDbaJfAcTfMPKecz3GPkmyhFifoNYXShCznEZvejTJsVGg0XrIP1FK7Csy2I5LcpnKfv8JdTfYJupfGfXme/xJ62MVTT1kMD/NpHfBVfHtrfcYgv7SxeKh/Z/l9UC0YRej6s8NpZXCvmababxtc+xAz7B+MpUezZ2GvhOkhktglLegbQD0p4/WH+vxRcMgt6Sbb7lfkNXPhjqr9lmO19n8xz3kE6Qr85umHKEyFeVNNM46cvBfJP6ixaY+NpFSo3YMf9r4vEE33Od4TjJ/q+KoI37pf4RqqxhYYIkVagwzte+G9dfzVe1xu+6SnQXfFfP9cscTjR/RamF1bUI38miLsNvaazof0WgasHbVOZVm6T+zl/X0bbuMQf22Wwzwlc3Ode935O+v4AZrKAe0uS47uo2YeKpR7mOQSp7BcknnKFUm3RZ9Yra/C9WM2yS2oO/fRDRX7PNCF+4FoRniXNeyfKE7w+uVu8E9ZBUfvK6Sh5Tvsm9784XKWwqUtIYkBeb1BNqKpU2+nsfIm3i7441x7DlLZ2xDvgG2wz4TsIc+HLPY74nxxdirOcxvhRBz6u7QLbrfnfIcT41t4XMxHLRi+rvvLnvMA9hFfneh3eAeWifg22GfEXTjXSBme/JiBMpRxiZq5QKH5sVwRTJtL6/0EnrpsNlduxWU/tL7QQ/oXMKz+dsnoQO2XjTXrj8VHUP6O9JbJUssOOyfp4931cn0vFyb1tivsj4zt4+n4w0zY0llkzydaAy+G2ml1m+LMyXhfkyXxbmy8J8WZgvC/NlYb4szJf5sjBflvPD9wGfzSzzFQW+3Z5p/a1xEbNM881LVuBMx1e1NT6fWeY7McrnM8t8HckPrGa6/+tv8AnNMt85zpNkmu/EsOoJcxydTb45FWDNcZyVTb75An1IjrMyzdfnREc2+dqS7fM54Gux+mbUPks+oefA/7Jku3/EklG+A8w303yXhlSYxSNzs8lX3wCucZiVSb5ClumT81fZ5JvT4bPPfDPJd25If7J9ziLf4PENzk9mku/SsJ7wh/i8Zo+via4sS/JjOlnU39cBaA6vstn/VWJzFjrTfFmYLwvzZWG+LMyX+TJf5svCfFmYLwvzZWG+LMyXhfky33RxVvQEj+bOJN+81C8GzY3wWcyi/m7q5zVsvp2fTf9rqqnMsQJnku+EXsvm4fqZ5mv5a3weM8h3yaw1McznMYv+16gtP1CXbb78QGwm+daCx9h13ckSn85s8lXjfm0et5BRvqonPCC5I5wp/xuEzaouQ07yuLIs8c3LgtbgpRG2z9njK2pyLcrXEnw6s8R3qXDXi9pnlozFV2vx+Iol2/EzS7b7vywZ6x8ZvqYywx2+T5gpvkZrddnnPD+ml6342fDVZWM5f5UxvmYtXdcsx3wzxXdC93pNXTOb7XMm9Xdm1Lhhzk9miO+Ur/yvMG8dzPFzdhnim5cFLxpdcfX2bPG11/VDObaxyhMcXmXK/3bsD7Nkki8L82VhvizMl4X5sjBf5svCfFmYLwvzZWG+LMyXhfky37jc5Zv3WeYrzO18lmzq75Z8xmcry/53hqsgZZpvnh+vYr4sfcs3x/Y523z58chM8x1gvtnmy0U2Ms13gpOY2ebL+pvt+KrAVWKzzNfx5Qs+X9nlay3w+Pws883L12ygsxxfcf6K+0cszJelJ/ly/irj/V+OnrPNl+Mr5svSv/1ffn6D9ZelX/lO1zi+yjBfIXURb5Zs6u/6bT5Zmfa/LMyXhfmyMF8W5svCfFmYL/NlYb4szJeF+bIwXxbmy8J8mS8L82VhvizMl4X5sjBfFubLfFmYLwvzZWG+LMyXhfmyMF/my8J8WZgvC/NlYb4szJeF+TJfFubLwnxZmC8L82VhvizMl/kyX+bLwnxZmC8L82VhvizMl4X5Ml8W5svCfFmYLwvzZWG+LKfB14n8jS94wKe+//kK38OPWjm5IC/5ZZUZ4DujXik70fZmWb/wkk99//B1ih3Ud0MtlhuJBbLCZ76f+Lqps3MFPbGUeLWsI/nEZ4Dv3JCesKXHfDPHV4RvDPbXEkv4xPc/33whmFwaii9K6DNLP/IdCPtAuUQEzfFVr/F92voimi4a3PvuN5zR8p6qCbtZnCa+T90WquX9Vtlpul7E/cZUWdnrMp/53uK77F5bdpHvoOu6X2GGe8sl3kDdLSJfGxaMw+e8+2XedUFBa2uRgMpjvj3NV1y47t5tApbmuHULu7uIsHkNeVcAMXIds26h2orl7+5tnIgEVckOL/PtOf97oXjdav7v9s7fN4pk2+Mve8lL2lS3x2CCbWHGwUvQYCInbRt7YHeDMbsYwU3G3rUtdoPnFmYcvGRGYFt2ZIlkAgcrAUKdXYlFSJNcnu/elzixtIkD/pdbp350V/8Y48UGpovv0S4z01PdM65Pf6vOOdV9psmnWk6O1Fm7zkXN/5+eIMYcIYn54J2Q+j8dwbdd5EqT3cT8O3h8OT/Od5S0e4djJJzTfDwmDZN/5ZKGl/gLZ5rDpRdm1irFt4Xs8yDydZzZwLlwQ2EkDQu+7yRfAf7CdXqXP5vNME1lKH0f2efB4zshHqYnlpeX71xL9EuPxPfCJH9jSdC/oSbZfvqdXUD8O3h8byg/mux6ot+Yr3hD8L2e45vxrzLTMWxw+E5P/MitIbleSOmX3viBmii+iI9KyFc9GPo1518pccV3Pjmq6yO/URK+E5qv0u9BX75TyapgNj8ZIj4aUL5uLUjr9851Hf82M3wNqFOZBWD4V4PK16Hk5N8M/V6YDByRv+KJLefXwJh/jUnXmIqlfwW+A8b314PaoRDodO3wQOSvlH692uTBBPH9jt5o0PrD5KHEF67F7lV6PMb6/sDxpbhIQjpQ6wtKv3zZaHJGrB/xVYV/yQc1hk+N9Zl+wXfwxmcjPRH0ee0FWYxKtmF6eMb1GwPN9/Q2L92q4Wp2uvUfYwK2gK/ysDqPsm9MYYXBBr7Oqvi3nn/j3mN0vQV8YeALA18Y+MLAF3xh4AsDXxj4wsAXBr4w8AVfGPjCwPdU5qHnreabL2kHs4hvvYrrc2zmGz5Cz1vM18X17SXkO3NqaNl6hbAy8N1pn3p4bqPjLebrYXi2mu9wFf0+8Hy3XzW9KOJP2E60yR8qr6Jo5yl/co+HthW+xdvZdB5Gz3lLZzV6ae46hel38PlGUXNH8H0YRRFHepE/RK+UjC++4IyjV25EYKO6bJG4V1fQ74M/Pt//MVrmfL3oiXOfU2QzO0+EB6358ncevrz9XJwJTvSbsec80t1l4Bu1Ged7kWvWjYz51+AbBReJL///4XNjz8zd3rAB5esQX0EuahbwZRzsRa5bGptvvwTfsvHlyH5ynPu/9ePrRW2HNeWbKb4h+JaBrxxyd17yunXCfcrrV97eTQ8Xod/S8f1N+dFk7UL9BjHflH7hX5WI784LXrbubvH8GxTrF3xLxPd+HPmcWr9YXigR34d9+fbV7/A4+r00fCn+TQ/Y/OHhifp1UT6nPHw97juzTaFkzjAQfrUXnahflAcuAd8dmW2mJ9vy2cXoFaUhb0cvou0XIn0VPS/Ur9NBAnrg+VJUpAQcqUD3vlhGYHxRwX1BSUuDb0q/WCAsw/icWPxb3LKSHfvgb3MzHxdwlIjvX7dFeNBW82Uo4G4136KSdjCL+MLAFwa+MPAFX/AFXxj4wsAXBr4w8IWBLwx8wRcGvjDwhYEvrER82Y9f9E97/xV/+ifmO0o/BOy4tcZJjdzt7e1z+8TL74P3R6ktI91Tgnif2VEcrvvR32Rk/6RPz3/PMvK9MCEon8z3Uq/XO/kw3nLgOF7zVHy7QXcvw/d0VZi63cyO58Q3OOX3LKV+BV/n5PGZzcx+gO+lXttxLr0+HV8n22/9RkiW7vmZmeN8h7Oz8u336QXfs7T6/aB5H+T7+gx8+9lxdnw8/gT6PYfvOYB89S+0j54X39/5P29Oyff4qBx8xed7ZeTLttrnq9/fe39Bv6Xiu/WkhHwXWuRQ/Vr7Q+j38PCQXo7+QeQPzUnP3e1tGnzZvV5P/rmrvd5d0aDXexoQ2l5T8J3d7b3lbhbbrPea/D9xiLfNzIQp+o3+uUw9vL+/f5Tp2S5tHznudo/fq0Zqnz3dYj9Qj9+bfC/zXeTX/77bPVJb3qvHP+nD9/dpJ9FgfyT16e/lMUeOeNPA+J6yq8rFd65FlLxarXZAfPnjO+I7KUIlkwV3nMlz0nxdek20KuoN0YCG5tcP2oLvL/z1W97+ba/3pkeTMpMbUt7Ue82Xeph1FQrTTyYEI+pRKFTKVPG9LN8QLfdNvrf0G9RCHPVYOd3H8jXfztRBZdP40/Uxb+3xJ8+M78m2Ws2S8a23HtPD0mTg1SaEY3pAfFmtmZmQv+012S8NQ78/OGyXRuEHbxzxRqUXODff0NT77Wsx/7pN5yY/A7xeu8L/o3d6gUdngvsjVf8wKR7pEZKl+VLAcvmZMT5LMAbfWyRCsfGIgzP1G8g3nON9hx2LYx2JnURLeUqM7H+/T2eC0rH+9GN1zBEONx0Se62NoFR8vda6+MIEdVrivEN8HYqCp68bLXdf5+df4UX12sYL8Xjp93j+5W/y9i7/jyv7wd/5afKavj63amZyVTNghu9+Zv4lQHKj4kvt6emt/YL5VxxMH/F4PzmmbMkHcBrw9e5x2/iY3dwx3dZ6mfiyrQ0x4DDCqeQq9OvcuaZJ6+G5UcCXRtvdv2u/SvPlLTRfjpS/8t46Lm9Kwzm1qmxvp7Ngf43vrb2Erwh5R545SpkFPli8UUc4WsN8y74YHLqZTxd70Nlw61n+mPXWkxLxrSiHwasFsf8sqZJ2Dxqm1xzk+VaI7wPlM1V6P2gd95ppvq7gy+gQ7tuibFRfvvFLxXdkX5OV/4rup43JwJ3hG58isY73YmXzZ0fJIVJ8acOtonNmpVUmvhtq2CG+Kf3yF6xmzDVuLxsfebvSW+L+1aZywH4PJN8HbTFYc8e6Z+jX6/Gieau9PsFPIV8+hErvWPOl7laTpOL7/vv3twr5fi/dKc33ss49JoO29qYyfMVz+mdkryAnVikTX1d6V9JTTumXb3EnzT8ry9fr9bZ336r46I3aQgrlaL99Tfq91Hu73TP0Kzxukb0OyE6jX+HKBgZf3t2qxyVf4Vh3i/jyd953k5nVGKdPzbdIv97nmIDPz79akdOJ4JvSL3egR284J+j327eBHJ+FkuUsvipSk2/4JEt86cWDlH7vkv0V/0rEoqb/zN+XMXCiX25/yv1SWus+S4/P7CP0+yyn388TIZ1jfCRDdjc3//LJd/paYdZKPSNn+JKeTHvKx/r2reDr9ThfMWOb8288hef4dk/gK7zYhO/x3kiar3EIU2sCZ5pvfv4t5nvS/Pt5MhznyJefkLScZ4S7Ur/O0jXTfeZwmmm+FBZVNN9fXicqp6m3xzcIxZv6Zb3mCcnHvnwvp/je2hvZK+SbYSGd4D1jTbcfX1boP2u+af2utj5LhvI881cyZKek1VJKvxduHKRwaIlKN1iGRZeyfCuK74Oe0u+uod84ksrzzUagBXz3dMRkREoZamm+gRkKGUdIIuVukjMxP53F8W9Wvzc/S/R7zvnnSmuNQ51wZP4q5js6WUs1+4XPt3VBXEbCD0imHCfj2xnBpxzWL3J85skuGqQbXMNm/Eujd71ofDt+pjNIGb63jnReQmcnLu+rFoqIiFMDKdPj1PhMkc+ejHKdY50LO5LkVf7qSB+CpT5dfJ2jgvl3ayMoH19nlVP7rnZ4cDhBbtUBT0S/EyFxejmJe7+7UsO7vV3hHf+++ztHSH608Jsf9N6KBpfeqDXg3d693oO3hn69+BDZ1RueOn6vMsCpDPRxd/+4u6eb7Alu3WQfuaygssn7x6n8M19M6AqMI9043yyzyXypQnpjKrlMRzo2P502yPxzRr9znyX7/EnW9w9qE6OCL5lwrGrX0y2+FasHkjRHyPjqUPCgIRcaaFbiG0QD4usRX2pH4o3169T1IbJOAA9xLutMv8mXHatFArEqIJOH+zHArnrYV+sJTjcdWT27rFvsGWtR+jFemaCzKP3p6rMK49+S8nVmPuyK6bNX1brj/zLxZFaNWt5MfgeW3tKvSl7fce9y/M5lpdtnesOf6piqBct+3eyelKwq/jTmfGhD+fmWxQrW9a2zr5gv6wbgazHe430HfC0enfPxMfhaZLe+Bry4vwx8YeALA18Y+MLAFwa+MPAFXxj4wsAXBr6wEvKdbQzUHyuvGlEXfrBl8D2jzfkD9UOwrvjVQ1aVy/qePw6+ZzIWjvf5ndCfv8iVE/NXxUPnkfx2W/4a+J5JL34KY/25fuZFH/H7sMPrZ/466u5T/bUWr4Dv2cfD2G6fke9YwUZvmex0B1i8qp50lG6Hr4LvWayibvxSV8MmfD9qfC7kO0X3l/nClfvQBeMs1CfVlDrvhsD3bPqtpoRr8P0YK+Rb3+5UZX2GztopzzbyrOS5MITx+Uzm+Z+cL988nh50+9pUolal5CnwPZv/PFB857/JPl38BnzPxpemWW8ninZ2AuLr7kS05d6rV7/J0TWKNs0dtlpNN6yK2KVKb3jrPIgR0cyqvy75LvgbqZaK73DLr7bEO3wzqXOjErbrflvsIY7lhIlPNyVPlUXER2czwdeNyARf/viSb+EPgq94xxR16DdC4S0t+r5P1cvGF6s+HcTlr0MCOcyfPDJbKr7iPv5xeQy/Gjis2gnHw3CM9uCHWKOTrZnV/Dz4noN+nZnbL2fodrHbnOXtiLbPPBR8b79wnIdmpMQ629VlnybuJ878GGEdDzy/wXlX+SOJLnzszFWNlpoVm+k8mqFPG642WbjGP/qK6z+qjIukBltoJE6V4WqB79msnpl/OdtKJJ5Kvvd/y82RYZtVJTNyvl0SMY2rnJiIajw6Ywi4bpmbfylnMTRGauVtvWoyLHtGskXxnRoPwPfj1dvyH+f8Ky/FN+dwzVcDoiYSS1xvri/BMUJK86+AKWSnWub4Ek5+ajA/YL4j+K7p7JWZyVLIq2vg+/HRkd8+me/DKJuToEF5WREMGzKA5uCE9ojv0Jh2e1XLHF9fDMXE15N856vNfnxZx/6F0U84Pi93qifzdTPuM4ckI9LO+s8//8yVqPXrar5TY7zqlYhuOlcK4yPm/8h39Q39co9sUzI1xmfJd9i/2wTfsyg4OJEvxUcv0vpVg6zIOrZj/QoexHdRvHHF9I3SfD3RgOBq/Torvr9ePP/OI79xDvHRCXwd7356pUFR66xTWeemoV/Fd2qc3mj058v8p9TC0C//kA4N2oiPvgBfx9l5WcRX+0TVzPg8NJZpWTj/ytBM65dWFr5J3hF/9DjyG58mP5nje1sM0OxpYELSA6fWr4hdY/85nY4s8J8l31i/amHfSGCqhV/kJ886/8rHiy9O4Cv0O6UupVCqVPqK9euQJ744bjpJef1+Y54aiX4DvdFYzVeop8D3bHyVfC5GoptzfHeaDtsR2p5XF2opai4fS73HiX6dzpij8lc8OXmvkO/imPiQ4WrguO1Ev6wVOEzEwIn2mRqqsT54NtPrvyx6RdNszHdH5p1ZxLfLEHhR8t3yqy0pML9FVWFj/c75G+HWmHCGWyEN1rrlVFw/dpg34S29sNryryb69Xx/Q+xhJCiH1ffC+v7ZrKIV81CsK8R8I7WuQOsLmyoSbau4SHa9F/rVhqFfDny8MiZTEv4To2Vy/Yaj3qn7/nhgzL/1UG6PR/Bkesf1OeejX8eZ7VPSTpery5e8y15TNZvbpd/BcoXtloO0bGMhQ79n9a82BymBL6dhOVOL8yGEf3U2mx+s69vVUqLyrjzfb4Lv2RRz79FA/bFyHlY5b2+j4YAvDHxh4AsDXxj4wsAXBr7gCwNfGPjCwBcGvjDwhYEv+H5GYz+XuvfuBuB7It7QL/Mtmsyv5r9+A3xjm/O3i9/wfvgMn37zzCi2/dwFDO7G18b3sP9lMJk7vHbilrejz/C3d8ZO37ZP9by5scKGo//6ivjWEpksZ4az+XQdu2gg+M4W1cTrU72nkqtRurLG/7mQ/GC595P1fGNq39UyI6K+J2g2y/eD47OXHRRmT32xXNyyz/g8H9dq+Ri+LTrohRvxFH0w8dXo161l+c5LviwKMnw/aPPZr/zB+lenbrm6HVa3n56Ob26zJ26rSPR7p2Y1X9fQr3cwKfkmFNUdfIPFN66PdRq+ySXyXpDM07F+f61J/Xp28vVotNKinZ5siqdeK8Y4VXa+yS0QbKsdT7+xflntX/LpymMb+bItQllr/lr7g7TccBTfDe1myQqQq1H06tVzwXdVFEDzdkTBO36A+9Gr1JDuhv4GP2SlFVZbNBJ6W36VrmrO1a9LRlu+h/y4BZ++TdxyuCV3EBPmHMU59XCjafAtqJ63JUo9uK3AUcSSWxAXxHGcrYbULx+s6NmPCvVK64mFfFda5CbV/lbTE698cFs62JDdc1/XsYs46aghbzwTPf0w0s+UhX7oy6Ip8gYz8aSZr19n7uH7V2WsLXaJWw6pW9Tk/WvfyNod4wbffPW8OV09b03XXYpvIVYA5fTLoR7U1MSrpKzwW8W33hK3CtRqTXZwzXS16vpslvplM9FPovgcZ8l26NbgmRlJNXrisB2DFpVgv7lOe8xfETXxuJ/tUU9n69clxktNr4iKd/7V4Oa40ZLN1AVfUfY7FDeQB668d0XxzVbPYxwu3WVOdzCpIvC6BG29JQfgijxzL9Ru8GDB5Mu2NgLL+GqZ1q47ztL1lCu9Is9m1snMv1zED5/LLeKW3SjTJ8k92sb8K2/MT9evS3sBxCKuyp/Mv5W4QJqopEiMpUOv+Waq51F7fSxVbXhYVteKR6SVR4pv4Hi1wJyKvda6XXzjaZagTt9I8ZUT81yoao/FfBu6YIN0tVjW4RquFvCVNNL169JuAIkw8ZkyfOnfmJz0lzRfJ109T5w3osBH2FZ1PrzQf2yKU06/AiqTcUMcKmmJ28J3WLvJ9Hdm+Dqs9Yju2ldyNP1nyVeRjV6kBezqkocm3yGTr6pflzbamKRCM3ypcBLRE2eFdKMU32z1PDFQdAjs4rg+hRZoch/Wk6vXkt+X4qMsX2euFVjFd93Ib1zI8BUDmbfq5/MbFw39kn+VTu+F/ngzxfdmy/cNvrp+nSHehdD3G8bd+1m+pEiaRitVXhtvYTyv37g60/wYP7bY2/VVXFTxN8md12sKavqVULN8Pbv4VrQTVaTfequdTJ399cvjoygVWKjCDTFf169udAy+un6dmW1sbQu+a/348jmXNglX3B/P6zeunicSl+KU9PSNzbJlRQ+9c2o5qUi/fBC3y7/SIUGBfrU/MnTlZP1yfUaZlYZVKVfFd348cIZS+pX164wR/Ykcn/vrl7tKYcPhr2jPu0X61XzHdPW8YVUnRMdHOrxV02+hfr9MhPQp46MtOQPn9Ru7XkMf0K/woTPdMucbfMm1zc2/OY/sxPmXO9CiEFvy+yoZ/bqp+Vce4pH6HB3/SnhMj8AF+v1CGY5PWn9DYszpl21p16sgP5nRL38mRvL6D2YMHPOlbh7K+s/q05/GzpcIYq/24+tVxQ9xGQVm0/qNq+fFv8Di+YGqX6vzV9KDjufhvH6/jPf8ifNXchjO6TcZqXSFQKXRIv1KvkwOiCzmoLREs6GKj1L166iFqLk0VFXxURJaxSO1Vqy/IsD57WL9xtXz4kPw99XzeH3Bo2Snnn7z+nW/TPT7qdcX6np9wdSvm4xUusJn9JvDCvTrvqRcpXgmfSbqwDlZ+GpclKsLr+jfAU3XrxOu9jdipgwkaY8nn9i60TLh25EJLyoZvtLM6zeunsf4XM6ealG308sOJNCtdj/9LmwENvJ1VoJEv26tJhLRLFlbnVd8b0fbhFHrV/7kStOpRHz7K+UXC9X61S0Zmrj+RniF6ptthBtiwE7XryMIwtPlwt+qdq5KRzpV6W6uFfpijUIpnfvJ1ZD2WVR+dL563jxVz1MzhDimuaw019qMA6BYv3foT+aE618m+/zZ1vfpDx5VfA3r6B+/kMsIWr8VxVesL8iBOpS1jbZEdToZ95Bn7IX+uBM2JU+jfp3ww8TmFd9vi1HUk3Fw3DIpfTesZl5VCVxfv1FQPU/WwhO/XygHaPP6jYVWHADF+j1QfL+YfdnrJ7V+HfZT8fgVb2fqMbmcSZaro2p1zNyQ1K9rJpsDs0H/Gnhev/XnvtXzzGVhtjVY1aAGgO/i+E9OmW22Y5Y4XGiDb8bB9kt+fbsZbrNWE3wzdnOr1D8xtWFe5sm2HfCFgS8MfGHgCwNf8IWBLwx8YeALA18Y+MLAF3xh4AsDX5htfBvoWJv5Zmu43Wyio23imxR7k7XrDq6jo23iK4vIkNUa4Gsf3+ROuYMGxmfr+KoiMol+YZbwNWu4GfrNGNRcUr6pGm599eu1ALicfFM13KjeZIP0+93hIZWvY8KX/vWdWb8OVia+6RpuzlKtJgqKLqk7rGrvaMB+9wVvhgXfs1imhptX+ydH26BCcd8Jvneu6Zue61+qGiP4frxla7iNThJOMVSPCr7yHmCldPjVJeObq+E2PRH7z5IvAR/V1RjhY5WMb66Gmyg5aeqXtDutMlmifh2sRHxzNdzuXM/ol25ov/POSQ3isNLwzdZwI3cqpV/ynXW+Q9Wvg5XHv8rWcBN8U/pdusZkzVxESGWMjzI13O5k519eZMWdVFM0Mhzl45up4bZ0I6vf0cnRG/CeS8s3W8NtknIcJl9Wm76WCB1WNr7pGm4uZ7uU4uvUKDtp1q+DlYpvqoYbO5g8nKTxeWmSJ6JlhlJkJ9lTdHtJ+Zo13KhenVg/WqIabsKxmq6hw8vNN1XDjcFJto3vQNZwA9/z0y8iH7v5bqNLrR6fYeALA18Y+MLAF3zBF3xh4AsDXxj4wsAXBr4w8AVf2NfK10PnWc2300Dv2cx3ahy9Z/X47ONSK6v9q8Wr6D6b+bo+rn+1Oj4K19B/NvNdvIL+s5nvMDxoq/lWqvIRl7TbydeTDtZiFX6WlXyZL5Tb8RvoRzv5NsDXYr6OBLtSRTdayldmKDH9Wq1fmN3+Fczu+AhmKV/XR//ZzFflJz2Us7KT75RcAJ7HMG0n386aeAhxIYeVfD3lPnfA10q+enlwCmGSlXxDOTzz9SN0o4V8h/Wy4PwYutFCvh1daTLE3S028q3rJ8hCWxofSWMIf63mCwNfGPjCwBcGvjDwBV8Y+MLAFwa+MPCFgS8MfMG3j93FKpHNfJmPu7it1u+2/wi9ZfP8O4fLrKzmW0G1HPCFlZbvMMZnu/minKjVfIfA126+qDZpNd8pJDHt5gv92u1fVXEbqM18vdB/jP6yl6+z4MODtphvxd/EAG2zf4X8FeIjGPjCBpIv8leWx7/wnu3mC/8KfGHljX9x/Qb0Cysr39kO/CuL+TIfZcys1u/GD+gsq+dfGPjCwBcGvjDwhYEvDHzBFwa+MPCFgS8MfGHgCwPfr5nvMqqZWc03xN2gVvO9F+JyHKvn32FcLmk1Xxe/6gu+sPLyxfhsNV/crmC5f4XbFcAXVl6+iH+hX1h5/SsfCUqb+bKOv47usZevs+IjQrKYr+uv/4Tusdi/gnoRH8HAF4b4F/b541/Mv+ALK298hPV98IWBL2wQ+c7Mw3+2mW/ot9E5FvPd2kTfWD3/wsAXBr4w8IWBLwx8YeALvjDwhYEvDHxh4AsDXxj4gi8MfGHgCwNfGPjCwBcGvuCLjgBfGPjCwBcGvjDwhYEv+IIv+MLAFwa+MPCFgS8MfGHgC74w8IWBLwx8YeALA18Y+IIvDHxh4AsDX9gn5ovfsrLVFjnf/8QvhVprHf9//uO/fPyWs6Xm+f4/iO9jdIWVtiL4/p/v4+cWbLRV3/9vzvf/fZit9r+c72GIfrDUqoec798O0RGW2uEf//g3HRBYGnto8t4AAAAASUVORK5CYII=;" vertex="1" parent="hYdmPjtUIXpwZ3_l2GcM-1">
          <mxGeometry x="960" y="310" width="343.83" height="592.21" as="geometry" />
        </mxCell>
        <mxCell id="hYdmPjtUIXpwZ3_l2GcM-3" value="" style="rounded=0;whiteSpace=wrap;html=1;shadow=0;strokeWidth=3;fillColor=none;fontSize=20;align=right;strokeColor=#d79b00;" vertex="1" parent="hYdmPjtUIXpwZ3_l2GcM-1">
          <mxGeometry x="980" y="340" width="170" height="20" as="geometry" />
        </mxCell>
        <mxCell id="hYdmPjtUIXpwZ3_l2GcM-4" value="" style="rounded=0;whiteSpace=wrap;html=1;shadow=0;strokeWidth=3;fillColor=none;fontSize=20;align=right;strokeColor=#d79b00;" vertex="1" parent="hYdmPjtUIXpwZ3_l2GcM-1">
          <mxGeometry x="992" y="388" width="148" height="44" as="geometry" />
        </mxCell>
        <mxCell id="hYdmPjtUIXpwZ3_l2GcM-5" value="" style="rounded=0;whiteSpace=wrap;html=1;shadow=0;strokeWidth=3;fillColor=none;fontSize=20;align=right;strokeColor=#d79b00;" vertex="1" parent="hYdmPjtUIXpwZ3_l2GcM-1">
          <mxGeometry x="1020" y="808" width="200" height="20" as="geometry" />
        </mxCell>
        <mxCell id="96iDGMtUf7d-MPCBLlTl-4" style="edgeStyle=orthogonalEdgeStyle;rounded=0;orthogonalLoop=1;jettySize=auto;html=1;exitX=1;exitY=0.5;exitDx=0;exitDy=0;entryX=0;entryY=0.5;entryDx=0;entryDy=0;strokeWidth=2;fontSize=20;fillColor=#ffe6cc;strokeColor=#d79b00;" edge="1" parent="hYdmPjtUIXpwZ3_l2GcM-1" source="96iDGMtUf7d-MPCBLlTl-0" target="hYdmPjtUIXpwZ3_l2GcM-3">
          <mxGeometry relative="1" as="geometry" />
        </mxCell>
        <mxCell id="96iDGMtUf7d-MPCBLlTl-0" value="Initialize value of state" style="rounded=0;whiteSpace=wrap;html=1;shadow=1;strokeWidth=1;fontSize=20;align=center;fillColor=#dae8fc;strokeColor=#6c8ebf;" vertex="1" parent="hYdmPjtUIXpwZ3_l2GcM-1">
          <mxGeometry x="670" y="328" width="260" height="60" as="geometry" />
        </mxCell>
        <mxCell id="96iDGMtUf7d-MPCBLlTl-5" style="edgeStyle=orthogonalEdgeStyle;rounded=0;orthogonalLoop=1;jettySize=auto;html=1;exitX=1;exitY=0.5;exitDx=0;exitDy=0;entryX=0;entryY=0.5;entryDx=0;entryDy=0;strokeWidth=2;fontSize=20;fillColor=#ffe6cc;strokeColor=#d79b00;" edge="1" parent="hYdmPjtUIXpwZ3_l2GcM-1" source="96iDGMtUf7d-MPCBLlTl-1" target="hYdmPjtUIXpwZ3_l2GcM-4">
          <mxGeometry relative="1" as="geometry" />
        </mxCell>
        <mxCell id="96iDGMtUf7d-MPCBLlTl-1" value="Value &lt;i&gt;only&lt;/i&gt; changed through &#39;setState&#39; function" style="rounded=0;whiteSpace=wrap;html=1;shadow=1;strokeWidth=1;fontSize=20;align=center;fillColor=#dae8fc;strokeColor=#6c8ebf;" vertex="1" parent="hYdmPjtUIXpwZ3_l2GcM-1">
          <mxGeometry x="670" y="397" width="260" height="60" as="geometry" />
        </mxCell>
        <mxCell id="96iDGMtUf7d-MPCBLlTl-3" style="edgeStyle=orthogonalEdgeStyle;rounded=0;orthogonalLoop=1;jettySize=auto;html=1;exitX=1;exitY=0.5;exitDx=0;exitDy=0;entryX=0;entryY=0.25;entryDx=0;entryDy=0;strokeWidth=2;fontSize=20;fillColor=#ffe6cc;strokeColor=#d79b00;" edge="1" parent="hYdmPjtUIXpwZ3_l2GcM-1" source="96iDGMtUf7d-MPCBLlTl-2" target="hYdmPjtUIXpwZ3_l2GcM-5">
          <mxGeometry relative="1" as="geometry" />
        </mxCell>
        <mxCell id="96iDGMtUf7d-MPCBLlTl-2" value="Reference value through &#39;this.state&#39;" style="rounded=0;whiteSpace=wrap;html=1;shadow=1;strokeWidth=1;fontSize=20;align=center;fillColor=#dae8fc;strokeColor=#6c8ebf;" vertex="1" parent="hYdmPjtUIXpwZ3_l2GcM-1">
          <mxGeometry x="680" y="780" width="260" height="60" as="geometry" />
        </mxCell>
      </root>
    </mxGraphModel>
  </diagram>
  <diagram id="GEvmF427H7pBcRBxRWRG" name="05 - hooks">
    <mxGraphModel dx="699" dy="344" grid="1" gridSize="10" guides="1" tooltips="1" connect="1" arrows="1" fold="1" page="1" pageScale="1" pageWidth="1920" pageHeight="1200" math="0" shadow="0">
      <root>
        <mxCell id="Xocx7TQtpYDV8lTPMGsu-0" />
        <mxCell id="Xocx7TQtpYDV8lTPMGsu-1" parent="Xocx7TQtpYDV8lTPMGsu-0" />
        <mxCell id="Xocx7TQtpYDV8lTPMGsu-7" style="edgeStyle=orthogonalEdgeStyle;rounded=0;orthogonalLoop=1;jettySize=auto;html=1;exitX=1;exitY=0.5;exitDx=0;exitDy=0;strokeWidth=1;fontSize=17;" edge="1" parent="Xocx7TQtpYDV8lTPMGsu-1" source="Xocx7TQtpYDV8lTPMGsu-2" target="Xocx7TQtpYDV8lTPMGsu-6">
          <mxGeometry relative="1" as="geometry" />
        </mxCell>
        <mxCell id="Xocx7TQtpYDV8lTPMGsu-2" value="useState" style="rounded=0;whiteSpace=wrap;html=1;shadow=1;fontSize=27;align=center;fillColor=#dae8fc;strokeColor=#6c8ebf;" vertex="1" parent="Xocx7TQtpYDV8lTPMGsu-1">
          <mxGeometry x="530" y="330" width="160" height="50" as="geometry" />
        </mxCell>
        <mxCell id="Xocx7TQtpYDV8lTPMGsu-3" value="Hooks System" style="text;html=1;strokeColor=none;fillColor=none;align=center;verticalAlign=middle;whiteSpace=wrap;rounded=0;shadow=1;fontSize=27;fontStyle=1" vertex="1" parent="Xocx7TQtpYDV8lTPMGsu-1">
          <mxGeometry x="740" y="300" width="200" height="20" as="geometry" />
        </mxCell>
        <mxCell id="Xocx7TQtpYDV8lTPMGsu-4" value="useEffect" style="rounded=0;whiteSpace=wrap;html=1;shadow=1;fontSize=27;align=center;fillColor=#dae8fc;strokeColor=#6c8ebf;" vertex="1" parent="Xocx7TQtpYDV8lTPMGsu-1">
          <mxGeometry x="530" y="400" width="160" height="50" as="geometry" />
        </mxCell>
        <mxCell id="Xocx7TQtpYDV8lTPMGsu-5" value="useRef" style="rounded=0;whiteSpace=wrap;html=1;shadow=1;fontSize=27;align=center;fillColor=#dae8fc;strokeColor=#6c8ebf;" vertex="1" parent="Xocx7TQtpYDV8lTPMGsu-1">
          <mxGeometry x="530" y="470" width="160" height="50" as="geometry" />
        </mxCell>
        <mxCell id="Xocx7TQtpYDV8lTPMGsu-6" value="Function that lets you use &lt;b&gt;state&lt;/b&gt; in a functional component" style="rounded=0;whiteSpace=wrap;html=1;shadow=0;fontSize=17;align=center;" vertex="1" parent="Xocx7TQtpYDV8lTPMGsu-1">
          <mxGeometry x="710" y="330" width="400" height="50" as="geometry" />
        </mxCell>
        <mxCell id="Xocx7TQtpYDV8lTPMGsu-8" style="edgeStyle=orthogonalEdgeStyle;rounded=0;orthogonalLoop=1;jettySize=auto;html=1;exitX=1;exitY=0.5;exitDx=0;exitDy=0;strokeWidth=1;fontSize=17;" edge="1" parent="Xocx7TQtpYDV8lTPMGsu-1" target="Xocx7TQtpYDV8lTPMGsu-9">
          <mxGeometry relative="1" as="geometry">
            <mxPoint x="690" y="425" as="sourcePoint" />
          </mxGeometry>
        </mxCell>
        <mxCell id="Xocx7TQtpYDV8lTPMGsu-9" value="Function that lets you use &lt;i&gt;something like&lt;/i&gt;&amp;nbsp;&lt;b&gt;lifecycle methods&lt;/b&gt; in a functional component" style="rounded=0;whiteSpace=wrap;html=1;shadow=0;fontSize=17;align=center;" vertex="1" parent="Xocx7TQtpYDV8lTPMGsu-1">
          <mxGeometry x="710" y="400" width="400" height="50" as="geometry" />
        </mxCell>
        <mxCell id="Xocx7TQtpYDV8lTPMGsu-10" style="edgeStyle=orthogonalEdgeStyle;rounded=0;orthogonalLoop=1;jettySize=auto;html=1;exitX=1;exitY=0.5;exitDx=0;exitDy=0;strokeWidth=1;fontSize=17;" edge="1" parent="Xocx7TQtpYDV8lTPMGsu-1" target="Xocx7TQtpYDV8lTPMGsu-11">
          <mxGeometry relative="1" as="geometry">
            <mxPoint x="690" y="495" as="sourcePoint" />
          </mxGeometry>
        </mxCell>
        <mxCell id="Xocx7TQtpYDV8lTPMGsu-11" value="Function that lets you create a &lt;b&gt;&#39;ref&#39;&lt;/b&gt; in a function component" style="rounded=0;whiteSpace=wrap;html=1;shadow=0;fontSize=17;align=center;" vertex="1" parent="Xocx7TQtpYDV8lTPMGsu-1">
          <mxGeometry x="710" y="470" width="400" height="50" as="geometry" />
        </mxCell>
      </root>
    </mxGraphModel>
  </diagram>
  <diagram id="rRpXkT4ij-CPy3FtUWSA" name="11 - usestate">
    <mxGraphModel dx="858" dy="422" grid="1" gridSize="10" guides="1" tooltips="1" connect="1" arrows="1" fold="1" page="1" pageScale="1" pageWidth="1920" pageHeight="1200" math="0" shadow="0">
      <root>
        <mxCell id="iXcYF8tZR6j6iPS7CPfR-0" />
        <mxCell id="iXcYF8tZR6j6iPS7CPfR-1" parent="iXcYF8tZR6j6iPS7CPfR-0" />
        <mxCell id="iXcYF8tZR6j6iPS7CPfR-2" value="const [" style="rounded=0;whiteSpace=wrap;html=1;shadow=1;fontSize=20;align=center;fillColor=#dae8fc;strokeColor=#6c8ebf;" vertex="1" parent="iXcYF8tZR6j6iPS7CPfR-1">
          <mxGeometry x="410" y="240" width="100" height="70" as="geometry" />
        </mxCell>
        <mxCell id="iXcYF8tZR6j6iPS7CPfR-3" value="&lt;b&gt;color&lt;/b&gt;" style="rounded=0;whiteSpace=wrap;html=1;shadow=1;fontSize=20;align=center;fillColor=#dae8fc;strokeColor=#6c8ebf;" vertex="1" parent="iXcYF8tZR6j6iPS7CPfR-1">
          <mxGeometry x="510" y="240" width="150" height="70" as="geometry" />
        </mxCell>
        <mxCell id="iXcYF8tZR6j6iPS7CPfR-4" value="setColor" style="rounded=0;whiteSpace=wrap;html=1;shadow=1;fontSize=20;align=center;fillColor=#dae8fc;strokeColor=#6c8ebf;fontStyle=1" vertex="1" parent="iXcYF8tZR6j6iPS7CPfR-1">
          <mxGeometry x="660" y="240" width="150" height="70" as="geometry" />
        </mxCell>
        <mxCell id="iXcYF8tZR6j6iPS7CPfR-5" value="] = useState(" style="rounded=0;whiteSpace=wrap;html=1;shadow=1;fontSize=20;align=center;fillColor=#dae8fc;strokeColor=#6c8ebf;" vertex="1" parent="iXcYF8tZR6j6iPS7CPfR-1">
          <mxGeometry x="810" y="240" width="150" height="70" as="geometry" />
        </mxCell>
        <mxCell id="iXcYF8tZR6j6iPS7CPfR-6" value="&lt;b&gt;&quot;green&quot;&lt;/b&gt;" style="rounded=0;whiteSpace=wrap;html=1;shadow=1;fontSize=20;align=center;fillColor=#dae8fc;strokeColor=#6c8ebf;" vertex="1" parent="iXcYF8tZR6j6iPS7CPfR-1">
          <mxGeometry x="960" y="240" width="100" height="70" as="geometry" />
        </mxCell>
        <mxCell id="iXcYF8tZR6j6iPS7CPfR-7" value=")" style="rounded=0;whiteSpace=wrap;html=1;shadow=1;fontSize=20;align=center;fillColor=#dae8fc;strokeColor=#6c8ebf;" vertex="1" parent="iXcYF8tZR6j6iPS7CPfR-1">
          <mxGeometry x="1060" y="240" width="80" height="70" as="geometry" />
        </mxCell>
        <mxCell id="VsB5Q1vmUfu1mBZIwuN6-0" value="" style="shape=curlyBracket;whiteSpace=wrap;html=1;rounded=1;shadow=0;strokeWidth=1;fillColor=none;fontSize=20;align=center;rotation=-90;" vertex="1" parent="iXcYF8tZR6j6iPS7CPfR-1">
          <mxGeometry x="575" y="255" width="20" height="150" as="geometry" />
        </mxCell>
        <mxCell id="VsB5Q1vmUfu1mBZIwuN6-1" value="" style="shape=curlyBracket;whiteSpace=wrap;html=1;rounded=1;shadow=0;strokeWidth=1;fillColor=none;fontSize=20;align=center;rotation=90;" vertex="1" parent="iXcYF8tZR6j6iPS7CPfR-1">
          <mxGeometry x="725" y="150" width="20" height="150" as="geometry" />
        </mxCell>
        <mxCell id="VsB5Q1vmUfu1mBZIwuN6-3" value="" style="shape=curlyBracket;whiteSpace=wrap;html=1;rounded=1;shadow=0;strokeWidth=1;fillColor=none;fontSize=20;align=center;rotation=-90;" vertex="1" parent="iXcYF8tZR6j6iPS7CPfR-1">
          <mxGeometry x="1000" y="287.5" width="20" height="85" as="geometry" />
        </mxCell>
        <mxCell id="VsB5Q1vmUfu1mBZIwuN6-4" value="Piece of state" style="text;html=1;strokeColor=none;fillColor=none;align=center;verticalAlign=middle;whiteSpace=wrap;rounded=0;shadow=0;fontSize=20;" vertex="1" parent="iXcYF8tZR6j6iPS7CPfR-1">
          <mxGeometry x="537.5" y="340" width="95" height="50" as="geometry" />
        </mxCell>
        <mxCell id="VsB5Q1vmUfu1mBZIwuN6-5" value="Function to &lt;i&gt;change&lt;/i&gt;&amp;nbsp;this piece of state" style="text;html=1;strokeColor=none;fillColor=none;align=center;verticalAlign=middle;whiteSpace=wrap;rounded=0;shadow=0;fontSize=20;" vertex="1" parent="iXcYF8tZR6j6iPS7CPfR-1">
          <mxGeometry x="660" y="150" width="152.5" height="50" as="geometry" />
        </mxCell>
        <mxCell id="VsB5Q1vmUfu1mBZIwuN6-6" value="Initial value for this piece of state" style="text;html=1;strokeColor=none;fillColor=none;align=center;verticalAlign=middle;whiteSpace=wrap;rounded=0;shadow=0;fontSize=20;" vertex="1" parent="iXcYF8tZR6j6iPS7CPfR-1">
          <mxGeometry x="930" y="350" width="156.25" height="50" as="geometry" />
        </mxCell>
      </root>
    </mxGraphModel>
  </diagram>
  <diagram id="eyTlLQX8du7Q0fzzcVNo" name="14 - total">
    <mxGraphModel dx="791" dy="389" grid="1" gridSize="10" guides="1" tooltips="1" connect="1" arrows="1" fold="1" page="1" pageScale="1" pageWidth="1920" pageHeight="1200" math="0" shadow="0">
      <root>
        <mxCell id="zxY8SKSV0mCNZHjReeEm-0" />
        <mxCell id="zxY8SKSV0mCNZHjReeEm-1" parent="zxY8SKSV0mCNZHjReeEm-0" />
        <mxCell id="M81MCkFDhvE9Eguao2Cy-1" value="Class Components" style="text;html=1;strokeColor=none;fillColor=none;align=center;verticalAlign=middle;whiteSpace=wrap;rounded=0;shadow=0;fontSize=20;fontStyle=1" vertex="1" parent="zxY8SKSV0mCNZHjReeEm-1">
          <mxGeometry x="490" y="120" width="200" height="20" as="geometry" />
        </mxCell>
        <mxCell id="M81MCkFDhvE9Eguao2Cy-2" value="Function Components" style="text;html=1;strokeColor=none;fillColor=none;align=center;verticalAlign=middle;whiteSpace=wrap;rounded=0;shadow=0;fontSize=20;fontStyle=1" vertex="1" parent="zxY8SKSV0mCNZHjReeEm-1">
          <mxGeometry x="795" y="120" width="270" height="20" as="geometry" />
        </mxCell>
        <mxCell id="M81MCkFDhvE9Eguao2Cy-3" value="useState(0);" style="rounded=0;whiteSpace=wrap;html=1;shadow=1;strokeWidth=1;fontSize=20;align=center;fillColor=#dae8fc;strokeColor=#6c8ebf;fontStyle=2" vertex="1" parent="zxY8SKSV0mCNZHjReeEm-1">
          <mxGeometry x="780" y="150" width="300" height="60" as="geometry" />
        </mxCell>
        <mxCell id="M81MCkFDhvE9Eguao2Cy-12" style="edgeStyle=orthogonalEdgeStyle;rounded=0;orthogonalLoop=1;jettySize=auto;html=1;exitX=1;exitY=0.5;exitDx=0;exitDy=0;strokeWidth=1;fontSize=20;" edge="1" parent="zxY8SKSV0mCNZHjReeEm-1" source="M81MCkFDhvE9Eguao2Cy-4" target="M81MCkFDhvE9Eguao2Cy-3">
          <mxGeometry relative="1" as="geometry" />
        </mxCell>
        <mxCell id="M81MCkFDhvE9Eguao2Cy-4" value="&lt;i&gt;state = { activeIndex: 0 }&lt;/i&gt;" style="rounded=0;whiteSpace=wrap;html=1;shadow=0;strokeWidth=1;fontSize=20;align=center;" vertex="1" parent="zxY8SKSV0mCNZHjReeEm-1">
          <mxGeometry x="440" y="150" width="300" height="60" as="geometry" />
        </mxCell>
        <mxCell id="M81MCkFDhvE9Eguao2Cy-5" value="&lt;b&gt;Initialization&lt;/b&gt;" style="text;html=1;strokeColor=none;fillColor=none;align=right;verticalAlign=middle;whiteSpace=wrap;rounded=0;shadow=0;fontSize=20;" vertex="1" parent="zxY8SKSV0mCNZHjReeEm-1">
          <mxGeometry x="300" y="170" width="130" height="20" as="geometry" />
        </mxCell>
        <mxCell id="M81MCkFDhvE9Eguao2Cy-6" value="activeIndex;" style="rounded=0;whiteSpace=wrap;html=1;shadow=1;strokeWidth=1;fontSize=20;align=center;fontStyle=2;fillColor=#dae8fc;strokeColor=#6c8ebf;" vertex="1" parent="zxY8SKSV0mCNZHjReeEm-1">
          <mxGeometry x="780" y="230" width="300" height="60" as="geometry" />
        </mxCell>
        <mxCell id="M81MCkFDhvE9Eguao2Cy-13" style="edgeStyle=orthogonalEdgeStyle;rounded=0;orthogonalLoop=1;jettySize=auto;html=1;exitX=1;exitY=0.5;exitDx=0;exitDy=0;strokeWidth=1;fontSize=20;" edge="1" parent="zxY8SKSV0mCNZHjReeEm-1" source="M81MCkFDhvE9Eguao2Cy-7" target="M81MCkFDhvE9Eguao2Cy-6">
          <mxGeometry relative="1" as="geometry" />
        </mxCell>
        <mxCell id="M81MCkFDhvE9Eguao2Cy-7" value="&lt;i&gt;this.state.activeIndex&lt;/i&gt;" style="rounded=0;whiteSpace=wrap;html=1;shadow=0;strokeWidth=1;fontSize=20;align=center;" vertex="1" parent="zxY8SKSV0mCNZHjReeEm-1">
          <mxGeometry x="440" y="230" width="300" height="60" as="geometry" />
        </mxCell>
        <mxCell id="M81MCkFDhvE9Eguao2Cy-8" value="&lt;b&gt;Reference&lt;/b&gt;" style="text;html=1;strokeColor=none;fillColor=none;align=right;verticalAlign=middle;whiteSpace=wrap;rounded=0;shadow=0;fontSize=20;" vertex="1" parent="zxY8SKSV0mCNZHjReeEm-1">
          <mxGeometry x="300" y="250" width="130" height="20" as="geometry" />
        </mxCell>
        <mxCell id="M81MCkFDhvE9Eguao2Cy-9" value="setActiveIndex(10);" style="rounded=0;whiteSpace=wrap;html=1;shadow=1;strokeWidth=1;fontSize=20;align=center;fontStyle=2;fillColor=#dae8fc;strokeColor=#6c8ebf;" vertex="1" parent="zxY8SKSV0mCNZHjReeEm-1">
          <mxGeometry x="780" y="310" width="300" height="60" as="geometry" />
        </mxCell>
        <mxCell id="M81MCkFDhvE9Eguao2Cy-14" style="edgeStyle=orthogonalEdgeStyle;rounded=0;orthogonalLoop=1;jettySize=auto;html=1;exitX=1;exitY=0.5;exitDx=0;exitDy=0;strokeWidth=1;fontSize=20;" edge="1" parent="zxY8SKSV0mCNZHjReeEm-1" source="M81MCkFDhvE9Eguao2Cy-10" target="M81MCkFDhvE9Eguao2Cy-9">
          <mxGeometry relative="1" as="geometry" />
        </mxCell>
        <mxCell id="M81MCkFDhvE9Eguao2Cy-10" value="&lt;i&gt;this.setState({ activeIndex: 10 })&lt;/i&gt;" style="rounded=0;whiteSpace=wrap;html=1;shadow=0;strokeWidth=1;fontSize=20;align=center;" vertex="1" parent="zxY8SKSV0mCNZHjReeEm-1">
          <mxGeometry x="440" y="310" width="300" height="60" as="geometry" />
        </mxCell>
        <mxCell id="M81MCkFDhvE9Eguao2Cy-11" value="&lt;b&gt;Updates&lt;/b&gt;" style="text;html=1;strokeColor=none;fillColor=none;align=right;verticalAlign=middle;whiteSpace=wrap;rounded=0;shadow=0;fontSize=20;" vertex="1" parent="zxY8SKSV0mCNZHjReeEm-1">
          <mxGeometry x="300" y="330" width="130" height="20" as="geometry" />
        </mxCell>
      </root>
    </mxGraphModel>
  </diagram>
  <diagram name="15 - multiple" id="oCsKIpmqw5CbAVdMyNl5">
    <mxGraphModel dx="791" dy="389" grid="1" gridSize="10" guides="1" tooltips="1" connect="1" arrows="1" fold="1" page="1" pageScale="1" pageWidth="1920" pageHeight="1200" math="0" shadow="0">
      <root>
        <mxCell id="xNg2d60rrXDCQH95Y3yj-0" />
        <mxCell id="xNg2d60rrXDCQH95Y3yj-1" parent="xNg2d60rrXDCQH95Y3yj-0" />
        <mxCell id="xNg2d60rrXDCQH95Y3yj-2" value="Class Components" style="text;html=1;strokeColor=none;fillColor=none;align=center;verticalAlign=middle;whiteSpace=wrap;rounded=0;shadow=0;fontSize=20;fontStyle=1" vertex="1" parent="xNg2d60rrXDCQH95Y3yj-1">
          <mxGeometry x="490" y="120" width="200" height="20" as="geometry" />
        </mxCell>
        <mxCell id="xNg2d60rrXDCQH95Y3yj-3" value="Function Components" style="text;html=1;strokeColor=none;fillColor=none;align=center;verticalAlign=middle;whiteSpace=wrap;rounded=0;shadow=0;fontSize=20;fontStyle=1" vertex="1" parent="xNg2d60rrXDCQH95Y3yj-1">
          <mxGeometry x="795" y="120" width="270" height="20" as="geometry" />
        </mxCell>
        <mxCell id="xNg2d60rrXDCQH95Y3yj-4" value="&amp;nbsp; const [activeIndex, setActiveIndex] = useState(0);&amp;nbsp;&lt;br style=&quot;font-size: 13px&quot;&gt;&amp;nbsp; const [term, setTerm] = useState(&#39;&#39;);" style="rounded=0;whiteSpace=wrap;html=1;shadow=1;strokeWidth=1;fontSize=13;align=left;fillColor=#dae8fc;strokeColor=#6c8ebf;fontStyle=2" vertex="1" parent="xNg2d60rrXDCQH95Y3yj-1">
          <mxGeometry x="780" y="150" width="300" height="60" as="geometry" />
        </mxCell>
        <mxCell id="xNg2d60rrXDCQH95Y3yj-5" style="edgeStyle=orthogonalEdgeStyle;rounded=0;orthogonalLoop=1;jettySize=auto;html=1;exitX=1;exitY=0.5;exitDx=0;exitDy=0;strokeWidth=1;fontSize=20;" edge="1" parent="xNg2d60rrXDCQH95Y3yj-1" source="xNg2d60rrXDCQH95Y3yj-6" target="xNg2d60rrXDCQH95Y3yj-4">
          <mxGeometry relative="1" as="geometry" />
        </mxCell>
        <mxCell id="xNg2d60rrXDCQH95Y3yj-6" value="&lt;i&gt;state = { activeIndex: 0, term: &#39;&#39; }&lt;/i&gt;" style="rounded=0;whiteSpace=wrap;html=1;shadow=0;strokeWidth=1;fontSize=20;align=center;" vertex="1" parent="xNg2d60rrXDCQH95Y3yj-1">
          <mxGeometry x="440" y="150" width="300" height="60" as="geometry" />
        </mxCell>
        <mxCell id="xNg2d60rrXDCQH95Y3yj-7" value="&lt;b&gt;Initialization&lt;/b&gt;" style="text;html=1;strokeColor=none;fillColor=none;align=right;verticalAlign=middle;whiteSpace=wrap;rounded=0;shadow=0;fontSize=20;" vertex="1" parent="xNg2d60rrXDCQH95Y3yj-1">
          <mxGeometry x="300" y="170" width="130" height="20" as="geometry" />
        </mxCell>
        <mxCell id="xNg2d60rrXDCQH95Y3yj-8" value="&lt;blockquote style=&quot;margin: 0 0 0 40px ; border: none ; padding: 0px&quot;&gt;activeIndex;&lt;br&gt;term;&lt;/blockquote&gt;" style="rounded=0;whiteSpace=wrap;html=1;shadow=1;strokeWidth=1;fontSize=20;align=left;fontStyle=2;fillColor=#dae8fc;strokeColor=#6c8ebf;" vertex="1" parent="xNg2d60rrXDCQH95Y3yj-1">
          <mxGeometry x="780" y="230" width="300" height="60" as="geometry" />
        </mxCell>
        <mxCell id="xNg2d60rrXDCQH95Y3yj-9" style="edgeStyle=orthogonalEdgeStyle;rounded=0;orthogonalLoop=1;jettySize=auto;html=1;exitX=1;exitY=0.5;exitDx=0;exitDy=0;strokeWidth=1;fontSize=20;" edge="1" parent="xNg2d60rrXDCQH95Y3yj-1" source="xNg2d60rrXDCQH95Y3yj-10" target="xNg2d60rrXDCQH95Y3yj-8">
          <mxGeometry relative="1" as="geometry" />
        </mxCell>
        <mxCell id="xNg2d60rrXDCQH95Y3yj-10" value="&lt;blockquote style=&quot;margin: 0 0 0 40px ; border: none ; padding: 0px&quot;&gt;&lt;i&gt;this.state.activeIndex;&lt;br&gt;&lt;/i&gt;&lt;i&gt;this.state.term;&lt;/i&gt;&lt;/blockquote&gt;" style="rounded=0;whiteSpace=wrap;html=1;shadow=0;strokeWidth=1;fontSize=20;align=left;" vertex="1" parent="xNg2d60rrXDCQH95Y3yj-1">
          <mxGeometry x="440" y="230" width="300" height="60" as="geometry" />
        </mxCell>
        <mxCell id="xNg2d60rrXDCQH95Y3yj-11" value="&lt;b&gt;Reference&lt;/b&gt;" style="text;html=1;strokeColor=none;fillColor=none;align=right;verticalAlign=middle;whiteSpace=wrap;rounded=0;shadow=0;fontSize=20;" vertex="1" parent="xNg2d60rrXDCQH95Y3yj-1">
          <mxGeometry x="300" y="250" width="130" height="20" as="geometry" />
        </mxCell>
        <mxCell id="xNg2d60rrXDCQH95Y3yj-12" value="&lt;blockquote style=&quot;margin: 0 0 0 40px ; border: none ; padding: 0px&quot;&gt;setActiveIndex(10);&lt;br&gt;setTerm(&#39;search&#39;);&lt;/blockquote&gt;" style="rounded=0;whiteSpace=wrap;html=1;shadow=1;strokeWidth=1;fontSize=20;align=left;fontStyle=2;fillColor=#dae8fc;strokeColor=#6c8ebf;" vertex="1" parent="xNg2d60rrXDCQH95Y3yj-1">
          <mxGeometry x="780" y="310" width="300" height="60" as="geometry" />
        </mxCell>
        <mxCell id="xNg2d60rrXDCQH95Y3yj-13" style="edgeStyle=orthogonalEdgeStyle;rounded=0;orthogonalLoop=1;jettySize=auto;html=1;exitX=1;exitY=0.5;exitDx=0;exitDy=0;strokeWidth=1;fontSize=20;" edge="1" parent="xNg2d60rrXDCQH95Y3yj-1" source="xNg2d60rrXDCQH95Y3yj-14" target="xNg2d60rrXDCQH95Y3yj-12">
          <mxGeometry relative="1" as="geometry" />
        </mxCell>
        <mxCell id="xNg2d60rrXDCQH95Y3yj-14" value="&lt;i style=&quot;font-size: 16px;&quot;&gt;this.setState({ activeIndex: 10, term: &#39;hi&#39; })&lt;/i&gt;" style="rounded=0;whiteSpace=wrap;html=1;shadow=0;strokeWidth=1;fontSize=16;align=center;" vertex="1" parent="xNg2d60rrXDCQH95Y3yj-1">
          <mxGeometry x="440" y="310" width="300" height="60" as="geometry" />
        </mxCell>
        <mxCell id="xNg2d60rrXDCQH95Y3yj-15" value="&lt;b&gt;Updates&lt;/b&gt;" style="text;html=1;strokeColor=none;fillColor=none;align=right;verticalAlign=middle;whiteSpace=wrap;rounded=0;shadow=0;fontSize=20;" vertex="1" parent="xNg2d60rrXDCQH95Y3yj-1">
          <mxGeometry x="300" y="330" width="130" height="20" as="geometry" />
        </mxCell>
      </root>
    </mxGraphModel>
  </diagram>
</mxfile>
